G04 #@! TF.GenerationSoftware,KiCad,Pcbnew,(5.0.2)-1*
G04 #@! TF.CreationDate,2019-03-12T23:49:17-07:00*
G04 #@! TF.ProjectId,cheroquee_kicad,63686572-6f71-4756-9565-5f6b69636164,rev?*
G04 #@! TF.SameCoordinates,Original*
G04 #@! TF.FileFunction,Soldermask,Bot*
G04 #@! TF.FilePolarity,Negative*
%FSLAX46Y46*%
G04 Gerber Fmt 4.6, Leading zero omitted, Abs format (unit mm)*
G04 Created by KiCad (PCBNEW (5.0.2)-1) date 3/12/2019 11:49:17 PM*
%MOMM*%
%LPD*%
G01*
G04 APERTURE LIST*
%ADD10C,0.100000*%
G04 APERTURE END LIST*
D10*
G36*
X73880514Y-114843052D02*
X73880516Y-114843053D01*
X73880517Y-114843053D01*
X74018100Y-114900041D01*
X74018101Y-114900042D01*
X74141925Y-114982778D01*
X74247222Y-115088075D01*
X74247224Y-115088078D01*
X74329959Y-115211900D01*
X74386947Y-115349483D01*
X74416000Y-115495540D01*
X74416000Y-115644460D01*
X74386947Y-115790517D01*
X74329959Y-115928100D01*
X74329958Y-115928101D01*
X74247222Y-116051925D01*
X74141925Y-116157222D01*
X74141922Y-116157224D01*
X74018100Y-116239959D01*
X73880517Y-116296947D01*
X73880516Y-116296947D01*
X73880514Y-116296948D01*
X73734461Y-116326000D01*
X73585539Y-116326000D01*
X73439486Y-116296948D01*
X73439484Y-116296947D01*
X73439483Y-116296947D01*
X73301900Y-116239959D01*
X73178078Y-116157224D01*
X73178075Y-116157222D01*
X73072778Y-116051925D01*
X72990042Y-115928101D01*
X72990041Y-115928100D01*
X72933053Y-115790517D01*
X72904000Y-115644460D01*
X72904000Y-115495540D01*
X72933053Y-115349483D01*
X72990041Y-115211900D01*
X73072776Y-115088078D01*
X73072778Y-115088075D01*
X73178075Y-114982778D01*
X73301899Y-114900042D01*
X73301900Y-114900041D01*
X73439483Y-114843053D01*
X73439484Y-114843053D01*
X73439486Y-114843052D01*
X73585539Y-114814000D01*
X73734461Y-114814000D01*
X73880514Y-114843052D01*
X73880514Y-114843052D01*
G37*
G36*
X58640514Y-114843052D02*
X58640516Y-114843053D01*
X58640517Y-114843053D01*
X58778100Y-114900041D01*
X58778101Y-114900042D01*
X58901925Y-114982778D01*
X59007222Y-115088075D01*
X59007224Y-115088078D01*
X59089959Y-115211900D01*
X59146947Y-115349483D01*
X59176000Y-115495540D01*
X59176000Y-115644460D01*
X59146947Y-115790517D01*
X59089959Y-115928100D01*
X59089958Y-115928101D01*
X59007222Y-116051925D01*
X58901925Y-116157222D01*
X58901922Y-116157224D01*
X58778100Y-116239959D01*
X58640517Y-116296947D01*
X58640516Y-116296947D01*
X58640514Y-116296948D01*
X58494461Y-116326000D01*
X58345539Y-116326000D01*
X58199486Y-116296948D01*
X58199484Y-116296947D01*
X58199483Y-116296947D01*
X58061900Y-116239959D01*
X57938078Y-116157224D01*
X57938075Y-116157222D01*
X57832778Y-116051925D01*
X57750042Y-115928101D01*
X57750041Y-115928100D01*
X57693053Y-115790517D01*
X57664000Y-115644460D01*
X57664000Y-115495540D01*
X57693053Y-115349483D01*
X57750041Y-115211900D01*
X57832776Y-115088078D01*
X57832778Y-115088075D01*
X57938075Y-114982778D01*
X58061899Y-114900042D01*
X58061900Y-114900041D01*
X58199483Y-114843053D01*
X58199484Y-114843053D01*
X58199486Y-114843052D01*
X58345539Y-114814000D01*
X58494461Y-114814000D01*
X58640514Y-114843052D01*
X58640514Y-114843052D01*
G37*
G36*
X39480443Y-112135519D02*
X39546627Y-112142037D01*
X39659853Y-112176384D01*
X39716467Y-112193557D01*
X39855087Y-112267652D01*
X39872991Y-112277222D01*
X39904465Y-112303052D01*
X40010186Y-112389814D01*
X40093448Y-112491271D01*
X40122778Y-112527009D01*
X40122779Y-112527011D01*
X40206443Y-112683533D01*
X40206443Y-112683534D01*
X40257963Y-112853373D01*
X40275359Y-113030000D01*
X40257963Y-113206627D01*
X40244650Y-113250514D01*
X40206443Y-113376467D01*
X40200224Y-113388101D01*
X40122778Y-113532991D01*
X40093448Y-113568729D01*
X40010186Y-113670186D01*
X39908729Y-113753448D01*
X39872991Y-113782778D01*
X39872989Y-113782779D01*
X39716467Y-113866443D01*
X39659853Y-113883616D01*
X39546627Y-113917963D01*
X39480443Y-113924481D01*
X39414260Y-113931000D01*
X39325740Y-113931000D01*
X39259557Y-113924481D01*
X39193373Y-113917963D01*
X39080147Y-113883616D01*
X39023533Y-113866443D01*
X38867011Y-113782779D01*
X38867009Y-113782778D01*
X38831271Y-113753448D01*
X38729814Y-113670186D01*
X38646552Y-113568729D01*
X38617222Y-113532991D01*
X38539776Y-113388101D01*
X38533557Y-113376467D01*
X38495350Y-113250514D01*
X38482037Y-113206627D01*
X38464641Y-113030000D01*
X38482037Y-112853373D01*
X38533557Y-112683534D01*
X38533557Y-112683533D01*
X38617221Y-112527011D01*
X38617222Y-112527009D01*
X38646552Y-112491271D01*
X38729814Y-112389814D01*
X38835535Y-112303052D01*
X38867009Y-112277222D01*
X38884913Y-112267652D01*
X39023533Y-112193557D01*
X39080147Y-112176384D01*
X39193373Y-112142037D01*
X39259557Y-112135519D01*
X39325740Y-112129000D01*
X39414260Y-112129000D01*
X39480443Y-112135519D01*
X39480443Y-112135519D01*
G37*
G36*
X31860443Y-112135519D02*
X31926627Y-112142037D01*
X32039853Y-112176384D01*
X32096467Y-112193557D01*
X32235087Y-112267652D01*
X32252991Y-112277222D01*
X32284465Y-112303052D01*
X32390186Y-112389814D01*
X32473448Y-112491271D01*
X32502778Y-112527009D01*
X32502779Y-112527011D01*
X32586443Y-112683533D01*
X32586443Y-112683534D01*
X32637963Y-112853373D01*
X32655359Y-113030000D01*
X32637963Y-113206627D01*
X32624650Y-113250514D01*
X32586443Y-113376467D01*
X32580224Y-113388101D01*
X32502778Y-113532991D01*
X32473448Y-113568729D01*
X32390186Y-113670186D01*
X32288729Y-113753448D01*
X32252991Y-113782778D01*
X32252989Y-113782779D01*
X32096467Y-113866443D01*
X32039853Y-113883616D01*
X31926627Y-113917963D01*
X31860443Y-113924481D01*
X31794260Y-113931000D01*
X31705740Y-113931000D01*
X31639557Y-113924481D01*
X31573373Y-113917963D01*
X31460147Y-113883616D01*
X31403533Y-113866443D01*
X31247011Y-113782779D01*
X31247009Y-113782778D01*
X31211271Y-113753448D01*
X31109814Y-113670186D01*
X31026552Y-113568729D01*
X30997222Y-113532991D01*
X30919776Y-113388101D01*
X30913557Y-113376467D01*
X30875350Y-113250514D01*
X30862037Y-113206627D01*
X30844641Y-113030000D01*
X30862037Y-112853373D01*
X30913557Y-112683534D01*
X30913557Y-112683533D01*
X30997221Y-112527011D01*
X30997222Y-112527009D01*
X31026552Y-112491271D01*
X31109814Y-112389814D01*
X31215535Y-112303052D01*
X31247009Y-112277222D01*
X31264913Y-112267652D01*
X31403533Y-112193557D01*
X31460147Y-112176384D01*
X31573373Y-112142037D01*
X31639557Y-112135519D01*
X31705740Y-112129000D01*
X31794260Y-112129000D01*
X31860443Y-112135519D01*
X31860443Y-112135519D01*
G37*
G36*
X30111000Y-113931000D02*
X28309000Y-113931000D01*
X28309000Y-112129000D01*
X30111000Y-112129000D01*
X30111000Y-113931000D01*
X30111000Y-113931000D01*
G37*
G36*
X36940443Y-112135519D02*
X37006627Y-112142037D01*
X37119853Y-112176384D01*
X37176467Y-112193557D01*
X37315087Y-112267652D01*
X37332991Y-112277222D01*
X37364465Y-112303052D01*
X37470186Y-112389814D01*
X37553448Y-112491271D01*
X37582778Y-112527009D01*
X37582779Y-112527011D01*
X37666443Y-112683533D01*
X37666443Y-112683534D01*
X37717963Y-112853373D01*
X37735359Y-113030000D01*
X37717963Y-113206627D01*
X37704650Y-113250514D01*
X37666443Y-113376467D01*
X37660224Y-113388101D01*
X37582778Y-113532991D01*
X37553448Y-113568729D01*
X37470186Y-113670186D01*
X37368729Y-113753448D01*
X37332991Y-113782778D01*
X37332989Y-113782779D01*
X37176467Y-113866443D01*
X37119853Y-113883616D01*
X37006627Y-113917963D01*
X36940443Y-113924481D01*
X36874260Y-113931000D01*
X36785740Y-113931000D01*
X36719557Y-113924481D01*
X36653373Y-113917963D01*
X36540147Y-113883616D01*
X36483533Y-113866443D01*
X36327011Y-113782779D01*
X36327009Y-113782778D01*
X36291271Y-113753448D01*
X36189814Y-113670186D01*
X36106552Y-113568729D01*
X36077222Y-113532991D01*
X35999776Y-113388101D01*
X35993557Y-113376467D01*
X35955350Y-113250514D01*
X35942037Y-113206627D01*
X35924641Y-113030000D01*
X35942037Y-112853373D01*
X35993557Y-112683534D01*
X35993557Y-112683533D01*
X36077221Y-112527011D01*
X36077222Y-112527009D01*
X36106552Y-112491271D01*
X36189814Y-112389814D01*
X36295535Y-112303052D01*
X36327009Y-112277222D01*
X36344913Y-112267652D01*
X36483533Y-112193557D01*
X36540147Y-112176384D01*
X36653373Y-112142037D01*
X36719557Y-112135519D01*
X36785740Y-112129000D01*
X36874260Y-112129000D01*
X36940443Y-112135519D01*
X36940443Y-112135519D01*
G37*
G36*
X34400443Y-112135519D02*
X34466627Y-112142037D01*
X34579853Y-112176384D01*
X34636467Y-112193557D01*
X34775087Y-112267652D01*
X34792991Y-112277222D01*
X34824465Y-112303052D01*
X34930186Y-112389814D01*
X35013448Y-112491271D01*
X35042778Y-112527009D01*
X35042779Y-112527011D01*
X35126443Y-112683533D01*
X35126443Y-112683534D01*
X35177963Y-112853373D01*
X35195359Y-113030000D01*
X35177963Y-113206627D01*
X35164650Y-113250514D01*
X35126443Y-113376467D01*
X35120224Y-113388101D01*
X35042778Y-113532991D01*
X35013448Y-113568729D01*
X34930186Y-113670186D01*
X34828729Y-113753448D01*
X34792991Y-113782778D01*
X34792989Y-113782779D01*
X34636467Y-113866443D01*
X34579853Y-113883616D01*
X34466627Y-113917963D01*
X34400443Y-113924481D01*
X34334260Y-113931000D01*
X34245740Y-113931000D01*
X34179557Y-113924481D01*
X34113373Y-113917963D01*
X34000147Y-113883616D01*
X33943533Y-113866443D01*
X33787011Y-113782779D01*
X33787009Y-113782778D01*
X33751271Y-113753448D01*
X33649814Y-113670186D01*
X33566552Y-113568729D01*
X33537222Y-113532991D01*
X33459776Y-113388101D01*
X33453557Y-113376467D01*
X33415350Y-113250514D01*
X33402037Y-113206627D01*
X33384641Y-113030000D01*
X33402037Y-112853373D01*
X33453557Y-112683534D01*
X33453557Y-112683533D01*
X33537221Y-112527011D01*
X33537222Y-112527009D01*
X33566552Y-112491271D01*
X33649814Y-112389814D01*
X33755535Y-112303052D01*
X33787009Y-112277222D01*
X33804913Y-112267652D01*
X33943533Y-112193557D01*
X34000147Y-112176384D01*
X34113373Y-112142037D01*
X34179557Y-112135519D01*
X34245740Y-112129000D01*
X34334260Y-112129000D01*
X34400443Y-112135519D01*
X34400443Y-112135519D01*
G37*
G36*
X58640514Y-112303052D02*
X58640516Y-112303053D01*
X58640517Y-112303053D01*
X58778100Y-112360041D01*
X58822660Y-112389815D01*
X58901925Y-112442778D01*
X59007222Y-112548075D01*
X59007224Y-112548078D01*
X59089959Y-112671900D01*
X59146947Y-112809483D01*
X59146948Y-112809486D01*
X59176000Y-112955539D01*
X59176000Y-113104461D01*
X59155678Y-113206627D01*
X59146947Y-113250517D01*
X59089959Y-113388100D01*
X59089958Y-113388101D01*
X59007222Y-113511925D01*
X58901925Y-113617222D01*
X58901922Y-113617224D01*
X58778100Y-113699959D01*
X58640517Y-113756947D01*
X58640516Y-113756947D01*
X58640514Y-113756948D01*
X58494461Y-113786000D01*
X58345539Y-113786000D01*
X58199486Y-113756948D01*
X58199484Y-113756947D01*
X58199483Y-113756947D01*
X58061900Y-113699959D01*
X57938078Y-113617224D01*
X57938075Y-113617222D01*
X57832778Y-113511925D01*
X57750042Y-113388101D01*
X57750041Y-113388100D01*
X57693053Y-113250517D01*
X57684323Y-113206627D01*
X57664000Y-113104461D01*
X57664000Y-112955539D01*
X57693052Y-112809486D01*
X57693053Y-112809483D01*
X57750041Y-112671900D01*
X57832776Y-112548078D01*
X57832778Y-112548075D01*
X57938075Y-112442778D01*
X58017340Y-112389815D01*
X58061900Y-112360041D01*
X58199483Y-112303053D01*
X58199484Y-112303053D01*
X58199486Y-112303052D01*
X58345539Y-112274000D01*
X58494461Y-112274000D01*
X58640514Y-112303052D01*
X58640514Y-112303052D01*
G37*
G36*
X73880514Y-112303052D02*
X73880516Y-112303053D01*
X73880517Y-112303053D01*
X74018100Y-112360041D01*
X74062660Y-112389815D01*
X74141925Y-112442778D01*
X74247222Y-112548075D01*
X74247224Y-112548078D01*
X74329959Y-112671900D01*
X74386947Y-112809483D01*
X74386948Y-112809486D01*
X74416000Y-112955539D01*
X74416000Y-113104461D01*
X74395678Y-113206627D01*
X74386947Y-113250517D01*
X74329959Y-113388100D01*
X74329958Y-113388101D01*
X74247222Y-113511925D01*
X74141925Y-113617222D01*
X74141922Y-113617224D01*
X74018100Y-113699959D01*
X73880517Y-113756947D01*
X73880516Y-113756947D01*
X73880514Y-113756948D01*
X73734461Y-113786000D01*
X73585539Y-113786000D01*
X73439486Y-113756948D01*
X73439484Y-113756947D01*
X73439483Y-113756947D01*
X73301900Y-113699959D01*
X73178078Y-113617224D01*
X73178075Y-113617222D01*
X73072778Y-113511925D01*
X72990042Y-113388101D01*
X72990041Y-113388100D01*
X72933053Y-113250517D01*
X72924323Y-113206627D01*
X72904000Y-113104461D01*
X72904000Y-112955539D01*
X72933052Y-112809486D01*
X72933053Y-112809483D01*
X72990041Y-112671900D01*
X73072776Y-112548078D01*
X73072778Y-112548075D01*
X73178075Y-112442778D01*
X73257340Y-112389815D01*
X73301900Y-112360041D01*
X73439483Y-112303053D01*
X73439484Y-112303053D01*
X73439486Y-112303052D01*
X73585539Y-112274000D01*
X73734461Y-112274000D01*
X73880514Y-112303052D01*
X73880514Y-112303052D01*
G37*
G36*
X58640514Y-109763052D02*
X58640516Y-109763053D01*
X58640517Y-109763053D01*
X58778100Y-109820041D01*
X58778101Y-109820042D01*
X58901925Y-109902778D01*
X59007222Y-110008075D01*
X59007224Y-110008078D01*
X59089959Y-110131900D01*
X59146947Y-110269483D01*
X59176000Y-110415540D01*
X59176000Y-110564460D01*
X59146947Y-110710517D01*
X59089959Y-110848100D01*
X59089958Y-110848101D01*
X59007222Y-110971925D01*
X58901925Y-111077222D01*
X58901922Y-111077224D01*
X58778100Y-111159959D01*
X58640517Y-111216947D01*
X58640516Y-111216947D01*
X58640514Y-111216948D01*
X58494461Y-111246000D01*
X58345539Y-111246000D01*
X58199486Y-111216948D01*
X58199484Y-111216947D01*
X58199483Y-111216947D01*
X58061900Y-111159959D01*
X57938078Y-111077224D01*
X57938075Y-111077222D01*
X57832778Y-110971925D01*
X57750042Y-110848101D01*
X57750041Y-110848100D01*
X57693053Y-110710517D01*
X57664000Y-110564460D01*
X57664000Y-110415540D01*
X57693053Y-110269483D01*
X57750041Y-110131900D01*
X57832776Y-110008078D01*
X57832778Y-110008075D01*
X57938075Y-109902778D01*
X58061899Y-109820042D01*
X58061900Y-109820041D01*
X58199483Y-109763053D01*
X58199484Y-109763053D01*
X58199486Y-109763052D01*
X58345539Y-109734000D01*
X58494461Y-109734000D01*
X58640514Y-109763052D01*
X58640514Y-109763052D01*
G37*
G36*
X73880514Y-109763052D02*
X73880516Y-109763053D01*
X73880517Y-109763053D01*
X74018100Y-109820041D01*
X74018101Y-109820042D01*
X74141925Y-109902778D01*
X74247222Y-110008075D01*
X74247224Y-110008078D01*
X74329959Y-110131900D01*
X74386947Y-110269483D01*
X74416000Y-110415540D01*
X74416000Y-110564460D01*
X74386947Y-110710517D01*
X74329959Y-110848100D01*
X74329958Y-110848101D01*
X74247222Y-110971925D01*
X74141925Y-111077222D01*
X74141922Y-111077224D01*
X74018100Y-111159959D01*
X73880517Y-111216947D01*
X73880516Y-111216947D01*
X73880514Y-111216948D01*
X73734461Y-111246000D01*
X73585539Y-111246000D01*
X73439486Y-111216948D01*
X73439484Y-111216947D01*
X73439483Y-111216947D01*
X73301900Y-111159959D01*
X73178078Y-111077224D01*
X73178075Y-111077222D01*
X73072778Y-110971925D01*
X72990042Y-110848101D01*
X72990041Y-110848100D01*
X72933053Y-110710517D01*
X72904000Y-110564460D01*
X72904000Y-110415540D01*
X72933053Y-110269483D01*
X72990041Y-110131900D01*
X73072776Y-110008078D01*
X73072778Y-110008075D01*
X73178075Y-109902778D01*
X73301899Y-109820042D01*
X73301900Y-109820041D01*
X73439483Y-109763053D01*
X73439484Y-109763053D01*
X73439486Y-109763052D01*
X73585539Y-109734000D01*
X73734461Y-109734000D01*
X73880514Y-109763052D01*
X73880514Y-109763052D01*
G37*
G36*
X58640514Y-107223052D02*
X58640516Y-107223053D01*
X58640517Y-107223053D01*
X58778100Y-107280041D01*
X58778101Y-107280042D01*
X58901925Y-107362778D01*
X59007222Y-107468075D01*
X59007224Y-107468078D01*
X59089959Y-107591900D01*
X59146947Y-107729483D01*
X59176000Y-107875540D01*
X59176000Y-108024460D01*
X59146947Y-108170517D01*
X59089959Y-108308100D01*
X59089958Y-108308101D01*
X59007222Y-108431925D01*
X58901925Y-108537222D01*
X58901922Y-108537224D01*
X58778100Y-108619959D01*
X58640517Y-108676947D01*
X58640516Y-108676947D01*
X58640514Y-108676948D01*
X58494461Y-108706000D01*
X58345539Y-108706000D01*
X58199486Y-108676948D01*
X58199484Y-108676947D01*
X58199483Y-108676947D01*
X58061900Y-108619959D01*
X57938078Y-108537224D01*
X57938075Y-108537222D01*
X57832778Y-108431925D01*
X57750042Y-108308101D01*
X57750041Y-108308100D01*
X57693053Y-108170517D01*
X57664000Y-108024460D01*
X57664000Y-107875540D01*
X57693053Y-107729483D01*
X57750041Y-107591900D01*
X57832776Y-107468078D01*
X57832778Y-107468075D01*
X57938075Y-107362778D01*
X58061899Y-107280042D01*
X58061900Y-107280041D01*
X58199483Y-107223053D01*
X58199484Y-107223053D01*
X58199486Y-107223052D01*
X58345539Y-107194000D01*
X58494461Y-107194000D01*
X58640514Y-107223052D01*
X58640514Y-107223052D01*
G37*
G36*
X73880514Y-107223052D02*
X73880516Y-107223053D01*
X73880517Y-107223053D01*
X74018100Y-107280041D01*
X74018101Y-107280042D01*
X74141925Y-107362778D01*
X74247222Y-107468075D01*
X74247224Y-107468078D01*
X74329959Y-107591900D01*
X74386947Y-107729483D01*
X74416000Y-107875540D01*
X74416000Y-108024460D01*
X74386947Y-108170517D01*
X74329959Y-108308100D01*
X74329958Y-108308101D01*
X74247222Y-108431925D01*
X74141925Y-108537222D01*
X74141922Y-108537224D01*
X74018100Y-108619959D01*
X73880517Y-108676947D01*
X73880516Y-108676947D01*
X73880514Y-108676948D01*
X73734461Y-108706000D01*
X73585539Y-108706000D01*
X73439486Y-108676948D01*
X73439484Y-108676947D01*
X73439483Y-108676947D01*
X73301900Y-108619959D01*
X73178078Y-108537224D01*
X73178075Y-108537222D01*
X73072778Y-108431925D01*
X72990042Y-108308101D01*
X72990041Y-108308100D01*
X72933053Y-108170517D01*
X72904000Y-108024460D01*
X72904000Y-107875540D01*
X72933053Y-107729483D01*
X72990041Y-107591900D01*
X73072776Y-107468078D01*
X73072778Y-107468075D01*
X73178075Y-107362778D01*
X73301899Y-107280042D01*
X73301900Y-107280041D01*
X73439483Y-107223053D01*
X73439484Y-107223053D01*
X73439486Y-107223052D01*
X73585539Y-107194000D01*
X73734461Y-107194000D01*
X73880514Y-107223052D01*
X73880514Y-107223052D01*
G37*
G36*
X73880514Y-104683052D02*
X73880516Y-104683053D01*
X73880517Y-104683053D01*
X74018100Y-104740041D01*
X74018101Y-104740042D01*
X74141925Y-104822778D01*
X74247222Y-104928075D01*
X74247224Y-104928078D01*
X74329959Y-105051900D01*
X74386947Y-105189483D01*
X74416000Y-105335540D01*
X74416000Y-105484460D01*
X74386947Y-105630517D01*
X74329959Y-105768100D01*
X74329958Y-105768101D01*
X74247222Y-105891925D01*
X74141925Y-105997222D01*
X74141922Y-105997224D01*
X74018100Y-106079959D01*
X73880517Y-106136947D01*
X73880516Y-106136947D01*
X73880514Y-106136948D01*
X73734461Y-106166000D01*
X73585539Y-106166000D01*
X73439486Y-106136948D01*
X73439484Y-106136947D01*
X73439483Y-106136947D01*
X73301900Y-106079959D01*
X73178078Y-105997224D01*
X73178075Y-105997222D01*
X73072778Y-105891925D01*
X72990042Y-105768101D01*
X72990041Y-105768100D01*
X72933053Y-105630517D01*
X72904000Y-105484460D01*
X72904000Y-105335540D01*
X72933053Y-105189483D01*
X72990041Y-105051900D01*
X73072776Y-104928078D01*
X73072778Y-104928075D01*
X73178075Y-104822778D01*
X73301899Y-104740042D01*
X73301900Y-104740041D01*
X73439483Y-104683053D01*
X73439484Y-104683053D01*
X73439486Y-104683052D01*
X73585539Y-104654000D01*
X73734461Y-104654000D01*
X73880514Y-104683052D01*
X73880514Y-104683052D01*
G37*
G36*
X58640514Y-104683052D02*
X58640516Y-104683053D01*
X58640517Y-104683053D01*
X58778100Y-104740041D01*
X58778101Y-104740042D01*
X58901925Y-104822778D01*
X59007222Y-104928075D01*
X59007224Y-104928078D01*
X59089959Y-105051900D01*
X59146947Y-105189483D01*
X59176000Y-105335540D01*
X59176000Y-105484460D01*
X59146947Y-105630517D01*
X59089959Y-105768100D01*
X59089958Y-105768101D01*
X59007222Y-105891925D01*
X58901925Y-105997222D01*
X58901922Y-105997224D01*
X58778100Y-106079959D01*
X58640517Y-106136947D01*
X58640516Y-106136947D01*
X58640514Y-106136948D01*
X58494461Y-106166000D01*
X58345539Y-106166000D01*
X58199486Y-106136948D01*
X58199484Y-106136947D01*
X58199483Y-106136947D01*
X58061900Y-106079959D01*
X57938078Y-105997224D01*
X57938075Y-105997222D01*
X57832778Y-105891925D01*
X57750042Y-105768101D01*
X57750041Y-105768100D01*
X57693053Y-105630517D01*
X57664000Y-105484460D01*
X57664000Y-105335540D01*
X57693053Y-105189483D01*
X57750041Y-105051900D01*
X57832776Y-104928078D01*
X57832778Y-104928075D01*
X57938075Y-104822778D01*
X58061899Y-104740042D01*
X58061900Y-104740041D01*
X58199483Y-104683053D01*
X58199484Y-104683053D01*
X58199486Y-104683052D01*
X58345539Y-104654000D01*
X58494461Y-104654000D01*
X58640514Y-104683052D01*
X58640514Y-104683052D01*
G37*
G36*
X73880514Y-102143052D02*
X73880516Y-102143053D01*
X73880517Y-102143053D01*
X74018100Y-102200041D01*
X74018101Y-102200042D01*
X74141925Y-102282778D01*
X74247222Y-102388075D01*
X74247224Y-102388078D01*
X74329959Y-102511900D01*
X74386947Y-102649483D01*
X74416000Y-102795540D01*
X74416000Y-102944460D01*
X74386947Y-103090517D01*
X74329959Y-103228100D01*
X74329958Y-103228101D01*
X74247222Y-103351925D01*
X74141925Y-103457222D01*
X74141922Y-103457224D01*
X74018100Y-103539959D01*
X73880517Y-103596947D01*
X73880516Y-103596947D01*
X73880514Y-103596948D01*
X73734461Y-103626000D01*
X73585539Y-103626000D01*
X73439486Y-103596948D01*
X73439484Y-103596947D01*
X73439483Y-103596947D01*
X73301900Y-103539959D01*
X73178078Y-103457224D01*
X73178075Y-103457222D01*
X73072778Y-103351925D01*
X72990042Y-103228101D01*
X72990041Y-103228100D01*
X72933053Y-103090517D01*
X72904000Y-102944460D01*
X72904000Y-102795540D01*
X72933053Y-102649483D01*
X72990041Y-102511900D01*
X73072776Y-102388078D01*
X73072778Y-102388075D01*
X73178075Y-102282778D01*
X73301899Y-102200042D01*
X73301900Y-102200041D01*
X73439483Y-102143053D01*
X73439484Y-102143053D01*
X73439486Y-102143052D01*
X73585539Y-102114000D01*
X73734461Y-102114000D01*
X73880514Y-102143052D01*
X73880514Y-102143052D01*
G37*
G36*
X58640514Y-102143052D02*
X58640516Y-102143053D01*
X58640517Y-102143053D01*
X58778100Y-102200041D01*
X58778101Y-102200042D01*
X58901925Y-102282778D01*
X59007222Y-102388075D01*
X59007224Y-102388078D01*
X59089959Y-102511900D01*
X59146947Y-102649483D01*
X59176000Y-102795540D01*
X59176000Y-102944460D01*
X59146947Y-103090517D01*
X59089959Y-103228100D01*
X59089958Y-103228101D01*
X59007222Y-103351925D01*
X58901925Y-103457222D01*
X58901922Y-103457224D01*
X58778100Y-103539959D01*
X58640517Y-103596947D01*
X58640516Y-103596947D01*
X58640514Y-103596948D01*
X58494461Y-103626000D01*
X58345539Y-103626000D01*
X58199486Y-103596948D01*
X58199484Y-103596947D01*
X58199483Y-103596947D01*
X58061900Y-103539959D01*
X57938078Y-103457224D01*
X57938075Y-103457222D01*
X57832778Y-103351925D01*
X57750042Y-103228101D01*
X57750041Y-103228100D01*
X57693053Y-103090517D01*
X57664000Y-102944460D01*
X57664000Y-102795540D01*
X57693053Y-102649483D01*
X57750041Y-102511900D01*
X57832776Y-102388078D01*
X57832778Y-102388075D01*
X57938075Y-102282778D01*
X58061899Y-102200042D01*
X58061900Y-102200041D01*
X58199483Y-102143053D01*
X58199484Y-102143053D01*
X58199486Y-102143052D01*
X58345539Y-102114000D01*
X58494461Y-102114000D01*
X58640514Y-102143052D01*
X58640514Y-102143052D01*
G37*
G36*
X89010443Y-100705519D02*
X89076627Y-100712037D01*
X89189853Y-100746384D01*
X89246467Y-100763557D01*
X89385087Y-100837652D01*
X89402991Y-100847222D01*
X89438729Y-100876552D01*
X89540186Y-100959814D01*
X89619900Y-101056947D01*
X89652778Y-101097009D01*
X89652779Y-101097011D01*
X89736443Y-101253533D01*
X89736443Y-101253534D01*
X89787963Y-101423373D01*
X89805359Y-101600000D01*
X89787963Y-101776627D01*
X89753616Y-101889853D01*
X89736443Y-101946467D01*
X89662348Y-102085087D01*
X89652778Y-102102991D01*
X89643743Y-102114000D01*
X89540186Y-102240186D01*
X89438729Y-102323448D01*
X89402991Y-102352778D01*
X89402989Y-102352779D01*
X89246467Y-102436443D01*
X89189853Y-102453616D01*
X89076627Y-102487963D01*
X89010442Y-102494482D01*
X88944260Y-102501000D01*
X88855740Y-102501000D01*
X88789558Y-102494482D01*
X88723373Y-102487963D01*
X88610147Y-102453616D01*
X88553533Y-102436443D01*
X88397011Y-102352779D01*
X88397009Y-102352778D01*
X88361271Y-102323448D01*
X88259814Y-102240186D01*
X88156257Y-102114000D01*
X88147222Y-102102991D01*
X88137652Y-102085087D01*
X88063557Y-101946467D01*
X88046384Y-101889853D01*
X88012037Y-101776627D01*
X87994641Y-101600000D01*
X88012037Y-101423373D01*
X88063557Y-101253534D01*
X88063557Y-101253533D01*
X88147221Y-101097011D01*
X88147222Y-101097009D01*
X88180100Y-101056947D01*
X88259814Y-100959814D01*
X88361271Y-100876552D01*
X88397009Y-100847222D01*
X88414913Y-100837652D01*
X88553533Y-100763557D01*
X88610147Y-100746384D01*
X88723373Y-100712037D01*
X88789557Y-100705519D01*
X88855740Y-100699000D01*
X88944260Y-100699000D01*
X89010443Y-100705519D01*
X89010443Y-100705519D01*
G37*
G36*
X43454188Y-99426123D02*
X43625257Y-99496983D01*
X43779216Y-99599855D01*
X43910145Y-99730784D01*
X44013017Y-99884743D01*
X44083877Y-100055812D01*
X44120000Y-100237417D01*
X44120000Y-100422583D01*
X44083877Y-100604188D01*
X44013017Y-100775257D01*
X43910145Y-100929216D01*
X43779216Y-101060145D01*
X43625257Y-101163017D01*
X43454188Y-101233877D01*
X43272583Y-101270000D01*
X43087417Y-101270000D01*
X42905812Y-101233877D01*
X42734743Y-101163017D01*
X42580784Y-101060145D01*
X42449855Y-100929216D01*
X42346983Y-100775257D01*
X42276123Y-100604188D01*
X42240000Y-100422583D01*
X42240000Y-100237417D01*
X42276123Y-100055812D01*
X42346983Y-99884743D01*
X42449855Y-99730784D01*
X42580784Y-99599855D01*
X42734743Y-99496983D01*
X42905812Y-99426123D01*
X43087417Y-99390000D01*
X43272583Y-99390000D01*
X43454188Y-99426123D01*
X43454188Y-99426123D01*
G37*
G36*
X28214188Y-99426123D02*
X28385257Y-99496983D01*
X28539216Y-99599855D01*
X28670145Y-99730784D01*
X28773017Y-99884743D01*
X28843877Y-100055812D01*
X28880000Y-100237417D01*
X28880000Y-100422583D01*
X28843877Y-100604188D01*
X28773017Y-100775257D01*
X28670145Y-100929216D01*
X28539216Y-101060145D01*
X28385257Y-101163017D01*
X28214188Y-101233877D01*
X28032583Y-101270000D01*
X27847417Y-101270000D01*
X27665812Y-101233877D01*
X27494743Y-101163017D01*
X27340784Y-101060145D01*
X27209855Y-100929216D01*
X27106983Y-100775257D01*
X27036123Y-100604188D01*
X27000000Y-100422583D01*
X27000000Y-100237417D01*
X27036123Y-100055812D01*
X27106983Y-99884743D01*
X27209855Y-99730784D01*
X27340784Y-99599855D01*
X27494743Y-99496983D01*
X27665812Y-99426123D01*
X27847417Y-99390000D01*
X28032583Y-99390000D01*
X28214188Y-99426123D01*
X28214188Y-99426123D01*
G37*
G36*
X58640514Y-99603052D02*
X58640516Y-99603053D01*
X58640517Y-99603053D01*
X58778100Y-99660041D01*
X58778101Y-99660042D01*
X58901925Y-99742778D01*
X59007222Y-99848075D01*
X59007224Y-99848078D01*
X59089959Y-99971900D01*
X59146947Y-100109483D01*
X59176000Y-100255540D01*
X59176000Y-100404460D01*
X59146947Y-100550517D01*
X59089959Y-100688100D01*
X59089958Y-100688101D01*
X59007222Y-100811925D01*
X58901925Y-100917222D01*
X58901922Y-100917224D01*
X58778100Y-100999959D01*
X58640517Y-101056947D01*
X58640516Y-101056947D01*
X58640514Y-101056948D01*
X58494461Y-101086000D01*
X58345539Y-101086000D01*
X58199486Y-101056948D01*
X58199484Y-101056947D01*
X58199483Y-101056947D01*
X58061900Y-100999959D01*
X57938078Y-100917224D01*
X57938075Y-100917222D01*
X57832778Y-100811925D01*
X57750042Y-100688101D01*
X57750041Y-100688100D01*
X57693053Y-100550517D01*
X57664000Y-100404460D01*
X57664000Y-100255540D01*
X57693053Y-100109483D01*
X57750041Y-99971900D01*
X57832776Y-99848078D01*
X57832778Y-99848075D01*
X57938075Y-99742778D01*
X58061899Y-99660042D01*
X58061900Y-99660041D01*
X58199483Y-99603053D01*
X58199484Y-99603053D01*
X58199486Y-99603052D01*
X58345539Y-99574000D01*
X58494461Y-99574000D01*
X58640514Y-99603052D01*
X58640514Y-99603052D01*
G37*
G36*
X73880514Y-99603052D02*
X73880516Y-99603053D01*
X73880517Y-99603053D01*
X74018100Y-99660041D01*
X74018101Y-99660042D01*
X74141925Y-99742778D01*
X74247222Y-99848075D01*
X74247224Y-99848078D01*
X74329959Y-99971900D01*
X74386947Y-100109483D01*
X74416000Y-100255540D01*
X74416000Y-100404460D01*
X74386947Y-100550517D01*
X74329959Y-100688100D01*
X74329958Y-100688101D01*
X74247222Y-100811925D01*
X74141925Y-100917222D01*
X74141922Y-100917224D01*
X74018100Y-100999959D01*
X73880517Y-101056947D01*
X73880516Y-101056947D01*
X73880514Y-101056948D01*
X73734461Y-101086000D01*
X73585539Y-101086000D01*
X73439486Y-101056948D01*
X73439484Y-101056947D01*
X73439483Y-101056947D01*
X73301900Y-100999959D01*
X73178078Y-100917224D01*
X73178075Y-100917222D01*
X73072778Y-100811925D01*
X72990042Y-100688101D01*
X72990041Y-100688100D01*
X72933053Y-100550517D01*
X72904000Y-100404460D01*
X72904000Y-100255540D01*
X72933053Y-100109483D01*
X72990041Y-99971900D01*
X73072776Y-99848078D01*
X73072778Y-99848075D01*
X73178075Y-99742778D01*
X73301899Y-99660042D01*
X73301900Y-99660041D01*
X73439483Y-99603053D01*
X73439484Y-99603053D01*
X73439486Y-99603052D01*
X73585539Y-99574000D01*
X73734461Y-99574000D01*
X73880514Y-99603052D01*
X73880514Y-99603052D01*
G37*
G36*
X89010443Y-98165519D02*
X89076627Y-98172037D01*
X89189853Y-98206384D01*
X89246467Y-98223557D01*
X89385087Y-98297652D01*
X89402991Y-98307222D01*
X89438729Y-98336552D01*
X89540186Y-98419814D01*
X89619900Y-98516947D01*
X89652778Y-98557009D01*
X89652779Y-98557011D01*
X89736443Y-98713533D01*
X89736443Y-98713534D01*
X89787963Y-98883373D01*
X89805359Y-99060000D01*
X89787963Y-99236627D01*
X89753616Y-99349853D01*
X89736443Y-99406467D01*
X89688060Y-99496983D01*
X89652778Y-99562991D01*
X89643743Y-99574000D01*
X89540186Y-99700186D01*
X89438729Y-99783448D01*
X89402991Y-99812778D01*
X89402989Y-99812779D01*
X89246467Y-99896443D01*
X89189853Y-99913616D01*
X89076627Y-99947963D01*
X89010443Y-99954481D01*
X88944260Y-99961000D01*
X88855740Y-99961000D01*
X88789557Y-99954481D01*
X88723373Y-99947963D01*
X88610147Y-99913616D01*
X88553533Y-99896443D01*
X88397011Y-99812779D01*
X88397009Y-99812778D01*
X88361271Y-99783448D01*
X88259814Y-99700186D01*
X88156257Y-99574000D01*
X88147222Y-99562991D01*
X88111940Y-99496983D01*
X88063557Y-99406467D01*
X88046384Y-99349853D01*
X88012037Y-99236627D01*
X87994641Y-99060000D01*
X88012037Y-98883373D01*
X88063557Y-98713534D01*
X88063557Y-98713533D01*
X88147221Y-98557011D01*
X88147222Y-98557009D01*
X88180100Y-98516947D01*
X88259814Y-98419814D01*
X88361271Y-98336552D01*
X88397009Y-98307222D01*
X88414913Y-98297652D01*
X88553533Y-98223557D01*
X88610147Y-98206384D01*
X88723373Y-98172037D01*
X88789557Y-98165519D01*
X88855740Y-98159000D01*
X88944260Y-98159000D01*
X89010443Y-98165519D01*
X89010443Y-98165519D01*
G37*
G36*
X28214188Y-96886123D02*
X28385257Y-96956983D01*
X28539216Y-97059855D01*
X28670145Y-97190784D01*
X28773017Y-97344743D01*
X28843877Y-97515812D01*
X28880000Y-97697417D01*
X28880000Y-97882583D01*
X28843877Y-98064188D01*
X28773017Y-98235257D01*
X28670145Y-98389216D01*
X28539216Y-98520145D01*
X28385257Y-98623017D01*
X28214188Y-98693877D01*
X28032583Y-98730000D01*
X27847417Y-98730000D01*
X27665812Y-98693877D01*
X27494743Y-98623017D01*
X27340784Y-98520145D01*
X27209855Y-98389216D01*
X27106983Y-98235257D01*
X27036123Y-98064188D01*
X27000000Y-97882583D01*
X27000000Y-97697417D01*
X27036123Y-97515812D01*
X27106983Y-97344743D01*
X27209855Y-97190784D01*
X27340784Y-97059855D01*
X27494743Y-96956983D01*
X27665812Y-96886123D01*
X27847417Y-96850000D01*
X28032583Y-96850000D01*
X28214188Y-96886123D01*
X28214188Y-96886123D01*
G37*
G36*
X43454188Y-96886123D02*
X43625257Y-96956983D01*
X43779216Y-97059855D01*
X43910145Y-97190784D01*
X44013017Y-97344743D01*
X44083877Y-97515812D01*
X44120000Y-97697417D01*
X44120000Y-97882583D01*
X44083877Y-98064188D01*
X44013017Y-98235257D01*
X43910145Y-98389216D01*
X43779216Y-98520145D01*
X43625257Y-98623017D01*
X43454188Y-98693877D01*
X43272583Y-98730000D01*
X43087417Y-98730000D01*
X42905812Y-98693877D01*
X42734743Y-98623017D01*
X42580784Y-98520145D01*
X42449855Y-98389216D01*
X42346983Y-98235257D01*
X42276123Y-98064188D01*
X42240000Y-97882583D01*
X42240000Y-97697417D01*
X42276123Y-97515812D01*
X42346983Y-97344743D01*
X42449855Y-97190784D01*
X42580784Y-97059855D01*
X42734743Y-96956983D01*
X42905812Y-96886123D01*
X43087417Y-96850000D01*
X43272583Y-96850000D01*
X43454188Y-96886123D01*
X43454188Y-96886123D01*
G37*
G36*
X58640514Y-97063052D02*
X58640516Y-97063053D01*
X58640517Y-97063053D01*
X58778100Y-97120041D01*
X58778101Y-97120042D01*
X58901925Y-97202778D01*
X59007222Y-97308075D01*
X59007224Y-97308078D01*
X59089959Y-97431900D01*
X59146947Y-97569483D01*
X59176000Y-97715540D01*
X59176000Y-97864460D01*
X59146947Y-98010517D01*
X59089959Y-98148100D01*
X59089958Y-98148101D01*
X59007222Y-98271925D01*
X58901925Y-98377222D01*
X58901922Y-98377224D01*
X58778100Y-98459959D01*
X58640517Y-98516947D01*
X58640516Y-98516947D01*
X58640514Y-98516948D01*
X58494461Y-98546000D01*
X58345539Y-98546000D01*
X58199486Y-98516948D01*
X58199484Y-98516947D01*
X58199483Y-98516947D01*
X58061900Y-98459959D01*
X57938078Y-98377224D01*
X57938075Y-98377222D01*
X57832778Y-98271925D01*
X57750042Y-98148101D01*
X57750041Y-98148100D01*
X57693053Y-98010517D01*
X57664000Y-97864460D01*
X57664000Y-97715540D01*
X57693053Y-97569483D01*
X57750041Y-97431900D01*
X57832776Y-97308078D01*
X57832778Y-97308075D01*
X57938075Y-97202778D01*
X58061899Y-97120042D01*
X58061900Y-97120041D01*
X58199483Y-97063053D01*
X58199484Y-97063053D01*
X58199486Y-97063052D01*
X58345539Y-97034000D01*
X58494461Y-97034000D01*
X58640514Y-97063052D01*
X58640514Y-97063052D01*
G37*
G36*
X73880514Y-97063052D02*
X73880516Y-97063053D01*
X73880517Y-97063053D01*
X74018100Y-97120041D01*
X74018101Y-97120042D01*
X74141925Y-97202778D01*
X74247222Y-97308075D01*
X74247224Y-97308078D01*
X74329959Y-97431900D01*
X74386947Y-97569483D01*
X74416000Y-97715540D01*
X74416000Y-97864460D01*
X74386947Y-98010517D01*
X74329959Y-98148100D01*
X74329958Y-98148101D01*
X74247222Y-98271925D01*
X74141925Y-98377222D01*
X74141922Y-98377224D01*
X74018100Y-98459959D01*
X73880517Y-98516947D01*
X73880516Y-98516947D01*
X73880514Y-98516948D01*
X73734461Y-98546000D01*
X73585539Y-98546000D01*
X73439486Y-98516948D01*
X73439484Y-98516947D01*
X73439483Y-98516947D01*
X73301900Y-98459959D01*
X73178078Y-98377224D01*
X73178075Y-98377222D01*
X73072778Y-98271925D01*
X72990042Y-98148101D01*
X72990041Y-98148100D01*
X72933053Y-98010517D01*
X72904000Y-97864460D01*
X72904000Y-97715540D01*
X72933053Y-97569483D01*
X72990041Y-97431900D01*
X73072776Y-97308078D01*
X73072778Y-97308075D01*
X73178075Y-97202778D01*
X73301899Y-97120042D01*
X73301900Y-97120041D01*
X73439483Y-97063053D01*
X73439484Y-97063053D01*
X73439486Y-97063052D01*
X73585539Y-97034000D01*
X73734461Y-97034000D01*
X73880514Y-97063052D01*
X73880514Y-97063052D01*
G37*
G36*
X89801000Y-97421000D02*
X87999000Y-97421000D01*
X87999000Y-95619000D01*
X89801000Y-95619000D01*
X89801000Y-97421000D01*
X89801000Y-97421000D01*
G37*
G36*
X80911000Y-97421000D02*
X79109000Y-97421000D01*
X79109000Y-95619000D01*
X80911000Y-95619000D01*
X80911000Y-97421000D01*
X80911000Y-97421000D01*
G37*
G36*
X28214188Y-94346123D02*
X28385257Y-94416983D01*
X28539216Y-94519855D01*
X28670145Y-94650784D01*
X28773017Y-94804743D01*
X28843877Y-94975812D01*
X28880000Y-95157417D01*
X28880000Y-95342583D01*
X28843877Y-95524188D01*
X28773017Y-95695257D01*
X28670145Y-95849216D01*
X28539216Y-95980145D01*
X28385257Y-96083017D01*
X28214188Y-96153877D01*
X28032583Y-96190000D01*
X27847417Y-96190000D01*
X27665812Y-96153877D01*
X27494743Y-96083017D01*
X27340784Y-95980145D01*
X27209855Y-95849216D01*
X27106983Y-95695257D01*
X27036123Y-95524188D01*
X27000000Y-95342583D01*
X27000000Y-95157417D01*
X27036123Y-94975812D01*
X27106983Y-94804743D01*
X27209855Y-94650784D01*
X27340784Y-94519855D01*
X27494743Y-94416983D01*
X27665812Y-94346123D01*
X27847417Y-94310000D01*
X28032583Y-94310000D01*
X28214188Y-94346123D01*
X28214188Y-94346123D01*
G37*
G36*
X43454188Y-94346123D02*
X43625257Y-94416983D01*
X43779216Y-94519855D01*
X43910145Y-94650784D01*
X44013017Y-94804743D01*
X44083877Y-94975812D01*
X44120000Y-95157417D01*
X44120000Y-95342583D01*
X44083877Y-95524188D01*
X44013017Y-95695257D01*
X43910145Y-95849216D01*
X43779216Y-95980145D01*
X43625257Y-96083017D01*
X43454188Y-96153877D01*
X43272583Y-96190000D01*
X43087417Y-96190000D01*
X42905812Y-96153877D01*
X42734743Y-96083017D01*
X42580784Y-95980145D01*
X42449855Y-95849216D01*
X42346983Y-95695257D01*
X42276123Y-95524188D01*
X42240000Y-95342583D01*
X42240000Y-95157417D01*
X42276123Y-94975812D01*
X42346983Y-94804743D01*
X42449855Y-94650784D01*
X42580784Y-94519855D01*
X42734743Y-94416983D01*
X42905812Y-94346123D01*
X43087417Y-94310000D01*
X43272583Y-94310000D01*
X43454188Y-94346123D01*
X43454188Y-94346123D01*
G37*
G36*
X73880514Y-94523052D02*
X73880516Y-94523053D01*
X73880517Y-94523053D01*
X74018100Y-94580041D01*
X74018101Y-94580042D01*
X74141925Y-94662778D01*
X74247222Y-94768075D01*
X74247224Y-94768078D01*
X74329959Y-94891900D01*
X74386947Y-95029483D01*
X74416000Y-95175540D01*
X74416000Y-95324460D01*
X74386947Y-95470517D01*
X74329959Y-95608100D01*
X74329958Y-95608101D01*
X74247222Y-95731925D01*
X74141925Y-95837222D01*
X74141922Y-95837224D01*
X74018100Y-95919959D01*
X73880517Y-95976947D01*
X73880516Y-95976947D01*
X73880514Y-95976948D01*
X73734461Y-96006000D01*
X73585539Y-96006000D01*
X73439486Y-95976948D01*
X73439484Y-95976947D01*
X73439483Y-95976947D01*
X73301900Y-95919959D01*
X73178078Y-95837224D01*
X73178075Y-95837222D01*
X73072778Y-95731925D01*
X72990042Y-95608101D01*
X72990041Y-95608100D01*
X72933053Y-95470517D01*
X72904000Y-95324460D01*
X72904000Y-95175540D01*
X72933053Y-95029483D01*
X72990041Y-94891900D01*
X73072776Y-94768078D01*
X73072778Y-94768075D01*
X73178075Y-94662778D01*
X73301899Y-94580042D01*
X73301900Y-94580041D01*
X73439483Y-94523053D01*
X73439484Y-94523053D01*
X73439486Y-94523052D01*
X73585539Y-94494000D01*
X73734461Y-94494000D01*
X73880514Y-94523052D01*
X73880514Y-94523052D01*
G37*
G36*
X58640514Y-94523052D02*
X58640516Y-94523053D01*
X58640517Y-94523053D01*
X58778100Y-94580041D01*
X58778101Y-94580042D01*
X58901925Y-94662778D01*
X59007222Y-94768075D01*
X59007224Y-94768078D01*
X59089959Y-94891900D01*
X59146947Y-95029483D01*
X59176000Y-95175540D01*
X59176000Y-95324460D01*
X59146947Y-95470517D01*
X59089959Y-95608100D01*
X59089958Y-95608101D01*
X59007222Y-95731925D01*
X58901925Y-95837222D01*
X58901922Y-95837224D01*
X58778100Y-95919959D01*
X58640517Y-95976947D01*
X58640516Y-95976947D01*
X58640514Y-95976948D01*
X58494461Y-96006000D01*
X58345539Y-96006000D01*
X58199486Y-95976948D01*
X58199484Y-95976947D01*
X58199483Y-95976947D01*
X58061900Y-95919959D01*
X57938078Y-95837224D01*
X57938075Y-95837222D01*
X57832778Y-95731925D01*
X57750042Y-95608101D01*
X57750041Y-95608100D01*
X57693053Y-95470517D01*
X57664000Y-95324460D01*
X57664000Y-95175540D01*
X57693053Y-95029483D01*
X57750041Y-94891900D01*
X57832776Y-94768078D01*
X57832778Y-94768075D01*
X57938075Y-94662778D01*
X58061899Y-94580042D01*
X58061900Y-94580041D01*
X58199483Y-94523053D01*
X58199484Y-94523053D01*
X58199486Y-94523052D01*
X58345539Y-94494000D01*
X58494461Y-94494000D01*
X58640514Y-94523052D01*
X58640514Y-94523052D01*
G37*
G36*
X80120443Y-93085519D02*
X80186627Y-93092037D01*
X80299853Y-93126384D01*
X80356467Y-93143557D01*
X80495087Y-93217652D01*
X80512991Y-93227222D01*
X80548729Y-93256552D01*
X80650186Y-93339814D01*
X80729900Y-93436947D01*
X80762778Y-93477009D01*
X80762779Y-93477011D01*
X80846443Y-93633533D01*
X80846443Y-93633534D01*
X80897963Y-93803373D01*
X80915359Y-93980000D01*
X80897963Y-94156627D01*
X80863616Y-94269853D01*
X80846443Y-94326467D01*
X80798060Y-94416983D01*
X80762778Y-94482991D01*
X80753743Y-94494000D01*
X80650186Y-94620186D01*
X80548729Y-94703448D01*
X80512991Y-94732778D01*
X80512989Y-94732779D01*
X80356467Y-94816443D01*
X80299853Y-94833616D01*
X80186627Y-94867963D01*
X80120443Y-94874481D01*
X80054260Y-94881000D01*
X79965740Y-94881000D01*
X79899557Y-94874481D01*
X79833373Y-94867963D01*
X79720147Y-94833616D01*
X79663533Y-94816443D01*
X79507011Y-94732779D01*
X79507009Y-94732778D01*
X79471271Y-94703448D01*
X79369814Y-94620186D01*
X79266257Y-94494000D01*
X79257222Y-94482991D01*
X79221940Y-94416983D01*
X79173557Y-94326467D01*
X79156384Y-94269853D01*
X79122037Y-94156627D01*
X79104641Y-93980000D01*
X79122037Y-93803373D01*
X79173557Y-93633534D01*
X79173557Y-93633533D01*
X79257221Y-93477011D01*
X79257222Y-93477009D01*
X79290100Y-93436947D01*
X79369814Y-93339814D01*
X79471271Y-93256552D01*
X79507009Y-93227222D01*
X79524913Y-93217652D01*
X79663533Y-93143557D01*
X79720147Y-93126384D01*
X79833373Y-93092037D01*
X79899557Y-93085519D01*
X79965740Y-93079000D01*
X80054260Y-93079000D01*
X80120443Y-93085519D01*
X80120443Y-93085519D01*
G37*
G36*
X89010443Y-93085519D02*
X89076627Y-93092037D01*
X89189853Y-93126384D01*
X89246467Y-93143557D01*
X89385087Y-93217652D01*
X89402991Y-93227222D01*
X89438729Y-93256552D01*
X89540186Y-93339814D01*
X89619900Y-93436947D01*
X89652778Y-93477009D01*
X89652779Y-93477011D01*
X89736443Y-93633533D01*
X89736443Y-93633534D01*
X89787963Y-93803373D01*
X89805359Y-93980000D01*
X89787963Y-94156627D01*
X89753616Y-94269853D01*
X89736443Y-94326467D01*
X89688060Y-94416983D01*
X89652778Y-94482991D01*
X89643743Y-94494000D01*
X89540186Y-94620186D01*
X89438729Y-94703448D01*
X89402991Y-94732778D01*
X89402989Y-94732779D01*
X89246467Y-94816443D01*
X89189853Y-94833616D01*
X89076627Y-94867963D01*
X89010443Y-94874481D01*
X88944260Y-94881000D01*
X88855740Y-94881000D01*
X88789557Y-94874481D01*
X88723373Y-94867963D01*
X88610147Y-94833616D01*
X88553533Y-94816443D01*
X88397011Y-94732779D01*
X88397009Y-94732778D01*
X88361271Y-94703448D01*
X88259814Y-94620186D01*
X88156257Y-94494000D01*
X88147222Y-94482991D01*
X88111940Y-94416983D01*
X88063557Y-94326467D01*
X88046384Y-94269853D01*
X88012037Y-94156627D01*
X87994641Y-93980000D01*
X88012037Y-93803373D01*
X88063557Y-93633534D01*
X88063557Y-93633533D01*
X88147221Y-93477011D01*
X88147222Y-93477009D01*
X88180100Y-93436947D01*
X88259814Y-93339814D01*
X88361271Y-93256552D01*
X88397009Y-93227222D01*
X88414913Y-93217652D01*
X88553533Y-93143557D01*
X88610147Y-93126384D01*
X88723373Y-93092037D01*
X88789557Y-93085519D01*
X88855740Y-93079000D01*
X88944260Y-93079000D01*
X89010443Y-93085519D01*
X89010443Y-93085519D01*
G37*
G36*
X43454188Y-91806123D02*
X43625257Y-91876983D01*
X43779216Y-91979855D01*
X43910145Y-92110784D01*
X44013017Y-92264743D01*
X44083877Y-92435812D01*
X44120000Y-92617417D01*
X44120000Y-92802583D01*
X44083877Y-92984188D01*
X44013017Y-93155257D01*
X43910145Y-93309216D01*
X43779216Y-93440145D01*
X43625257Y-93543017D01*
X43454188Y-93613877D01*
X43272583Y-93650000D01*
X43087417Y-93650000D01*
X42905812Y-93613877D01*
X42734743Y-93543017D01*
X42580784Y-93440145D01*
X42449855Y-93309216D01*
X42346983Y-93155257D01*
X42276123Y-92984188D01*
X42240000Y-92802583D01*
X42240000Y-92617417D01*
X42276123Y-92435812D01*
X42346983Y-92264743D01*
X42449855Y-92110784D01*
X42580784Y-91979855D01*
X42734743Y-91876983D01*
X42905812Y-91806123D01*
X43087417Y-91770000D01*
X43272583Y-91770000D01*
X43454188Y-91806123D01*
X43454188Y-91806123D01*
G37*
G36*
X28214188Y-91806123D02*
X28385257Y-91876983D01*
X28539216Y-91979855D01*
X28670145Y-92110784D01*
X28773017Y-92264743D01*
X28843877Y-92435812D01*
X28880000Y-92617417D01*
X28880000Y-92802583D01*
X28843877Y-92984188D01*
X28773017Y-93155257D01*
X28670145Y-93309216D01*
X28539216Y-93440145D01*
X28385257Y-93543017D01*
X28214188Y-93613877D01*
X28032583Y-93650000D01*
X27847417Y-93650000D01*
X27665812Y-93613877D01*
X27494743Y-93543017D01*
X27340784Y-93440145D01*
X27209855Y-93309216D01*
X27106983Y-93155257D01*
X27036123Y-92984188D01*
X27000000Y-92802583D01*
X27000000Y-92617417D01*
X27036123Y-92435812D01*
X27106983Y-92264743D01*
X27209855Y-92110784D01*
X27340784Y-91979855D01*
X27494743Y-91876983D01*
X27665812Y-91806123D01*
X27847417Y-91770000D01*
X28032583Y-91770000D01*
X28214188Y-91806123D01*
X28214188Y-91806123D01*
G37*
G36*
X52971000Y-93611000D02*
X51169000Y-93611000D01*
X51169000Y-91809000D01*
X52971000Y-91809000D01*
X52971000Y-93611000D01*
X52971000Y-93611000D01*
G37*
G36*
X73880514Y-91983052D02*
X73880516Y-91983053D01*
X73880517Y-91983053D01*
X74018100Y-92040041D01*
X74018101Y-92040042D01*
X74141925Y-92122778D01*
X74247222Y-92228075D01*
X74247224Y-92228078D01*
X74329959Y-92351900D01*
X74386947Y-92489483D01*
X74416000Y-92635540D01*
X74416000Y-92784460D01*
X74386947Y-92930517D01*
X74329959Y-93068100D01*
X74329958Y-93068101D01*
X74247222Y-93191925D01*
X74141925Y-93297222D01*
X74141922Y-93297224D01*
X74018100Y-93379959D01*
X73880517Y-93436947D01*
X73880516Y-93436947D01*
X73880514Y-93436948D01*
X73734461Y-93466000D01*
X73585539Y-93466000D01*
X73439486Y-93436948D01*
X73439484Y-93436947D01*
X73439483Y-93436947D01*
X73301900Y-93379959D01*
X73178078Y-93297224D01*
X73178075Y-93297222D01*
X73072778Y-93191925D01*
X72990042Y-93068101D01*
X72990041Y-93068100D01*
X72933053Y-92930517D01*
X72904000Y-92784460D01*
X72904000Y-92635540D01*
X72933053Y-92489483D01*
X72990041Y-92351900D01*
X73072776Y-92228078D01*
X73072778Y-92228075D01*
X73178075Y-92122778D01*
X73301899Y-92040042D01*
X73301900Y-92040041D01*
X73439483Y-91983053D01*
X73439484Y-91983053D01*
X73439486Y-91983052D01*
X73585539Y-91954000D01*
X73734461Y-91954000D01*
X73880514Y-91983052D01*
X73880514Y-91983052D01*
G37*
G36*
X58640514Y-91983052D02*
X58640516Y-91983053D01*
X58640517Y-91983053D01*
X58778100Y-92040041D01*
X58778101Y-92040042D01*
X58901925Y-92122778D01*
X59007222Y-92228075D01*
X59007224Y-92228078D01*
X59089959Y-92351900D01*
X59146947Y-92489483D01*
X59176000Y-92635540D01*
X59176000Y-92784460D01*
X59146947Y-92930517D01*
X59089959Y-93068100D01*
X59089958Y-93068101D01*
X59007222Y-93191925D01*
X58901925Y-93297222D01*
X58901922Y-93297224D01*
X58778100Y-93379959D01*
X58640517Y-93436947D01*
X58640516Y-93436947D01*
X58640514Y-93436948D01*
X58494461Y-93466000D01*
X58345539Y-93466000D01*
X58199486Y-93436948D01*
X58199484Y-93436947D01*
X58199483Y-93436947D01*
X58061900Y-93379959D01*
X57938078Y-93297224D01*
X57938075Y-93297222D01*
X57832778Y-93191925D01*
X57750042Y-93068101D01*
X57750041Y-93068100D01*
X57693053Y-92930517D01*
X57664000Y-92784460D01*
X57664000Y-92635540D01*
X57693053Y-92489483D01*
X57750041Y-92351900D01*
X57832776Y-92228078D01*
X57832778Y-92228075D01*
X57938075Y-92122778D01*
X58061899Y-92040042D01*
X58061900Y-92040041D01*
X58199483Y-91983053D01*
X58199484Y-91983053D01*
X58199486Y-91983052D01*
X58345539Y-91954000D01*
X58494461Y-91954000D01*
X58640514Y-91983052D01*
X58640514Y-91983052D01*
G37*
G36*
X89010443Y-90545519D02*
X89076627Y-90552037D01*
X89189853Y-90586384D01*
X89246467Y-90603557D01*
X89376363Y-90672989D01*
X89402991Y-90687222D01*
X89438729Y-90716552D01*
X89540186Y-90799814D01*
X89619900Y-90896947D01*
X89652778Y-90937009D01*
X89652779Y-90937011D01*
X89736443Y-91093533D01*
X89736443Y-91093534D01*
X89787963Y-91263373D01*
X89805359Y-91440000D01*
X89787963Y-91616627D01*
X89753616Y-91729853D01*
X89736443Y-91786467D01*
X89688060Y-91876983D01*
X89652778Y-91942991D01*
X89643743Y-91954000D01*
X89540186Y-92080186D01*
X89438729Y-92163448D01*
X89402991Y-92192778D01*
X89402989Y-92192779D01*
X89246467Y-92276443D01*
X89189853Y-92293616D01*
X89076627Y-92327963D01*
X89010443Y-92334481D01*
X88944260Y-92341000D01*
X88855740Y-92341000D01*
X88789557Y-92334481D01*
X88723373Y-92327963D01*
X88610147Y-92293616D01*
X88553533Y-92276443D01*
X88397011Y-92192779D01*
X88397009Y-92192778D01*
X88361271Y-92163448D01*
X88259814Y-92080186D01*
X88156257Y-91954000D01*
X88147222Y-91942991D01*
X88111940Y-91876983D01*
X88063557Y-91786467D01*
X88046384Y-91729853D01*
X88012037Y-91616627D01*
X87994641Y-91440000D01*
X88012037Y-91263373D01*
X88063557Y-91093534D01*
X88063557Y-91093533D01*
X88147221Y-90937011D01*
X88147222Y-90937009D01*
X88180100Y-90896947D01*
X88259814Y-90799814D01*
X88361271Y-90716552D01*
X88397009Y-90687222D01*
X88423637Y-90672989D01*
X88553533Y-90603557D01*
X88610147Y-90586384D01*
X88723373Y-90552037D01*
X88789557Y-90545519D01*
X88855740Y-90539000D01*
X88944260Y-90539000D01*
X89010443Y-90545519D01*
X89010443Y-90545519D01*
G37*
G36*
X43454188Y-89266123D02*
X43625257Y-89336983D01*
X43779216Y-89439855D01*
X43910145Y-89570784D01*
X44013017Y-89724743D01*
X44083877Y-89895812D01*
X44120000Y-90077417D01*
X44120000Y-90262583D01*
X44083877Y-90444188D01*
X44013017Y-90615257D01*
X43910145Y-90769216D01*
X43779216Y-90900145D01*
X43625257Y-91003017D01*
X43454188Y-91073877D01*
X43272583Y-91110000D01*
X43087417Y-91110000D01*
X42905812Y-91073877D01*
X42734743Y-91003017D01*
X42580784Y-90900145D01*
X42449855Y-90769216D01*
X42346983Y-90615257D01*
X42276123Y-90444188D01*
X42240000Y-90262583D01*
X42240000Y-90077417D01*
X42276123Y-89895812D01*
X42346983Y-89724743D01*
X42449855Y-89570784D01*
X42580784Y-89439855D01*
X42734743Y-89336983D01*
X42905812Y-89266123D01*
X43087417Y-89230000D01*
X43272583Y-89230000D01*
X43454188Y-89266123D01*
X43454188Y-89266123D01*
G37*
G36*
X28214188Y-89266123D02*
X28385257Y-89336983D01*
X28539216Y-89439855D01*
X28670145Y-89570784D01*
X28773017Y-89724743D01*
X28843877Y-89895812D01*
X28880000Y-90077417D01*
X28880000Y-90262583D01*
X28843877Y-90444188D01*
X28773017Y-90615257D01*
X28670145Y-90769216D01*
X28539216Y-90900145D01*
X28385257Y-91003017D01*
X28214188Y-91073877D01*
X28032583Y-91110000D01*
X27847417Y-91110000D01*
X27665812Y-91073877D01*
X27494743Y-91003017D01*
X27340784Y-90900145D01*
X27209855Y-90769216D01*
X27106983Y-90615257D01*
X27036123Y-90444188D01*
X27000000Y-90262583D01*
X27000000Y-90077417D01*
X27036123Y-89895812D01*
X27106983Y-89724743D01*
X27209855Y-89570784D01*
X27340784Y-89439855D01*
X27494743Y-89336983D01*
X27665812Y-89266123D01*
X27847417Y-89230000D01*
X28032583Y-89230000D01*
X28214188Y-89266123D01*
X28214188Y-89266123D01*
G37*
G36*
X52180443Y-89275519D02*
X52246627Y-89282037D01*
X52359853Y-89316384D01*
X52416467Y-89333557D01*
X52422876Y-89336983D01*
X52572991Y-89417222D01*
X52600569Y-89439855D01*
X52710186Y-89529814D01*
X52793448Y-89631271D01*
X52822778Y-89667009D01*
X52822779Y-89667011D01*
X52906443Y-89823533D01*
X52906443Y-89823534D01*
X52957963Y-89993373D01*
X52975359Y-90170000D01*
X52957963Y-90346627D01*
X52944650Y-90390514D01*
X52906443Y-90516467D01*
X52887430Y-90552037D01*
X52822778Y-90672991D01*
X52793448Y-90708729D01*
X52710186Y-90810186D01*
X52608729Y-90893448D01*
X52572991Y-90922778D01*
X52572989Y-90922779D01*
X52416467Y-91006443D01*
X52359853Y-91023616D01*
X52246627Y-91057963D01*
X52180442Y-91064482D01*
X52114260Y-91071000D01*
X52025740Y-91071000D01*
X51959558Y-91064482D01*
X51893373Y-91057963D01*
X51780147Y-91023616D01*
X51723533Y-91006443D01*
X51567011Y-90922779D01*
X51567009Y-90922778D01*
X51531271Y-90893448D01*
X51429814Y-90810186D01*
X51346552Y-90708729D01*
X51317222Y-90672991D01*
X51252570Y-90552037D01*
X51233557Y-90516467D01*
X51195350Y-90390514D01*
X51182037Y-90346627D01*
X51164641Y-90170000D01*
X51182037Y-89993373D01*
X51233557Y-89823534D01*
X51233557Y-89823533D01*
X51317221Y-89667011D01*
X51317222Y-89667009D01*
X51346552Y-89631271D01*
X51429814Y-89529814D01*
X51539431Y-89439855D01*
X51567009Y-89417222D01*
X51717124Y-89336983D01*
X51723533Y-89333557D01*
X51780147Y-89316384D01*
X51893373Y-89282037D01*
X51959557Y-89275519D01*
X52025740Y-89269000D01*
X52114260Y-89269000D01*
X52180443Y-89275519D01*
X52180443Y-89275519D01*
G37*
G36*
X58640514Y-89443052D02*
X58640516Y-89443053D01*
X58640517Y-89443053D01*
X58778100Y-89500041D01*
X58822660Y-89529815D01*
X58901925Y-89582778D01*
X59007222Y-89688075D01*
X59007224Y-89688078D01*
X59089959Y-89811900D01*
X59124716Y-89895812D01*
X59146948Y-89949486D01*
X59176000Y-90095539D01*
X59176000Y-90244461D01*
X59155678Y-90346627D01*
X59146947Y-90390517D01*
X59089959Y-90528100D01*
X59089958Y-90528101D01*
X59007222Y-90651925D01*
X58901925Y-90757222D01*
X58901922Y-90757224D01*
X58778100Y-90839959D01*
X58640517Y-90896947D01*
X58640516Y-90896947D01*
X58640514Y-90896948D01*
X58494461Y-90926000D01*
X58345539Y-90926000D01*
X58199486Y-90896948D01*
X58199484Y-90896947D01*
X58199483Y-90896947D01*
X58061900Y-90839959D01*
X57938078Y-90757224D01*
X57938075Y-90757222D01*
X57832778Y-90651925D01*
X57750042Y-90528101D01*
X57750041Y-90528100D01*
X57693053Y-90390517D01*
X57684323Y-90346627D01*
X57664000Y-90244461D01*
X57664000Y-90095539D01*
X57693052Y-89949486D01*
X57715284Y-89895812D01*
X57750041Y-89811900D01*
X57832776Y-89688078D01*
X57832778Y-89688075D01*
X57938075Y-89582778D01*
X58017340Y-89529815D01*
X58061900Y-89500041D01*
X58199483Y-89443053D01*
X58199484Y-89443053D01*
X58199486Y-89443052D01*
X58345539Y-89414000D01*
X58494461Y-89414000D01*
X58640514Y-89443052D01*
X58640514Y-89443052D01*
G37*
G36*
X73880514Y-89443052D02*
X73880516Y-89443053D01*
X73880517Y-89443053D01*
X74018100Y-89500041D01*
X74062660Y-89529815D01*
X74141925Y-89582778D01*
X74247222Y-89688075D01*
X74247224Y-89688078D01*
X74329959Y-89811900D01*
X74364716Y-89895812D01*
X74386948Y-89949486D01*
X74416000Y-90095539D01*
X74416000Y-90244461D01*
X74395678Y-90346627D01*
X74386947Y-90390517D01*
X74329959Y-90528100D01*
X74329958Y-90528101D01*
X74247222Y-90651925D01*
X74141925Y-90757222D01*
X74141922Y-90757224D01*
X74018100Y-90839959D01*
X73880517Y-90896947D01*
X73880516Y-90896947D01*
X73880514Y-90896948D01*
X73734461Y-90926000D01*
X73585539Y-90926000D01*
X73439486Y-90896948D01*
X73439484Y-90896947D01*
X73439483Y-90896947D01*
X73301900Y-90839959D01*
X73178078Y-90757224D01*
X73178075Y-90757222D01*
X73072778Y-90651925D01*
X72990042Y-90528101D01*
X72990041Y-90528100D01*
X72933053Y-90390517D01*
X72924323Y-90346627D01*
X72904000Y-90244461D01*
X72904000Y-90095539D01*
X72933052Y-89949486D01*
X72955284Y-89895812D01*
X72990041Y-89811900D01*
X73072776Y-89688078D01*
X73072778Y-89688075D01*
X73178075Y-89582778D01*
X73257340Y-89529815D01*
X73301900Y-89500041D01*
X73439483Y-89443053D01*
X73439484Y-89443053D01*
X73439486Y-89443052D01*
X73585539Y-89414000D01*
X73734461Y-89414000D01*
X73880514Y-89443052D01*
X73880514Y-89443052D01*
G37*
G36*
X89801000Y-89801000D02*
X87999000Y-89801000D01*
X87999000Y-87999000D01*
X89801000Y-87999000D01*
X89801000Y-89801000D01*
X89801000Y-89801000D01*
G37*
G36*
X43454188Y-86726123D02*
X43625257Y-86796983D01*
X43779216Y-86899855D01*
X43910145Y-87030784D01*
X44013017Y-87184743D01*
X44083877Y-87355812D01*
X44120000Y-87537417D01*
X44120000Y-87722583D01*
X44083877Y-87904188D01*
X44013017Y-88075257D01*
X43910145Y-88229216D01*
X43779216Y-88360145D01*
X43625257Y-88463017D01*
X43454188Y-88533877D01*
X43272583Y-88570000D01*
X43087417Y-88570000D01*
X42905812Y-88533877D01*
X42734743Y-88463017D01*
X42580784Y-88360145D01*
X42449855Y-88229216D01*
X42346983Y-88075257D01*
X42276123Y-87904188D01*
X42240000Y-87722583D01*
X42240000Y-87537417D01*
X42276123Y-87355812D01*
X42346983Y-87184743D01*
X42449855Y-87030784D01*
X42580784Y-86899855D01*
X42734743Y-86796983D01*
X42905812Y-86726123D01*
X43087417Y-86690000D01*
X43272583Y-86690000D01*
X43454188Y-86726123D01*
X43454188Y-86726123D01*
G37*
G36*
X28214188Y-86726123D02*
X28385257Y-86796983D01*
X28539216Y-86899855D01*
X28670145Y-87030784D01*
X28773017Y-87184743D01*
X28843877Y-87355812D01*
X28880000Y-87537417D01*
X28880000Y-87722583D01*
X28843877Y-87904188D01*
X28773017Y-88075257D01*
X28670145Y-88229216D01*
X28539216Y-88360145D01*
X28385257Y-88463017D01*
X28214188Y-88533877D01*
X28032583Y-88570000D01*
X27847417Y-88570000D01*
X27665812Y-88533877D01*
X27494743Y-88463017D01*
X27340784Y-88360145D01*
X27209855Y-88229216D01*
X27106983Y-88075257D01*
X27036123Y-87904188D01*
X27000000Y-87722583D01*
X27000000Y-87537417D01*
X27036123Y-87355812D01*
X27106983Y-87184743D01*
X27209855Y-87030784D01*
X27340784Y-86899855D01*
X27494743Y-86796983D01*
X27665812Y-86726123D01*
X27847417Y-86690000D01*
X28032583Y-86690000D01*
X28214188Y-86726123D01*
X28214188Y-86726123D01*
G37*
G36*
X73880514Y-86903052D02*
X73880516Y-86903053D01*
X73880517Y-86903053D01*
X74018100Y-86960041D01*
X74018101Y-86960042D01*
X74141925Y-87042778D01*
X74247222Y-87148075D01*
X74247224Y-87148078D01*
X74329959Y-87271900D01*
X74386947Y-87409483D01*
X74416000Y-87555540D01*
X74416000Y-87704460D01*
X74386947Y-87850517D01*
X74329959Y-87988100D01*
X74329958Y-87988101D01*
X74247222Y-88111925D01*
X74141925Y-88217222D01*
X74141922Y-88217224D01*
X74018100Y-88299959D01*
X73880517Y-88356947D01*
X73880516Y-88356947D01*
X73880514Y-88356948D01*
X73734461Y-88386000D01*
X73585539Y-88386000D01*
X73439486Y-88356948D01*
X73439484Y-88356947D01*
X73439483Y-88356947D01*
X73301900Y-88299959D01*
X73178078Y-88217224D01*
X73178075Y-88217222D01*
X73072778Y-88111925D01*
X72990042Y-87988101D01*
X72990041Y-87988100D01*
X72933053Y-87850517D01*
X72904000Y-87704460D01*
X72904000Y-87555540D01*
X72933053Y-87409483D01*
X72990041Y-87271900D01*
X73072776Y-87148078D01*
X73072778Y-87148075D01*
X73178075Y-87042778D01*
X73301899Y-86960042D01*
X73301900Y-86960041D01*
X73439483Y-86903053D01*
X73439484Y-86903053D01*
X73439486Y-86903052D01*
X73585539Y-86874000D01*
X73734461Y-86874000D01*
X73880514Y-86903052D01*
X73880514Y-86903052D01*
G37*
G36*
X58640514Y-86903052D02*
X58640516Y-86903053D01*
X58640517Y-86903053D01*
X58778100Y-86960041D01*
X58778101Y-86960042D01*
X58901925Y-87042778D01*
X59007222Y-87148075D01*
X59007224Y-87148078D01*
X59089959Y-87271900D01*
X59146947Y-87409483D01*
X59176000Y-87555540D01*
X59176000Y-87704460D01*
X59146947Y-87850517D01*
X59089959Y-87988100D01*
X59089958Y-87988101D01*
X59007222Y-88111925D01*
X58901925Y-88217222D01*
X58901922Y-88217224D01*
X58778100Y-88299959D01*
X58640517Y-88356947D01*
X58640516Y-88356947D01*
X58640514Y-88356948D01*
X58494461Y-88386000D01*
X58345539Y-88386000D01*
X58199486Y-88356948D01*
X58199484Y-88356947D01*
X58199483Y-88356947D01*
X58061900Y-88299959D01*
X57938078Y-88217224D01*
X57938075Y-88217222D01*
X57832778Y-88111925D01*
X57750042Y-87988101D01*
X57750041Y-87988100D01*
X57693053Y-87850517D01*
X57664000Y-87704460D01*
X57664000Y-87555540D01*
X57693053Y-87409483D01*
X57750041Y-87271900D01*
X57832776Y-87148078D01*
X57832778Y-87148075D01*
X57938075Y-87042778D01*
X58061899Y-86960042D01*
X58061900Y-86960041D01*
X58199483Y-86903053D01*
X58199484Y-86903053D01*
X58199486Y-86903052D01*
X58345539Y-86874000D01*
X58494461Y-86874000D01*
X58640514Y-86903052D01*
X58640514Y-86903052D01*
G37*
G36*
X89010442Y-85465518D02*
X89076627Y-85472037D01*
X89189853Y-85506384D01*
X89246467Y-85523557D01*
X89385087Y-85597652D01*
X89402991Y-85607222D01*
X89438729Y-85636552D01*
X89540186Y-85719814D01*
X89622524Y-85820145D01*
X89652778Y-85857009D01*
X89652779Y-85857011D01*
X89736443Y-86013533D01*
X89736443Y-86013534D01*
X89787963Y-86183373D01*
X89805359Y-86360000D01*
X89787963Y-86536627D01*
X89753616Y-86649853D01*
X89736443Y-86706467D01*
X89688060Y-86796983D01*
X89652778Y-86862991D01*
X89643743Y-86874000D01*
X89540186Y-87000186D01*
X89438729Y-87083448D01*
X89402991Y-87112778D01*
X89402989Y-87112779D01*
X89246467Y-87196443D01*
X89189853Y-87213616D01*
X89076627Y-87247963D01*
X89010442Y-87254482D01*
X88944260Y-87261000D01*
X88855740Y-87261000D01*
X88789558Y-87254482D01*
X88723373Y-87247963D01*
X88610147Y-87213616D01*
X88553533Y-87196443D01*
X88397011Y-87112779D01*
X88397009Y-87112778D01*
X88361271Y-87083448D01*
X88259814Y-87000186D01*
X88156257Y-86874000D01*
X88147222Y-86862991D01*
X88111940Y-86796983D01*
X88063557Y-86706467D01*
X88046384Y-86649853D01*
X88012037Y-86536627D01*
X87994641Y-86360000D01*
X88012037Y-86183373D01*
X88063557Y-86013534D01*
X88063557Y-86013533D01*
X88147221Y-85857011D01*
X88147222Y-85857009D01*
X88177476Y-85820145D01*
X88259814Y-85719814D01*
X88361271Y-85636552D01*
X88397009Y-85607222D01*
X88414913Y-85597652D01*
X88553533Y-85523557D01*
X88610147Y-85506384D01*
X88723373Y-85472037D01*
X88789558Y-85465518D01*
X88855740Y-85459000D01*
X88944260Y-85459000D01*
X89010442Y-85465518D01*
X89010442Y-85465518D01*
G37*
G36*
X28214188Y-84186123D02*
X28385257Y-84256983D01*
X28539216Y-84359855D01*
X28670145Y-84490784D01*
X28773017Y-84644743D01*
X28843877Y-84815812D01*
X28880000Y-84997417D01*
X28880000Y-85182583D01*
X28843877Y-85364188D01*
X28773017Y-85535257D01*
X28670145Y-85689216D01*
X28539216Y-85820145D01*
X28385257Y-85923017D01*
X28214188Y-85993877D01*
X28032583Y-86030000D01*
X27847417Y-86030000D01*
X27665812Y-85993877D01*
X27494743Y-85923017D01*
X27340784Y-85820145D01*
X27209855Y-85689216D01*
X27106983Y-85535257D01*
X27036123Y-85364188D01*
X27000000Y-85182583D01*
X27000000Y-84997417D01*
X27036123Y-84815812D01*
X27106983Y-84644743D01*
X27209855Y-84490784D01*
X27340784Y-84359855D01*
X27494743Y-84256983D01*
X27665812Y-84186123D01*
X27847417Y-84150000D01*
X28032583Y-84150000D01*
X28214188Y-84186123D01*
X28214188Y-84186123D01*
G37*
G36*
X43454188Y-84186123D02*
X43625257Y-84256983D01*
X43779216Y-84359855D01*
X43910145Y-84490784D01*
X44013017Y-84644743D01*
X44083877Y-84815812D01*
X44120000Y-84997417D01*
X44120000Y-85182583D01*
X44083877Y-85364188D01*
X44013017Y-85535257D01*
X43910145Y-85689216D01*
X43779216Y-85820145D01*
X43625257Y-85923017D01*
X43454188Y-85993877D01*
X43272583Y-86030000D01*
X43087417Y-86030000D01*
X42905812Y-85993877D01*
X42734743Y-85923017D01*
X42580784Y-85820145D01*
X42449855Y-85689216D01*
X42346983Y-85535257D01*
X42276123Y-85364188D01*
X42240000Y-85182583D01*
X42240000Y-84997417D01*
X42276123Y-84815812D01*
X42346983Y-84644743D01*
X42449855Y-84490784D01*
X42580784Y-84359855D01*
X42734743Y-84256983D01*
X42905812Y-84186123D01*
X43087417Y-84150000D01*
X43272583Y-84150000D01*
X43454188Y-84186123D01*
X43454188Y-84186123D01*
G37*
G36*
X89010443Y-82925519D02*
X89076627Y-82932037D01*
X89189853Y-82966384D01*
X89246467Y-82983557D01*
X89376363Y-83052989D01*
X89402991Y-83067222D01*
X89438729Y-83096552D01*
X89540186Y-83179814D01*
X89622524Y-83280145D01*
X89652778Y-83317009D01*
X89652779Y-83317011D01*
X89736443Y-83473533D01*
X89736443Y-83473534D01*
X89787963Y-83643373D01*
X89805359Y-83820000D01*
X89787963Y-83996627D01*
X89753616Y-84109853D01*
X89736443Y-84166467D01*
X89688060Y-84256983D01*
X89652778Y-84322991D01*
X89623448Y-84358729D01*
X89540186Y-84460186D01*
X89438729Y-84543448D01*
X89402991Y-84572778D01*
X89402989Y-84572779D01*
X89246467Y-84656443D01*
X89189853Y-84673616D01*
X89076627Y-84707963D01*
X89010443Y-84714481D01*
X88944260Y-84721000D01*
X88855740Y-84721000D01*
X88789557Y-84714481D01*
X88723373Y-84707963D01*
X88610147Y-84673616D01*
X88553533Y-84656443D01*
X88397011Y-84572779D01*
X88397009Y-84572778D01*
X88361271Y-84543448D01*
X88259814Y-84460186D01*
X88176552Y-84358729D01*
X88147222Y-84322991D01*
X88111940Y-84256983D01*
X88063557Y-84166467D01*
X88046384Y-84109853D01*
X88012037Y-83996627D01*
X87994641Y-83820000D01*
X88012037Y-83643373D01*
X88063557Y-83473534D01*
X88063557Y-83473533D01*
X88147221Y-83317011D01*
X88147222Y-83317009D01*
X88177476Y-83280145D01*
X88259814Y-83179814D01*
X88361271Y-83096552D01*
X88397009Y-83067222D01*
X88423637Y-83052989D01*
X88553533Y-82983557D01*
X88610147Y-82966384D01*
X88723373Y-82932037D01*
X88789557Y-82925519D01*
X88855740Y-82919000D01*
X88944260Y-82919000D01*
X89010443Y-82925519D01*
X89010443Y-82925519D01*
G37*
G36*
X43454188Y-81646123D02*
X43625257Y-81716983D01*
X43779216Y-81819855D01*
X43910145Y-81950784D01*
X44013017Y-82104743D01*
X44083877Y-82275812D01*
X44120000Y-82457417D01*
X44120000Y-82642583D01*
X44083877Y-82824188D01*
X44013017Y-82995257D01*
X43910145Y-83149216D01*
X43779216Y-83280145D01*
X43625257Y-83383017D01*
X43454188Y-83453877D01*
X43272583Y-83490000D01*
X43087417Y-83490000D01*
X42905812Y-83453877D01*
X42734743Y-83383017D01*
X42580784Y-83280145D01*
X42449855Y-83149216D01*
X42346983Y-82995257D01*
X42276123Y-82824188D01*
X42240000Y-82642583D01*
X42240000Y-82457417D01*
X42276123Y-82275812D01*
X42346983Y-82104743D01*
X42449855Y-81950784D01*
X42580784Y-81819855D01*
X42734743Y-81716983D01*
X42905812Y-81646123D01*
X43087417Y-81610000D01*
X43272583Y-81610000D01*
X43454188Y-81646123D01*
X43454188Y-81646123D01*
G37*
G36*
X28214188Y-81646123D02*
X28385257Y-81716983D01*
X28539216Y-81819855D01*
X28670145Y-81950784D01*
X28773017Y-82104743D01*
X28843877Y-82275812D01*
X28880000Y-82457417D01*
X28880000Y-82642583D01*
X28843877Y-82824188D01*
X28773017Y-82995257D01*
X28670145Y-83149216D01*
X28539216Y-83280145D01*
X28385257Y-83383017D01*
X28214188Y-83453877D01*
X28032583Y-83490000D01*
X27847417Y-83490000D01*
X27665812Y-83453877D01*
X27494743Y-83383017D01*
X27340784Y-83280145D01*
X27209855Y-83149216D01*
X27106983Y-82995257D01*
X27036123Y-82824188D01*
X27000000Y-82642583D01*
X27000000Y-82457417D01*
X27036123Y-82275812D01*
X27106983Y-82104743D01*
X27209855Y-81950784D01*
X27340784Y-81819855D01*
X27494743Y-81716983D01*
X27665812Y-81646123D01*
X27847417Y-81610000D01*
X28032583Y-81610000D01*
X28214188Y-81646123D01*
X28214188Y-81646123D01*
G37*
G36*
X80911000Y-83451000D02*
X79109000Y-83451000D01*
X79109000Y-81649000D01*
X80911000Y-81649000D01*
X80911000Y-83451000D01*
X80911000Y-83451000D01*
G37*
G36*
X82660443Y-81655519D02*
X82726627Y-81662037D01*
X82839853Y-81696384D01*
X82896467Y-81713557D01*
X82902876Y-81716983D01*
X83052991Y-81797222D01*
X83080569Y-81819855D01*
X83190186Y-81909814D01*
X83273448Y-82011271D01*
X83302778Y-82047009D01*
X83302779Y-82047011D01*
X83386443Y-82203533D01*
X83386443Y-82203534D01*
X83437963Y-82373373D01*
X83455359Y-82550000D01*
X83437963Y-82726627D01*
X83408368Y-82824188D01*
X83386443Y-82896467D01*
X83367430Y-82932037D01*
X83302778Y-83052991D01*
X83273448Y-83088729D01*
X83190186Y-83190186D01*
X83088729Y-83273448D01*
X83052991Y-83302778D01*
X83052989Y-83302779D01*
X82896467Y-83386443D01*
X82839853Y-83403616D01*
X82726627Y-83437963D01*
X82660443Y-83444481D01*
X82594260Y-83451000D01*
X82505740Y-83451000D01*
X82439557Y-83444481D01*
X82373373Y-83437963D01*
X82260147Y-83403616D01*
X82203533Y-83386443D01*
X82047011Y-83302779D01*
X82047009Y-83302778D01*
X82011271Y-83273448D01*
X81909814Y-83190186D01*
X81826552Y-83088729D01*
X81797222Y-83052991D01*
X81732570Y-82932037D01*
X81713557Y-82896467D01*
X81691632Y-82824188D01*
X81662037Y-82726627D01*
X81644641Y-82550000D01*
X81662037Y-82373373D01*
X81713557Y-82203534D01*
X81713557Y-82203533D01*
X81797221Y-82047011D01*
X81797222Y-82047009D01*
X81826552Y-82011271D01*
X81909814Y-81909814D01*
X82019431Y-81819855D01*
X82047009Y-81797222D01*
X82197124Y-81716983D01*
X82203533Y-81713557D01*
X82260147Y-81696384D01*
X82373373Y-81662037D01*
X82439557Y-81655519D01*
X82505740Y-81649000D01*
X82594260Y-81649000D01*
X82660443Y-81655519D01*
X82660443Y-81655519D01*
G37*
G36*
X89801000Y-82181000D02*
X87999000Y-82181000D01*
X87999000Y-80379000D01*
X89801000Y-80379000D01*
X89801000Y-82181000D01*
X89801000Y-82181000D01*
G37*
G36*
X28214188Y-79106123D02*
X28385257Y-79176983D01*
X28539216Y-79279855D01*
X28670145Y-79410784D01*
X28773017Y-79564743D01*
X28843877Y-79735812D01*
X28880000Y-79917417D01*
X28880000Y-80102583D01*
X28843877Y-80284188D01*
X28773017Y-80455257D01*
X28670145Y-80609216D01*
X28539216Y-80740145D01*
X28385257Y-80843017D01*
X28214188Y-80913877D01*
X28032583Y-80950000D01*
X27847417Y-80950000D01*
X27665812Y-80913877D01*
X27494743Y-80843017D01*
X27340784Y-80740145D01*
X27209855Y-80609216D01*
X27106983Y-80455257D01*
X27036123Y-80284188D01*
X27000000Y-80102583D01*
X27000000Y-79917417D01*
X27036123Y-79735812D01*
X27106983Y-79564743D01*
X27209855Y-79410784D01*
X27340784Y-79279855D01*
X27494743Y-79176983D01*
X27665812Y-79106123D01*
X27847417Y-79070000D01*
X28032583Y-79070000D01*
X28214188Y-79106123D01*
X28214188Y-79106123D01*
G37*
G36*
X43454188Y-79106123D02*
X43625257Y-79176983D01*
X43779216Y-79279855D01*
X43910145Y-79410784D01*
X44013017Y-79564743D01*
X44083877Y-79735812D01*
X44120000Y-79917417D01*
X44120000Y-80102583D01*
X44083877Y-80284188D01*
X44013017Y-80455257D01*
X43910145Y-80609216D01*
X43779216Y-80740145D01*
X43625257Y-80843017D01*
X43454188Y-80913877D01*
X43272583Y-80950000D01*
X43087417Y-80950000D01*
X42905812Y-80913877D01*
X42734743Y-80843017D01*
X42580784Y-80740145D01*
X42449855Y-80609216D01*
X42346983Y-80455257D01*
X42276123Y-80284188D01*
X42240000Y-80102583D01*
X42240000Y-79917417D01*
X42276123Y-79735812D01*
X42346983Y-79564743D01*
X42449855Y-79410784D01*
X42580784Y-79279855D01*
X42734743Y-79176983D01*
X42905812Y-79106123D01*
X43087417Y-79070000D01*
X43272583Y-79070000D01*
X43454188Y-79106123D01*
X43454188Y-79106123D01*
G37*
G36*
X80911000Y-80911000D02*
X79109000Y-80911000D01*
X79109000Y-79109000D01*
X80911000Y-79109000D01*
X80911000Y-80911000D01*
X80911000Y-80911000D01*
G37*
G36*
X82660443Y-79115519D02*
X82726627Y-79122037D01*
X82839853Y-79156384D01*
X82896467Y-79173557D01*
X82902876Y-79176983D01*
X83052991Y-79257222D01*
X83080569Y-79279855D01*
X83190186Y-79369814D01*
X83273448Y-79471271D01*
X83302778Y-79507009D01*
X83302779Y-79507011D01*
X83386443Y-79663533D01*
X83386443Y-79663534D01*
X83437963Y-79833373D01*
X83455359Y-80010000D01*
X83437963Y-80186627D01*
X83408368Y-80284188D01*
X83386443Y-80356467D01*
X83333638Y-80455257D01*
X83302778Y-80512991D01*
X83273448Y-80548729D01*
X83190186Y-80650186D01*
X83088729Y-80733448D01*
X83052991Y-80762778D01*
X83052989Y-80762779D01*
X82896467Y-80846443D01*
X82839853Y-80863616D01*
X82726627Y-80897963D01*
X82660442Y-80904482D01*
X82594260Y-80911000D01*
X82505740Y-80911000D01*
X82439558Y-80904482D01*
X82373373Y-80897963D01*
X82260147Y-80863616D01*
X82203533Y-80846443D01*
X82047011Y-80762779D01*
X82047009Y-80762778D01*
X82011271Y-80733448D01*
X81909814Y-80650186D01*
X81826552Y-80548729D01*
X81797222Y-80512991D01*
X81766362Y-80455257D01*
X81713557Y-80356467D01*
X81691632Y-80284188D01*
X81662037Y-80186627D01*
X81644641Y-80010000D01*
X81662037Y-79833373D01*
X81713557Y-79663534D01*
X81713557Y-79663533D01*
X81797221Y-79507011D01*
X81797222Y-79507009D01*
X81826552Y-79471271D01*
X81909814Y-79369814D01*
X82019431Y-79279855D01*
X82047009Y-79257222D01*
X82197124Y-79176983D01*
X82203533Y-79173557D01*
X82260147Y-79156384D01*
X82373373Y-79122037D01*
X82439557Y-79115519D01*
X82505740Y-79109000D01*
X82594260Y-79109000D01*
X82660443Y-79115519D01*
X82660443Y-79115519D01*
G37*
G36*
X89010443Y-77845519D02*
X89076627Y-77852037D01*
X89189853Y-77886384D01*
X89246467Y-77903557D01*
X89376363Y-77972989D01*
X89402991Y-77987222D01*
X89438729Y-78016552D01*
X89540186Y-78099814D01*
X89622524Y-78200145D01*
X89652778Y-78237009D01*
X89652779Y-78237011D01*
X89736443Y-78393533D01*
X89736443Y-78393534D01*
X89787963Y-78563373D01*
X89805359Y-78740000D01*
X89787963Y-78916627D01*
X89753616Y-79029853D01*
X89736443Y-79086467D01*
X89717430Y-79122037D01*
X89652778Y-79242991D01*
X89623448Y-79278729D01*
X89540186Y-79380186D01*
X89438729Y-79463448D01*
X89402991Y-79492778D01*
X89402989Y-79492779D01*
X89246467Y-79576443D01*
X89189853Y-79593616D01*
X89076627Y-79627963D01*
X89010442Y-79634482D01*
X88944260Y-79641000D01*
X88855740Y-79641000D01*
X88789558Y-79634482D01*
X88723373Y-79627963D01*
X88610147Y-79593616D01*
X88553533Y-79576443D01*
X88397011Y-79492779D01*
X88397009Y-79492778D01*
X88361271Y-79463448D01*
X88259814Y-79380186D01*
X88176552Y-79278729D01*
X88147222Y-79242991D01*
X88082570Y-79122037D01*
X88063557Y-79086467D01*
X88046384Y-79029853D01*
X88012037Y-78916627D01*
X87994641Y-78740000D01*
X88012037Y-78563373D01*
X88063557Y-78393534D01*
X88063557Y-78393533D01*
X88147221Y-78237011D01*
X88147222Y-78237009D01*
X88177476Y-78200145D01*
X88259814Y-78099814D01*
X88361271Y-78016552D01*
X88397009Y-77987222D01*
X88423637Y-77972989D01*
X88553533Y-77903557D01*
X88610147Y-77886384D01*
X88723373Y-77852037D01*
X88789557Y-77845519D01*
X88855740Y-77839000D01*
X88944260Y-77839000D01*
X89010443Y-77845519D01*
X89010443Y-77845519D01*
G37*
G36*
X28214188Y-76566123D02*
X28385257Y-76636983D01*
X28539216Y-76739855D01*
X28670145Y-76870784D01*
X28773017Y-77024743D01*
X28843877Y-77195812D01*
X28880000Y-77377417D01*
X28880000Y-77562583D01*
X28843877Y-77744188D01*
X28773017Y-77915257D01*
X28670145Y-78069216D01*
X28539216Y-78200145D01*
X28385257Y-78303017D01*
X28214188Y-78373877D01*
X28032583Y-78410000D01*
X27847417Y-78410000D01*
X27665812Y-78373877D01*
X27494743Y-78303017D01*
X27340784Y-78200145D01*
X27209855Y-78069216D01*
X27106983Y-77915257D01*
X27036123Y-77744188D01*
X27000000Y-77562583D01*
X27000000Y-77377417D01*
X27036123Y-77195812D01*
X27106983Y-77024743D01*
X27209855Y-76870784D01*
X27340784Y-76739855D01*
X27494743Y-76636983D01*
X27665812Y-76566123D01*
X27847417Y-76530000D01*
X28032583Y-76530000D01*
X28214188Y-76566123D01*
X28214188Y-76566123D01*
G37*
G36*
X43454188Y-76566123D02*
X43625257Y-76636983D01*
X43779216Y-76739855D01*
X43910145Y-76870784D01*
X44013017Y-77024743D01*
X44083877Y-77195812D01*
X44120000Y-77377417D01*
X44120000Y-77562583D01*
X44083877Y-77744188D01*
X44013017Y-77915257D01*
X43910145Y-78069216D01*
X43779216Y-78200145D01*
X43625257Y-78303017D01*
X43454188Y-78373877D01*
X43272583Y-78410000D01*
X43087417Y-78410000D01*
X42905812Y-78373877D01*
X42734743Y-78303017D01*
X42580784Y-78200145D01*
X42449855Y-78069216D01*
X42346983Y-77915257D01*
X42276123Y-77744188D01*
X42240000Y-77562583D01*
X42240000Y-77377417D01*
X42276123Y-77195812D01*
X42346983Y-77024743D01*
X42449855Y-76870784D01*
X42580784Y-76739855D01*
X42734743Y-76636983D01*
X42905812Y-76566123D01*
X43087417Y-76530000D01*
X43272583Y-76530000D01*
X43454188Y-76566123D01*
X43454188Y-76566123D01*
G37*
G36*
X82660443Y-76575519D02*
X82726627Y-76582037D01*
X82839853Y-76616384D01*
X82896467Y-76633557D01*
X82902876Y-76636983D01*
X83052991Y-76717222D01*
X83080569Y-76739855D01*
X83190186Y-76829814D01*
X83273448Y-76931271D01*
X83302778Y-76967009D01*
X83302779Y-76967011D01*
X83386443Y-77123533D01*
X83386443Y-77123534D01*
X83437963Y-77293373D01*
X83455359Y-77470000D01*
X83437963Y-77646627D01*
X83408368Y-77744188D01*
X83386443Y-77816467D01*
X83367430Y-77852037D01*
X83302778Y-77972991D01*
X83273448Y-78008729D01*
X83190186Y-78110186D01*
X83088729Y-78193448D01*
X83052991Y-78222778D01*
X83052989Y-78222779D01*
X82896467Y-78306443D01*
X82839853Y-78323616D01*
X82726627Y-78357963D01*
X82660443Y-78364481D01*
X82594260Y-78371000D01*
X82505740Y-78371000D01*
X82439557Y-78364481D01*
X82373373Y-78357963D01*
X82260147Y-78323616D01*
X82203533Y-78306443D01*
X82047011Y-78222779D01*
X82047009Y-78222778D01*
X82011271Y-78193448D01*
X81909814Y-78110186D01*
X81826552Y-78008729D01*
X81797222Y-77972991D01*
X81732570Y-77852037D01*
X81713557Y-77816467D01*
X81691632Y-77744188D01*
X81662037Y-77646627D01*
X81644641Y-77470000D01*
X81662037Y-77293373D01*
X81713557Y-77123534D01*
X81713557Y-77123533D01*
X81797221Y-76967011D01*
X81797222Y-76967009D01*
X81826552Y-76931271D01*
X81909814Y-76829814D01*
X82019431Y-76739855D01*
X82047009Y-76717222D01*
X82197124Y-76636983D01*
X82203533Y-76633557D01*
X82260147Y-76616384D01*
X82373373Y-76582037D01*
X82439557Y-76575519D01*
X82505740Y-76569000D01*
X82594260Y-76569000D01*
X82660443Y-76575519D01*
X82660443Y-76575519D01*
G37*
G36*
X80911000Y-78371000D02*
X79109000Y-78371000D01*
X79109000Y-76569000D01*
X80911000Y-76569000D01*
X80911000Y-78371000D01*
X80911000Y-78371000D01*
G37*
G36*
X89010442Y-75305518D02*
X89076627Y-75312037D01*
X89189853Y-75346384D01*
X89246467Y-75363557D01*
X89376363Y-75432989D01*
X89402991Y-75447222D01*
X89438729Y-75476552D01*
X89540186Y-75559814D01*
X89622524Y-75660145D01*
X89652778Y-75697009D01*
X89652779Y-75697011D01*
X89736443Y-75853533D01*
X89736443Y-75853534D01*
X89787963Y-76023373D01*
X89805359Y-76200000D01*
X89787963Y-76376627D01*
X89753616Y-76489853D01*
X89736443Y-76546467D01*
X89717430Y-76582037D01*
X89652778Y-76702991D01*
X89623448Y-76738729D01*
X89540186Y-76840186D01*
X89438729Y-76923448D01*
X89402991Y-76952778D01*
X89402989Y-76952779D01*
X89246467Y-77036443D01*
X89189853Y-77053616D01*
X89076627Y-77087963D01*
X89010442Y-77094482D01*
X88944260Y-77101000D01*
X88855740Y-77101000D01*
X88789558Y-77094482D01*
X88723373Y-77087963D01*
X88610147Y-77053616D01*
X88553533Y-77036443D01*
X88397011Y-76952779D01*
X88397009Y-76952778D01*
X88361271Y-76923448D01*
X88259814Y-76840186D01*
X88176552Y-76738729D01*
X88147222Y-76702991D01*
X88082570Y-76582037D01*
X88063557Y-76546467D01*
X88046384Y-76489853D01*
X88012037Y-76376627D01*
X87994641Y-76200000D01*
X88012037Y-76023373D01*
X88063557Y-75853534D01*
X88063557Y-75853533D01*
X88147221Y-75697011D01*
X88147222Y-75697009D01*
X88177476Y-75660145D01*
X88259814Y-75559814D01*
X88361271Y-75476552D01*
X88397009Y-75447222D01*
X88423637Y-75432989D01*
X88553533Y-75363557D01*
X88610147Y-75346384D01*
X88723373Y-75312037D01*
X88789558Y-75305518D01*
X88855740Y-75299000D01*
X88944260Y-75299000D01*
X89010442Y-75305518D01*
X89010442Y-75305518D01*
G37*
G36*
X43454188Y-74026123D02*
X43625257Y-74096983D01*
X43779216Y-74199855D01*
X43910145Y-74330784D01*
X44013017Y-74484743D01*
X44083877Y-74655812D01*
X44120000Y-74837417D01*
X44120000Y-75022583D01*
X44083877Y-75204188D01*
X44013017Y-75375257D01*
X43910145Y-75529216D01*
X43779216Y-75660145D01*
X43625257Y-75763017D01*
X43454188Y-75833877D01*
X43272583Y-75870000D01*
X43087417Y-75870000D01*
X42905812Y-75833877D01*
X42734743Y-75763017D01*
X42580784Y-75660145D01*
X42449855Y-75529216D01*
X42346983Y-75375257D01*
X42276123Y-75204188D01*
X42240000Y-75022583D01*
X42240000Y-74837417D01*
X42276123Y-74655812D01*
X42346983Y-74484743D01*
X42449855Y-74330784D01*
X42580784Y-74199855D01*
X42734743Y-74096983D01*
X42905812Y-74026123D01*
X43087417Y-73990000D01*
X43272583Y-73990000D01*
X43454188Y-74026123D01*
X43454188Y-74026123D01*
G37*
G36*
X28214188Y-74026123D02*
X28385257Y-74096983D01*
X28539216Y-74199855D01*
X28670145Y-74330784D01*
X28773017Y-74484743D01*
X28843877Y-74655812D01*
X28880000Y-74837417D01*
X28880000Y-75022583D01*
X28843877Y-75204188D01*
X28773017Y-75375257D01*
X28670145Y-75529216D01*
X28539216Y-75660145D01*
X28385257Y-75763017D01*
X28214188Y-75833877D01*
X28032583Y-75870000D01*
X27847417Y-75870000D01*
X27665812Y-75833877D01*
X27494743Y-75763017D01*
X27340784Y-75660145D01*
X27209855Y-75529216D01*
X27106983Y-75375257D01*
X27036123Y-75204188D01*
X27000000Y-75022583D01*
X27000000Y-74837417D01*
X27036123Y-74655812D01*
X27106983Y-74484743D01*
X27209855Y-74330784D01*
X27340784Y-74199855D01*
X27494743Y-74096983D01*
X27665812Y-74026123D01*
X27847417Y-73990000D01*
X28032583Y-73990000D01*
X28214188Y-74026123D01*
X28214188Y-74026123D01*
G37*
G36*
X80911000Y-75831000D02*
X79109000Y-75831000D01*
X79109000Y-74029000D01*
X80911000Y-74029000D01*
X80911000Y-75831000D01*
X80911000Y-75831000D01*
G37*
G36*
X82660442Y-74035518D02*
X82726627Y-74042037D01*
X82839853Y-74076384D01*
X82896467Y-74093557D01*
X82902876Y-74096983D01*
X83052991Y-74177222D01*
X83080569Y-74199855D01*
X83190186Y-74289814D01*
X83273448Y-74391271D01*
X83302778Y-74427009D01*
X83302779Y-74427011D01*
X83386443Y-74583533D01*
X83386443Y-74583534D01*
X83437963Y-74753373D01*
X83455359Y-74930000D01*
X83437963Y-75106627D01*
X83408368Y-75204188D01*
X83386443Y-75276467D01*
X83367430Y-75312037D01*
X83302778Y-75432991D01*
X83273448Y-75468729D01*
X83190186Y-75570186D01*
X83088729Y-75653448D01*
X83052991Y-75682778D01*
X83052989Y-75682779D01*
X82896467Y-75766443D01*
X82839853Y-75783616D01*
X82726627Y-75817963D01*
X82660442Y-75824482D01*
X82594260Y-75831000D01*
X82505740Y-75831000D01*
X82439558Y-75824482D01*
X82373373Y-75817963D01*
X82260147Y-75783616D01*
X82203533Y-75766443D01*
X82047011Y-75682779D01*
X82047009Y-75682778D01*
X82011271Y-75653448D01*
X81909814Y-75570186D01*
X81826552Y-75468729D01*
X81797222Y-75432991D01*
X81732570Y-75312037D01*
X81713557Y-75276467D01*
X81691632Y-75204188D01*
X81662037Y-75106627D01*
X81644641Y-74930000D01*
X81662037Y-74753373D01*
X81713557Y-74583534D01*
X81713557Y-74583533D01*
X81797221Y-74427011D01*
X81797222Y-74427009D01*
X81826552Y-74391271D01*
X81909814Y-74289814D01*
X82019431Y-74199855D01*
X82047009Y-74177222D01*
X82197124Y-74096983D01*
X82203533Y-74093557D01*
X82260147Y-74076384D01*
X82373373Y-74042037D01*
X82439558Y-74035518D01*
X82505740Y-74029000D01*
X82594260Y-74029000D01*
X82660442Y-74035518D01*
X82660442Y-74035518D01*
G37*
G36*
X89801000Y-74561000D02*
X87999000Y-74561000D01*
X87999000Y-72759000D01*
X89801000Y-72759000D01*
X89801000Y-74561000D01*
X89801000Y-74561000D01*
G37*
G36*
X28214188Y-71486123D02*
X28385257Y-71556983D01*
X28539216Y-71659855D01*
X28670145Y-71790784D01*
X28773017Y-71944743D01*
X28843877Y-72115812D01*
X28880000Y-72297417D01*
X28880000Y-72482583D01*
X28843877Y-72664188D01*
X28773017Y-72835257D01*
X28670145Y-72989216D01*
X28539216Y-73120145D01*
X28385257Y-73223017D01*
X28214188Y-73293877D01*
X28032583Y-73330000D01*
X27847417Y-73330000D01*
X27665812Y-73293877D01*
X27494743Y-73223017D01*
X27340784Y-73120145D01*
X27209855Y-72989216D01*
X27106983Y-72835257D01*
X27036123Y-72664188D01*
X27000000Y-72482583D01*
X27000000Y-72297417D01*
X27036123Y-72115812D01*
X27106983Y-71944743D01*
X27209855Y-71790784D01*
X27340784Y-71659855D01*
X27494743Y-71556983D01*
X27665812Y-71486123D01*
X27847417Y-71450000D01*
X28032583Y-71450000D01*
X28214188Y-71486123D01*
X28214188Y-71486123D01*
G37*
G36*
X43454188Y-71486123D02*
X43625257Y-71556983D01*
X43779216Y-71659855D01*
X43910145Y-71790784D01*
X44013017Y-71944743D01*
X44083877Y-72115812D01*
X44120000Y-72297417D01*
X44120000Y-72482583D01*
X44083877Y-72664188D01*
X44013017Y-72835257D01*
X43910145Y-72989216D01*
X43779216Y-73120145D01*
X43625257Y-73223017D01*
X43454188Y-73293877D01*
X43272583Y-73330000D01*
X43087417Y-73330000D01*
X42905812Y-73293877D01*
X42734743Y-73223017D01*
X42580784Y-73120145D01*
X42449855Y-72989216D01*
X42346983Y-72835257D01*
X42276123Y-72664188D01*
X42240000Y-72482583D01*
X42240000Y-72297417D01*
X42276123Y-72115812D01*
X42346983Y-71944743D01*
X42449855Y-71790784D01*
X42580784Y-71659855D01*
X42734743Y-71556983D01*
X42905812Y-71486123D01*
X43087417Y-71450000D01*
X43272583Y-71450000D01*
X43454188Y-71486123D01*
X43454188Y-71486123D01*
G37*
G36*
X80911000Y-73291000D02*
X79109000Y-73291000D01*
X79109000Y-71489000D01*
X80911000Y-71489000D01*
X80911000Y-73291000D01*
X80911000Y-73291000D01*
G37*
G36*
X82660443Y-71495519D02*
X82726627Y-71502037D01*
X82839853Y-71536384D01*
X82896467Y-71553557D01*
X83026363Y-71622989D01*
X83052991Y-71637222D01*
X83080569Y-71659855D01*
X83190186Y-71749814D01*
X83269900Y-71846947D01*
X83302778Y-71887009D01*
X83302779Y-71887011D01*
X83386443Y-72043533D01*
X83386443Y-72043534D01*
X83437963Y-72213373D01*
X83455359Y-72390000D01*
X83437963Y-72566627D01*
X83408368Y-72664188D01*
X83386443Y-72736467D01*
X83333638Y-72835257D01*
X83302778Y-72892991D01*
X83273448Y-72928729D01*
X83190186Y-73030186D01*
X83088729Y-73113448D01*
X83052991Y-73142778D01*
X83052989Y-73142779D01*
X82896467Y-73226443D01*
X82839853Y-73243616D01*
X82726627Y-73277963D01*
X82660443Y-73284481D01*
X82594260Y-73291000D01*
X82505740Y-73291000D01*
X82439557Y-73284481D01*
X82373373Y-73277963D01*
X82260147Y-73243616D01*
X82203533Y-73226443D01*
X82047011Y-73142779D01*
X82047009Y-73142778D01*
X82011271Y-73113448D01*
X81909814Y-73030186D01*
X81826552Y-72928729D01*
X81797222Y-72892991D01*
X81766362Y-72835257D01*
X81713557Y-72736467D01*
X81691632Y-72664188D01*
X81662037Y-72566627D01*
X81644641Y-72390000D01*
X81662037Y-72213373D01*
X81713557Y-72043534D01*
X81713557Y-72043533D01*
X81797221Y-71887011D01*
X81797222Y-71887009D01*
X81830100Y-71846947D01*
X81909814Y-71749814D01*
X82019431Y-71659855D01*
X82047009Y-71637222D01*
X82073637Y-71622989D01*
X82203533Y-71553557D01*
X82260147Y-71536384D01*
X82373373Y-71502037D01*
X82439557Y-71495519D01*
X82505740Y-71489000D01*
X82594260Y-71489000D01*
X82660443Y-71495519D01*
X82660443Y-71495519D01*
G37*
G36*
X89010442Y-70225518D02*
X89076627Y-70232037D01*
X89189853Y-70266384D01*
X89246467Y-70283557D01*
X89376363Y-70352989D01*
X89402991Y-70367222D01*
X89434465Y-70393052D01*
X89540186Y-70479814D01*
X89622524Y-70580145D01*
X89652778Y-70617009D01*
X89652779Y-70617011D01*
X89736443Y-70773533D01*
X89736443Y-70773534D01*
X89787963Y-70943373D01*
X89805359Y-71120000D01*
X89787963Y-71296627D01*
X89774650Y-71340514D01*
X89736443Y-71466467D01*
X89717430Y-71502037D01*
X89652778Y-71622991D01*
X89623448Y-71658729D01*
X89540186Y-71760186D01*
X89438729Y-71843448D01*
X89402991Y-71872778D01*
X89402989Y-71872779D01*
X89246467Y-71956443D01*
X89189853Y-71973616D01*
X89076627Y-72007963D01*
X89010443Y-72014481D01*
X88944260Y-72021000D01*
X88855740Y-72021000D01*
X88789557Y-72014481D01*
X88723373Y-72007963D01*
X88610147Y-71973616D01*
X88553533Y-71956443D01*
X88397011Y-71872779D01*
X88397009Y-71872778D01*
X88361271Y-71843448D01*
X88259814Y-71760186D01*
X88176552Y-71658729D01*
X88147222Y-71622991D01*
X88082570Y-71502037D01*
X88063557Y-71466467D01*
X88025350Y-71340514D01*
X88012037Y-71296627D01*
X87994641Y-71120000D01*
X88012037Y-70943373D01*
X88063557Y-70773534D01*
X88063557Y-70773533D01*
X88147221Y-70617011D01*
X88147222Y-70617009D01*
X88177476Y-70580145D01*
X88259814Y-70479814D01*
X88365535Y-70393052D01*
X88397009Y-70367222D01*
X88423637Y-70352989D01*
X88553533Y-70283557D01*
X88610147Y-70266384D01*
X88723373Y-70232037D01*
X88789558Y-70225518D01*
X88855740Y-70219000D01*
X88944260Y-70219000D01*
X89010442Y-70225518D01*
X89010442Y-70225518D01*
G37*
G36*
X58640514Y-70393052D02*
X58640516Y-70393053D01*
X58640517Y-70393053D01*
X58778100Y-70450041D01*
X58822660Y-70479815D01*
X58901925Y-70532778D01*
X59007222Y-70638075D01*
X59007224Y-70638078D01*
X59089959Y-70761900D01*
X59101598Y-70790000D01*
X59146948Y-70899486D01*
X59176000Y-71045539D01*
X59176000Y-71194461D01*
X59155678Y-71296627D01*
X59146947Y-71340517D01*
X59089959Y-71478100D01*
X59082676Y-71489000D01*
X59007222Y-71601925D01*
X58901925Y-71707222D01*
X58901922Y-71707224D01*
X58778100Y-71789959D01*
X58640517Y-71846947D01*
X58640516Y-71846947D01*
X58640514Y-71846948D01*
X58494461Y-71876000D01*
X58345539Y-71876000D01*
X58199486Y-71846948D01*
X58199484Y-71846947D01*
X58199483Y-71846947D01*
X58061900Y-71789959D01*
X57938078Y-71707224D01*
X57938075Y-71707222D01*
X57832778Y-71601925D01*
X57757324Y-71489000D01*
X57750041Y-71478100D01*
X57693053Y-71340517D01*
X57684323Y-71296627D01*
X57664000Y-71194461D01*
X57664000Y-71045539D01*
X57693052Y-70899486D01*
X57738402Y-70790000D01*
X57750041Y-70761900D01*
X57832776Y-70638078D01*
X57832778Y-70638075D01*
X57938075Y-70532778D01*
X58017340Y-70479815D01*
X58061900Y-70450041D01*
X58199483Y-70393053D01*
X58199484Y-70393053D01*
X58199486Y-70393052D01*
X58345539Y-70364000D01*
X58494461Y-70364000D01*
X58640514Y-70393052D01*
X58640514Y-70393052D01*
G37*
G36*
X73880514Y-70393052D02*
X73880516Y-70393053D01*
X73880517Y-70393053D01*
X74018100Y-70450041D01*
X74062660Y-70479815D01*
X74141925Y-70532778D01*
X74247222Y-70638075D01*
X74247224Y-70638078D01*
X74329959Y-70761900D01*
X74341598Y-70790000D01*
X74386948Y-70899486D01*
X74416000Y-71045539D01*
X74416000Y-71194461D01*
X74395678Y-71296627D01*
X74386947Y-71340517D01*
X74329959Y-71478100D01*
X74322676Y-71489000D01*
X74247222Y-71601925D01*
X74141925Y-71707222D01*
X74141922Y-71707224D01*
X74018100Y-71789959D01*
X73880517Y-71846947D01*
X73880516Y-71846947D01*
X73880514Y-71846948D01*
X73734461Y-71876000D01*
X73585539Y-71876000D01*
X73439486Y-71846948D01*
X73439484Y-71846947D01*
X73439483Y-71846947D01*
X73301900Y-71789959D01*
X73178078Y-71707224D01*
X73178075Y-71707222D01*
X73072778Y-71601925D01*
X72997324Y-71489000D01*
X72990041Y-71478100D01*
X72933053Y-71340517D01*
X72924323Y-71296627D01*
X72904000Y-71194461D01*
X72904000Y-71045539D01*
X72933052Y-70899486D01*
X72978402Y-70790000D01*
X72990041Y-70761900D01*
X73072776Y-70638078D01*
X73072778Y-70638075D01*
X73178075Y-70532778D01*
X73257340Y-70479815D01*
X73301900Y-70450041D01*
X73439483Y-70393053D01*
X73439484Y-70393053D01*
X73439486Y-70393052D01*
X73585539Y-70364000D01*
X73734461Y-70364000D01*
X73880514Y-70393052D01*
X73880514Y-70393052D01*
G37*
G36*
X28214188Y-68946123D02*
X28385257Y-69016983D01*
X28539216Y-69119855D01*
X28670145Y-69250784D01*
X28773017Y-69404743D01*
X28843877Y-69575812D01*
X28880000Y-69757417D01*
X28880000Y-69942583D01*
X28843877Y-70124188D01*
X28773017Y-70295257D01*
X28670145Y-70449216D01*
X28539216Y-70580145D01*
X28385257Y-70683017D01*
X28214188Y-70753877D01*
X28032583Y-70790000D01*
X27847417Y-70790000D01*
X27665812Y-70753877D01*
X27494743Y-70683017D01*
X27340784Y-70580145D01*
X27209855Y-70449216D01*
X27106983Y-70295257D01*
X27036123Y-70124188D01*
X27000000Y-69942583D01*
X27000000Y-69757417D01*
X27036123Y-69575812D01*
X27106983Y-69404743D01*
X27209855Y-69250784D01*
X27340784Y-69119855D01*
X27494743Y-69016983D01*
X27665812Y-68946123D01*
X27847417Y-68910000D01*
X28032583Y-68910000D01*
X28214188Y-68946123D01*
X28214188Y-68946123D01*
G37*
G36*
X43454188Y-68946123D02*
X43625257Y-69016983D01*
X43779216Y-69119855D01*
X43910145Y-69250784D01*
X44013017Y-69404743D01*
X44083877Y-69575812D01*
X44120000Y-69757417D01*
X44120000Y-69942583D01*
X44083877Y-70124188D01*
X44013017Y-70295257D01*
X43910145Y-70449216D01*
X43779216Y-70580145D01*
X43625257Y-70683017D01*
X43454188Y-70753877D01*
X43272583Y-70790000D01*
X43087417Y-70790000D01*
X42905812Y-70753877D01*
X42734743Y-70683017D01*
X42580784Y-70580145D01*
X42449855Y-70449216D01*
X42346983Y-70295257D01*
X42276123Y-70124188D01*
X42240000Y-69942583D01*
X42240000Y-69757417D01*
X42276123Y-69575812D01*
X42346983Y-69404743D01*
X42449855Y-69250784D01*
X42580784Y-69119855D01*
X42734743Y-69016983D01*
X42905812Y-68946123D01*
X43087417Y-68910000D01*
X43272583Y-68910000D01*
X43454188Y-68946123D01*
X43454188Y-68946123D01*
G37*
G36*
X80911000Y-70751000D02*
X79109000Y-70751000D01*
X79109000Y-68949000D01*
X80911000Y-68949000D01*
X80911000Y-70751000D01*
X80911000Y-70751000D01*
G37*
G36*
X82660443Y-68955519D02*
X82726627Y-68962037D01*
X82839853Y-68996384D01*
X82896467Y-69013557D01*
X83026363Y-69082989D01*
X83052991Y-69097222D01*
X83080569Y-69119855D01*
X83190186Y-69209814D01*
X83269900Y-69306947D01*
X83302778Y-69347009D01*
X83302779Y-69347011D01*
X83386443Y-69503533D01*
X83386443Y-69503534D01*
X83437963Y-69673373D01*
X83455359Y-69850000D01*
X83437963Y-70026627D01*
X83408368Y-70124188D01*
X83386443Y-70196467D01*
X83367430Y-70232037D01*
X83302778Y-70352991D01*
X83273448Y-70388729D01*
X83190186Y-70490186D01*
X83088729Y-70573448D01*
X83052991Y-70602778D01*
X83052989Y-70602779D01*
X82896467Y-70686443D01*
X82839853Y-70703616D01*
X82726627Y-70737963D01*
X82660443Y-70744481D01*
X82594260Y-70751000D01*
X82505740Y-70751000D01*
X82439557Y-70744481D01*
X82373373Y-70737963D01*
X82260147Y-70703616D01*
X82203533Y-70686443D01*
X82047011Y-70602779D01*
X82047009Y-70602778D01*
X82011271Y-70573448D01*
X81909814Y-70490186D01*
X81826552Y-70388729D01*
X81797222Y-70352991D01*
X81732570Y-70232037D01*
X81713557Y-70196467D01*
X81691632Y-70124188D01*
X81662037Y-70026627D01*
X81644641Y-69850000D01*
X81662037Y-69673373D01*
X81713557Y-69503534D01*
X81713557Y-69503533D01*
X81797221Y-69347011D01*
X81797222Y-69347009D01*
X81830100Y-69306947D01*
X81909814Y-69209814D01*
X82019431Y-69119855D01*
X82047009Y-69097222D01*
X82073637Y-69082989D01*
X82203533Y-69013557D01*
X82260147Y-68996384D01*
X82373373Y-68962037D01*
X82439557Y-68955519D01*
X82505740Y-68949000D01*
X82594260Y-68949000D01*
X82660443Y-68955519D01*
X82660443Y-68955519D01*
G37*
G36*
X89010443Y-67685519D02*
X89076627Y-67692037D01*
X89189853Y-67726384D01*
X89246467Y-67743557D01*
X89376363Y-67812989D01*
X89402991Y-67827222D01*
X89434465Y-67853052D01*
X89540186Y-67939814D01*
X89622524Y-68040145D01*
X89652778Y-68077009D01*
X89652779Y-68077011D01*
X89736443Y-68233533D01*
X89736443Y-68233534D01*
X89787963Y-68403373D01*
X89805359Y-68580000D01*
X89787963Y-68756627D01*
X89774650Y-68800514D01*
X89736443Y-68926467D01*
X89717430Y-68962037D01*
X89652778Y-69082991D01*
X89623448Y-69118729D01*
X89540186Y-69220186D01*
X89438729Y-69303448D01*
X89402991Y-69332778D01*
X89402989Y-69332779D01*
X89246467Y-69416443D01*
X89189853Y-69433616D01*
X89076627Y-69467963D01*
X89010442Y-69474482D01*
X88944260Y-69481000D01*
X88855740Y-69481000D01*
X88789558Y-69474482D01*
X88723373Y-69467963D01*
X88610147Y-69433616D01*
X88553533Y-69416443D01*
X88397011Y-69332779D01*
X88397009Y-69332778D01*
X88361271Y-69303448D01*
X88259814Y-69220186D01*
X88176552Y-69118729D01*
X88147222Y-69082991D01*
X88082570Y-68962037D01*
X88063557Y-68926467D01*
X88025350Y-68800514D01*
X88012037Y-68756627D01*
X87994641Y-68580000D01*
X88012037Y-68403373D01*
X88063557Y-68233534D01*
X88063557Y-68233533D01*
X88147221Y-68077011D01*
X88147222Y-68077009D01*
X88177476Y-68040145D01*
X88259814Y-67939814D01*
X88365535Y-67853052D01*
X88397009Y-67827222D01*
X88423637Y-67812989D01*
X88553533Y-67743557D01*
X88610147Y-67726384D01*
X88723373Y-67692037D01*
X88789557Y-67685519D01*
X88855740Y-67679000D01*
X88944260Y-67679000D01*
X89010443Y-67685519D01*
X89010443Y-67685519D01*
G37*
G36*
X73880514Y-67853052D02*
X73880516Y-67853053D01*
X73880517Y-67853053D01*
X74018100Y-67910041D01*
X74062660Y-67939815D01*
X74141925Y-67992778D01*
X74247222Y-68098075D01*
X74247224Y-68098078D01*
X74329959Y-68221900D01*
X74341598Y-68250000D01*
X74386948Y-68359486D01*
X74416000Y-68505539D01*
X74416000Y-68654461D01*
X74395678Y-68756627D01*
X74386947Y-68800517D01*
X74329959Y-68938100D01*
X74322676Y-68949000D01*
X74247222Y-69061925D01*
X74141925Y-69167222D01*
X74141922Y-69167224D01*
X74018100Y-69249959D01*
X73880517Y-69306947D01*
X73880516Y-69306947D01*
X73880514Y-69306948D01*
X73734461Y-69336000D01*
X73585539Y-69336000D01*
X73439486Y-69306948D01*
X73439484Y-69306947D01*
X73439483Y-69306947D01*
X73301900Y-69249959D01*
X73178078Y-69167224D01*
X73178075Y-69167222D01*
X73072778Y-69061925D01*
X72997324Y-68949000D01*
X72990041Y-68938100D01*
X72933053Y-68800517D01*
X72924323Y-68756627D01*
X72904000Y-68654461D01*
X72904000Y-68505539D01*
X72933052Y-68359486D01*
X72978402Y-68250000D01*
X72990041Y-68221900D01*
X73072776Y-68098078D01*
X73072778Y-68098075D01*
X73178075Y-67992778D01*
X73257340Y-67939815D01*
X73301900Y-67910041D01*
X73439483Y-67853053D01*
X73439484Y-67853053D01*
X73439486Y-67853052D01*
X73585539Y-67824000D01*
X73734461Y-67824000D01*
X73880514Y-67853052D01*
X73880514Y-67853052D01*
G37*
G36*
X58640514Y-67853052D02*
X58640516Y-67853053D01*
X58640517Y-67853053D01*
X58778100Y-67910041D01*
X58822660Y-67939815D01*
X58901925Y-67992778D01*
X59007222Y-68098075D01*
X59007224Y-68098078D01*
X59089959Y-68221900D01*
X59101598Y-68250000D01*
X59146948Y-68359486D01*
X59176000Y-68505539D01*
X59176000Y-68654461D01*
X59155678Y-68756627D01*
X59146947Y-68800517D01*
X59089959Y-68938100D01*
X59082676Y-68949000D01*
X59007222Y-69061925D01*
X58901925Y-69167222D01*
X58901922Y-69167224D01*
X58778100Y-69249959D01*
X58640517Y-69306947D01*
X58640516Y-69306947D01*
X58640514Y-69306948D01*
X58494461Y-69336000D01*
X58345539Y-69336000D01*
X58199486Y-69306948D01*
X58199484Y-69306947D01*
X58199483Y-69306947D01*
X58061900Y-69249959D01*
X57938078Y-69167224D01*
X57938075Y-69167222D01*
X57832778Y-69061925D01*
X57757324Y-68949000D01*
X57750041Y-68938100D01*
X57693053Y-68800517D01*
X57684323Y-68756627D01*
X57664000Y-68654461D01*
X57664000Y-68505539D01*
X57693052Y-68359486D01*
X57738402Y-68250000D01*
X57750041Y-68221900D01*
X57832776Y-68098078D01*
X57832778Y-68098075D01*
X57938075Y-67992778D01*
X58017340Y-67939815D01*
X58061900Y-67910041D01*
X58199483Y-67853053D01*
X58199484Y-67853053D01*
X58199486Y-67853052D01*
X58345539Y-67824000D01*
X58494461Y-67824000D01*
X58640514Y-67853052D01*
X58640514Y-67853052D01*
G37*
G36*
X28214188Y-66406123D02*
X28385257Y-66476983D01*
X28539216Y-66579855D01*
X28670145Y-66710784D01*
X28773017Y-66864743D01*
X28843877Y-67035812D01*
X28880000Y-67217417D01*
X28880000Y-67402583D01*
X28843877Y-67584188D01*
X28773017Y-67755257D01*
X28670145Y-67909216D01*
X28539216Y-68040145D01*
X28385257Y-68143017D01*
X28214188Y-68213877D01*
X28032583Y-68250000D01*
X27847417Y-68250000D01*
X27665812Y-68213877D01*
X27494743Y-68143017D01*
X27340784Y-68040145D01*
X27209855Y-67909216D01*
X27106983Y-67755257D01*
X27036123Y-67584188D01*
X27000000Y-67402583D01*
X27000000Y-67217417D01*
X27036123Y-67035812D01*
X27106983Y-66864743D01*
X27209855Y-66710784D01*
X27340784Y-66579855D01*
X27494743Y-66476983D01*
X27665812Y-66406123D01*
X27847417Y-66370000D01*
X28032583Y-66370000D01*
X28214188Y-66406123D01*
X28214188Y-66406123D01*
G37*
G36*
X43454188Y-66406123D02*
X43625257Y-66476983D01*
X43779216Y-66579855D01*
X43910145Y-66710784D01*
X44013017Y-66864743D01*
X44083877Y-67035812D01*
X44120000Y-67217417D01*
X44120000Y-67402583D01*
X44083877Y-67584188D01*
X44013017Y-67755257D01*
X43910145Y-67909216D01*
X43779216Y-68040145D01*
X43625257Y-68143017D01*
X43454188Y-68213877D01*
X43272583Y-68250000D01*
X43087417Y-68250000D01*
X42905812Y-68213877D01*
X42734743Y-68143017D01*
X42580784Y-68040145D01*
X42449855Y-67909216D01*
X42346983Y-67755257D01*
X42276123Y-67584188D01*
X42240000Y-67402583D01*
X42240000Y-67217417D01*
X42276123Y-67035812D01*
X42346983Y-66864743D01*
X42449855Y-66710784D01*
X42580784Y-66579855D01*
X42734743Y-66476983D01*
X42905812Y-66406123D01*
X43087417Y-66370000D01*
X43272583Y-66370000D01*
X43454188Y-66406123D01*
X43454188Y-66406123D01*
G37*
G36*
X80911000Y-68211000D02*
X79109000Y-68211000D01*
X79109000Y-66409000D01*
X80911000Y-66409000D01*
X80911000Y-68211000D01*
X80911000Y-68211000D01*
G37*
G36*
X82660443Y-66415519D02*
X82726627Y-66422037D01*
X82839853Y-66456384D01*
X82896467Y-66473557D01*
X83035087Y-66547652D01*
X83052991Y-66557222D01*
X83080569Y-66579855D01*
X83190186Y-66669814D01*
X83269900Y-66766947D01*
X83302778Y-66807009D01*
X83302779Y-66807011D01*
X83386443Y-66963533D01*
X83386443Y-66963534D01*
X83437963Y-67133373D01*
X83455359Y-67310000D01*
X83437963Y-67486627D01*
X83408368Y-67584188D01*
X83386443Y-67656467D01*
X83367430Y-67692037D01*
X83302778Y-67812991D01*
X83273448Y-67848729D01*
X83190186Y-67950186D01*
X83088729Y-68033448D01*
X83052991Y-68062778D01*
X83052989Y-68062779D01*
X82896467Y-68146443D01*
X82839853Y-68163616D01*
X82726627Y-68197963D01*
X82660443Y-68204481D01*
X82594260Y-68211000D01*
X82505740Y-68211000D01*
X82439557Y-68204481D01*
X82373373Y-68197963D01*
X82260147Y-68163616D01*
X82203533Y-68146443D01*
X82047011Y-68062779D01*
X82047009Y-68062778D01*
X82011271Y-68033448D01*
X81909814Y-67950186D01*
X81826552Y-67848729D01*
X81797222Y-67812991D01*
X81732570Y-67692037D01*
X81713557Y-67656467D01*
X81691632Y-67584188D01*
X81662037Y-67486627D01*
X81644641Y-67310000D01*
X81662037Y-67133373D01*
X81713557Y-66963534D01*
X81713557Y-66963533D01*
X81797221Y-66807011D01*
X81797222Y-66807009D01*
X81830100Y-66766947D01*
X81909814Y-66669814D01*
X82019431Y-66579855D01*
X82047009Y-66557222D01*
X82064913Y-66547652D01*
X82203533Y-66473557D01*
X82260147Y-66456384D01*
X82373373Y-66422037D01*
X82439557Y-66415519D01*
X82505740Y-66409000D01*
X82594260Y-66409000D01*
X82660443Y-66415519D01*
X82660443Y-66415519D01*
G37*
G36*
X89801000Y-66941000D02*
X87999000Y-66941000D01*
X87999000Y-65139000D01*
X89801000Y-65139000D01*
X89801000Y-66941000D01*
X89801000Y-66941000D01*
G37*
G36*
X58640514Y-65313052D02*
X58640516Y-65313053D01*
X58640517Y-65313053D01*
X58778100Y-65370041D01*
X58778101Y-65370042D01*
X58901925Y-65452778D01*
X59007222Y-65558075D01*
X59007224Y-65558078D01*
X59089959Y-65681900D01*
X59146947Y-65819483D01*
X59176000Y-65965540D01*
X59176000Y-66114460D01*
X59146947Y-66260517D01*
X59089959Y-66398100D01*
X59082676Y-66409000D01*
X59007222Y-66521925D01*
X58901925Y-66627222D01*
X58901922Y-66627224D01*
X58778100Y-66709959D01*
X58640517Y-66766947D01*
X58640516Y-66766947D01*
X58640514Y-66766948D01*
X58494461Y-66796000D01*
X58345539Y-66796000D01*
X58199486Y-66766948D01*
X58199484Y-66766947D01*
X58199483Y-66766947D01*
X58061900Y-66709959D01*
X57938078Y-66627224D01*
X57938075Y-66627222D01*
X57832778Y-66521925D01*
X57757324Y-66409000D01*
X57750041Y-66398100D01*
X57693053Y-66260517D01*
X57664000Y-66114460D01*
X57664000Y-65965540D01*
X57693053Y-65819483D01*
X57750041Y-65681900D01*
X57832776Y-65558078D01*
X57832778Y-65558075D01*
X57938075Y-65452778D01*
X58061899Y-65370042D01*
X58061900Y-65370041D01*
X58199483Y-65313053D01*
X58199484Y-65313053D01*
X58199486Y-65313052D01*
X58345539Y-65284000D01*
X58494461Y-65284000D01*
X58640514Y-65313052D01*
X58640514Y-65313052D01*
G37*
G36*
X73880514Y-65313052D02*
X73880516Y-65313053D01*
X73880517Y-65313053D01*
X74018100Y-65370041D01*
X74018101Y-65370042D01*
X74141925Y-65452778D01*
X74247222Y-65558075D01*
X74247224Y-65558078D01*
X74329959Y-65681900D01*
X74386947Y-65819483D01*
X74416000Y-65965540D01*
X74416000Y-66114460D01*
X74386947Y-66260517D01*
X74329959Y-66398100D01*
X74322676Y-66409000D01*
X74247222Y-66521925D01*
X74141925Y-66627222D01*
X74141922Y-66627224D01*
X74018100Y-66709959D01*
X73880517Y-66766947D01*
X73880516Y-66766947D01*
X73880514Y-66766948D01*
X73734461Y-66796000D01*
X73585539Y-66796000D01*
X73439486Y-66766948D01*
X73439484Y-66766947D01*
X73439483Y-66766947D01*
X73301900Y-66709959D01*
X73178078Y-66627224D01*
X73178075Y-66627222D01*
X73072778Y-66521925D01*
X72997324Y-66409000D01*
X72990041Y-66398100D01*
X72933053Y-66260517D01*
X72904000Y-66114460D01*
X72904000Y-65965540D01*
X72933053Y-65819483D01*
X72990041Y-65681900D01*
X73072776Y-65558078D01*
X73072778Y-65558075D01*
X73178075Y-65452778D01*
X73301899Y-65370042D01*
X73301900Y-65370041D01*
X73439483Y-65313053D01*
X73439484Y-65313053D01*
X73439486Y-65313052D01*
X73585539Y-65284000D01*
X73734461Y-65284000D01*
X73880514Y-65313052D01*
X73880514Y-65313052D01*
G37*
G36*
X43454188Y-63866123D02*
X43625257Y-63936983D01*
X43779216Y-64039855D01*
X43910145Y-64170784D01*
X44013017Y-64324743D01*
X44083877Y-64495812D01*
X44120000Y-64677417D01*
X44120000Y-64862583D01*
X44083877Y-65044188D01*
X44013017Y-65215257D01*
X43910145Y-65369216D01*
X43779216Y-65500145D01*
X43625257Y-65603017D01*
X43454188Y-65673877D01*
X43272583Y-65710000D01*
X43087417Y-65710000D01*
X42905812Y-65673877D01*
X42734743Y-65603017D01*
X42580784Y-65500145D01*
X42449855Y-65369216D01*
X42346983Y-65215257D01*
X42276123Y-65044188D01*
X42240000Y-64862583D01*
X42240000Y-64677417D01*
X42276123Y-64495812D01*
X42346983Y-64324743D01*
X42449855Y-64170784D01*
X42580784Y-64039855D01*
X42734743Y-63936983D01*
X42905812Y-63866123D01*
X43087417Y-63830000D01*
X43272583Y-63830000D01*
X43454188Y-63866123D01*
X43454188Y-63866123D01*
G37*
G36*
X28214188Y-63866123D02*
X28385257Y-63936983D01*
X28539216Y-64039855D01*
X28670145Y-64170784D01*
X28773017Y-64324743D01*
X28843877Y-64495812D01*
X28880000Y-64677417D01*
X28880000Y-64862583D01*
X28843877Y-65044188D01*
X28773017Y-65215257D01*
X28670145Y-65369216D01*
X28539216Y-65500145D01*
X28385257Y-65603017D01*
X28214188Y-65673877D01*
X28032583Y-65710000D01*
X27847417Y-65710000D01*
X27665812Y-65673877D01*
X27494743Y-65603017D01*
X27340784Y-65500145D01*
X27209855Y-65369216D01*
X27106983Y-65215257D01*
X27036123Y-65044188D01*
X27000000Y-64862583D01*
X27000000Y-64677417D01*
X27036123Y-64495812D01*
X27106983Y-64324743D01*
X27209855Y-64170784D01*
X27340784Y-64039855D01*
X27494743Y-63936983D01*
X27665812Y-63866123D01*
X27847417Y-63830000D01*
X28032583Y-63830000D01*
X28214188Y-63866123D01*
X28214188Y-63866123D01*
G37*
G36*
X82660442Y-63875518D02*
X82726627Y-63882037D01*
X82839853Y-63916384D01*
X82896467Y-63933557D01*
X83026363Y-64002989D01*
X83052991Y-64017222D01*
X83080569Y-64039855D01*
X83190186Y-64129814D01*
X83269900Y-64226947D01*
X83302778Y-64267009D01*
X83302779Y-64267011D01*
X83386443Y-64423533D01*
X83386443Y-64423534D01*
X83437963Y-64593373D01*
X83455359Y-64770000D01*
X83437963Y-64946627D01*
X83408368Y-65044188D01*
X83386443Y-65116467D01*
X83333638Y-65215257D01*
X83302778Y-65272991D01*
X83293743Y-65284000D01*
X83190186Y-65410186D01*
X83088729Y-65493448D01*
X83052991Y-65522778D01*
X83052989Y-65522779D01*
X82896467Y-65606443D01*
X82839853Y-65623616D01*
X82726627Y-65657963D01*
X82660442Y-65664482D01*
X82594260Y-65671000D01*
X82505740Y-65671000D01*
X82439558Y-65664482D01*
X82373373Y-65657963D01*
X82260147Y-65623616D01*
X82203533Y-65606443D01*
X82047011Y-65522779D01*
X82047009Y-65522778D01*
X82011271Y-65493448D01*
X81909814Y-65410186D01*
X81806257Y-65284000D01*
X81797222Y-65272991D01*
X81766362Y-65215257D01*
X81713557Y-65116467D01*
X81691632Y-65044188D01*
X81662037Y-64946627D01*
X81644641Y-64770000D01*
X81662037Y-64593373D01*
X81713557Y-64423534D01*
X81713557Y-64423533D01*
X81797221Y-64267011D01*
X81797222Y-64267009D01*
X81830100Y-64226947D01*
X81909814Y-64129814D01*
X82019431Y-64039855D01*
X82047009Y-64017222D01*
X82073637Y-64002989D01*
X82203533Y-63933557D01*
X82260147Y-63916384D01*
X82373373Y-63882037D01*
X82439558Y-63875518D01*
X82505740Y-63869000D01*
X82594260Y-63869000D01*
X82660442Y-63875518D01*
X82660442Y-63875518D01*
G37*
G36*
X80911000Y-65671000D02*
X79109000Y-65671000D01*
X79109000Y-63869000D01*
X80911000Y-63869000D01*
X80911000Y-65671000D01*
X80911000Y-65671000D01*
G37*
G36*
X89010442Y-62605518D02*
X89076627Y-62612037D01*
X89189853Y-62646384D01*
X89246467Y-62663557D01*
X89385087Y-62737652D01*
X89402991Y-62747222D01*
X89434465Y-62773052D01*
X89540186Y-62859814D01*
X89622524Y-62960145D01*
X89652778Y-62997009D01*
X89652779Y-62997011D01*
X89736443Y-63153533D01*
X89736443Y-63153534D01*
X89787963Y-63323373D01*
X89805359Y-63500000D01*
X89787963Y-63676627D01*
X89774650Y-63720514D01*
X89736443Y-63846467D01*
X89717430Y-63882037D01*
X89652778Y-64002991D01*
X89623448Y-64038729D01*
X89540186Y-64140186D01*
X89438729Y-64223448D01*
X89402991Y-64252778D01*
X89402989Y-64252779D01*
X89246467Y-64336443D01*
X89189853Y-64353616D01*
X89076627Y-64387963D01*
X89010442Y-64394482D01*
X88944260Y-64401000D01*
X88855740Y-64401000D01*
X88789558Y-64394482D01*
X88723373Y-64387963D01*
X88610147Y-64353616D01*
X88553533Y-64336443D01*
X88397011Y-64252779D01*
X88397009Y-64252778D01*
X88361271Y-64223448D01*
X88259814Y-64140186D01*
X88176552Y-64038729D01*
X88147222Y-64002991D01*
X88082570Y-63882037D01*
X88063557Y-63846467D01*
X88025350Y-63720514D01*
X88012037Y-63676627D01*
X87994641Y-63500000D01*
X88012037Y-63323373D01*
X88063557Y-63153534D01*
X88063557Y-63153533D01*
X88147221Y-62997011D01*
X88147222Y-62997009D01*
X88177476Y-62960145D01*
X88259814Y-62859814D01*
X88365535Y-62773052D01*
X88397009Y-62747222D01*
X88414913Y-62737652D01*
X88553533Y-62663557D01*
X88610147Y-62646384D01*
X88723373Y-62612037D01*
X88789558Y-62605518D01*
X88855740Y-62599000D01*
X88944260Y-62599000D01*
X89010442Y-62605518D01*
X89010442Y-62605518D01*
G37*
G36*
X73880514Y-62773052D02*
X73880516Y-62773053D01*
X73880517Y-62773053D01*
X74018100Y-62830041D01*
X74062660Y-62859815D01*
X74141925Y-62912778D01*
X74247222Y-63018075D01*
X74247224Y-63018078D01*
X74329959Y-63141900D01*
X74341598Y-63170000D01*
X74386948Y-63279486D01*
X74416000Y-63425539D01*
X74416000Y-63574461D01*
X74395678Y-63676627D01*
X74386947Y-63720517D01*
X74329959Y-63858100D01*
X74322676Y-63869000D01*
X74247222Y-63981925D01*
X74141925Y-64087222D01*
X74141922Y-64087224D01*
X74018100Y-64169959D01*
X73880517Y-64226947D01*
X73880516Y-64226947D01*
X73880514Y-64226948D01*
X73734461Y-64256000D01*
X73585539Y-64256000D01*
X73439486Y-64226948D01*
X73439484Y-64226947D01*
X73439483Y-64226947D01*
X73301900Y-64169959D01*
X73178078Y-64087224D01*
X73178075Y-64087222D01*
X73072778Y-63981925D01*
X72997324Y-63869000D01*
X72990041Y-63858100D01*
X72933053Y-63720517D01*
X72924323Y-63676627D01*
X72904000Y-63574461D01*
X72904000Y-63425539D01*
X72933052Y-63279486D01*
X72978402Y-63170000D01*
X72990041Y-63141900D01*
X73072776Y-63018078D01*
X73072778Y-63018075D01*
X73178075Y-62912778D01*
X73257340Y-62859815D01*
X73301900Y-62830041D01*
X73439483Y-62773053D01*
X73439484Y-62773053D01*
X73439486Y-62773052D01*
X73585539Y-62744000D01*
X73734461Y-62744000D01*
X73880514Y-62773052D01*
X73880514Y-62773052D01*
G37*
G36*
X58640514Y-62773052D02*
X58640516Y-62773053D01*
X58640517Y-62773053D01*
X58778100Y-62830041D01*
X58822660Y-62859815D01*
X58901925Y-62912778D01*
X59007222Y-63018075D01*
X59007224Y-63018078D01*
X59089959Y-63141900D01*
X59101598Y-63170000D01*
X59146948Y-63279486D01*
X59176000Y-63425539D01*
X59176000Y-63574461D01*
X59155678Y-63676627D01*
X59146947Y-63720517D01*
X59089959Y-63858100D01*
X59082676Y-63869000D01*
X59007222Y-63981925D01*
X58901925Y-64087222D01*
X58901922Y-64087224D01*
X58778100Y-64169959D01*
X58640517Y-64226947D01*
X58640516Y-64226947D01*
X58640514Y-64226948D01*
X58494461Y-64256000D01*
X58345539Y-64256000D01*
X58199486Y-64226948D01*
X58199484Y-64226947D01*
X58199483Y-64226947D01*
X58061900Y-64169959D01*
X57938078Y-64087224D01*
X57938075Y-64087222D01*
X57832778Y-63981925D01*
X57757324Y-63869000D01*
X57750041Y-63858100D01*
X57693053Y-63720517D01*
X57684323Y-63676627D01*
X57664000Y-63574461D01*
X57664000Y-63425539D01*
X57693052Y-63279486D01*
X57738402Y-63170000D01*
X57750041Y-63141900D01*
X57832776Y-63018078D01*
X57832778Y-63018075D01*
X57938075Y-62912778D01*
X58017340Y-62859815D01*
X58061900Y-62830041D01*
X58199483Y-62773053D01*
X58199484Y-62773053D01*
X58199486Y-62773052D01*
X58345539Y-62744000D01*
X58494461Y-62744000D01*
X58640514Y-62773052D01*
X58640514Y-62773052D01*
G37*
G36*
X28214188Y-61326123D02*
X28385257Y-61396983D01*
X28539216Y-61499855D01*
X28670145Y-61630784D01*
X28773017Y-61784743D01*
X28843877Y-61955812D01*
X28880000Y-62137417D01*
X28880000Y-62322583D01*
X28843877Y-62504188D01*
X28773017Y-62675257D01*
X28670145Y-62829216D01*
X28539216Y-62960145D01*
X28385257Y-63063017D01*
X28214188Y-63133877D01*
X28032583Y-63170000D01*
X27847417Y-63170000D01*
X27665812Y-63133877D01*
X27494743Y-63063017D01*
X27340784Y-62960145D01*
X27209855Y-62829216D01*
X27106983Y-62675257D01*
X27036123Y-62504188D01*
X27000000Y-62322583D01*
X27000000Y-62137417D01*
X27036123Y-61955812D01*
X27106983Y-61784743D01*
X27209855Y-61630784D01*
X27340784Y-61499855D01*
X27494743Y-61396983D01*
X27665812Y-61326123D01*
X27847417Y-61290000D01*
X28032583Y-61290000D01*
X28214188Y-61326123D01*
X28214188Y-61326123D01*
G37*
G36*
X43454188Y-61326123D02*
X43625257Y-61396983D01*
X43779216Y-61499855D01*
X43910145Y-61630784D01*
X44013017Y-61784743D01*
X44083877Y-61955812D01*
X44120000Y-62137417D01*
X44120000Y-62322583D01*
X44083877Y-62504188D01*
X44013017Y-62675257D01*
X43910145Y-62829216D01*
X43779216Y-62960145D01*
X43625257Y-63063017D01*
X43454188Y-63133877D01*
X43272583Y-63170000D01*
X43087417Y-63170000D01*
X42905812Y-63133877D01*
X42734743Y-63063017D01*
X42580784Y-62960145D01*
X42449855Y-62829216D01*
X42346983Y-62675257D01*
X42276123Y-62504188D01*
X42240000Y-62322583D01*
X42240000Y-62137417D01*
X42276123Y-61955812D01*
X42346983Y-61784743D01*
X42449855Y-61630784D01*
X42580784Y-61499855D01*
X42734743Y-61396983D01*
X42905812Y-61326123D01*
X43087417Y-61290000D01*
X43272583Y-61290000D01*
X43454188Y-61326123D01*
X43454188Y-61326123D01*
G37*
G36*
X89010442Y-60065518D02*
X89076627Y-60072037D01*
X89189853Y-60106384D01*
X89246467Y-60123557D01*
X89385087Y-60197652D01*
X89402991Y-60207222D01*
X89434465Y-60233052D01*
X89540186Y-60319814D01*
X89622524Y-60420145D01*
X89652778Y-60457009D01*
X89652779Y-60457011D01*
X89736443Y-60613533D01*
X89736443Y-60613534D01*
X89787963Y-60783373D01*
X89805359Y-60960000D01*
X89787963Y-61136627D01*
X89774650Y-61180514D01*
X89736443Y-61306467D01*
X89688060Y-61396983D01*
X89652778Y-61462991D01*
X89623448Y-61498729D01*
X89540186Y-61600186D01*
X89438729Y-61683448D01*
X89402991Y-61712778D01*
X89402989Y-61712779D01*
X89246467Y-61796443D01*
X89189853Y-61813616D01*
X89076627Y-61847963D01*
X89010443Y-61854481D01*
X88944260Y-61861000D01*
X88855740Y-61861000D01*
X88789557Y-61854481D01*
X88723373Y-61847963D01*
X88610147Y-61813616D01*
X88553533Y-61796443D01*
X88397011Y-61712779D01*
X88397009Y-61712778D01*
X88361271Y-61683448D01*
X88259814Y-61600186D01*
X88176552Y-61498729D01*
X88147222Y-61462991D01*
X88111940Y-61396983D01*
X88063557Y-61306467D01*
X88025350Y-61180514D01*
X88012037Y-61136627D01*
X87994641Y-60960000D01*
X88012037Y-60783373D01*
X88063557Y-60613534D01*
X88063557Y-60613533D01*
X88147221Y-60457011D01*
X88147222Y-60457009D01*
X88177476Y-60420145D01*
X88259814Y-60319814D01*
X88365535Y-60233052D01*
X88397009Y-60207222D01*
X88414913Y-60197652D01*
X88553533Y-60123557D01*
X88610147Y-60106384D01*
X88723373Y-60072037D01*
X88789558Y-60065518D01*
X88855740Y-60059000D01*
X88944260Y-60059000D01*
X89010442Y-60065518D01*
X89010442Y-60065518D01*
G37*
G36*
X58640514Y-60233052D02*
X58640516Y-60233053D01*
X58640517Y-60233053D01*
X58778100Y-60290041D01*
X58822660Y-60319815D01*
X58901925Y-60372778D01*
X59007222Y-60478075D01*
X59007224Y-60478078D01*
X59089959Y-60601900D01*
X59101598Y-60630000D01*
X59146948Y-60739486D01*
X59176000Y-60885539D01*
X59176000Y-61034461D01*
X59155678Y-61136627D01*
X59146947Y-61180517D01*
X59089959Y-61318100D01*
X59037251Y-61396983D01*
X59007222Y-61441925D01*
X58901925Y-61547222D01*
X58901922Y-61547224D01*
X58778100Y-61629959D01*
X58640517Y-61686947D01*
X58640516Y-61686947D01*
X58640514Y-61686948D01*
X58494461Y-61716000D01*
X58345539Y-61716000D01*
X58199486Y-61686948D01*
X58199484Y-61686947D01*
X58199483Y-61686947D01*
X58061900Y-61629959D01*
X57938078Y-61547224D01*
X57938075Y-61547222D01*
X57832778Y-61441925D01*
X57802749Y-61396983D01*
X57750041Y-61318100D01*
X57693053Y-61180517D01*
X57684323Y-61136627D01*
X57664000Y-61034461D01*
X57664000Y-60885539D01*
X57693052Y-60739486D01*
X57738402Y-60630000D01*
X57750041Y-60601900D01*
X57832776Y-60478078D01*
X57832778Y-60478075D01*
X57938075Y-60372778D01*
X58017340Y-60319815D01*
X58061900Y-60290041D01*
X58199483Y-60233053D01*
X58199484Y-60233053D01*
X58199486Y-60233052D01*
X58345539Y-60204000D01*
X58494461Y-60204000D01*
X58640514Y-60233052D01*
X58640514Y-60233052D01*
G37*
G36*
X73880514Y-60233052D02*
X73880516Y-60233053D01*
X73880517Y-60233053D01*
X74018100Y-60290041D01*
X74062660Y-60319815D01*
X74141925Y-60372778D01*
X74247222Y-60478075D01*
X74247224Y-60478078D01*
X74329959Y-60601900D01*
X74341598Y-60630000D01*
X74386948Y-60739486D01*
X74416000Y-60885539D01*
X74416000Y-61034461D01*
X74395678Y-61136627D01*
X74386947Y-61180517D01*
X74329959Y-61318100D01*
X74277251Y-61396983D01*
X74247222Y-61441925D01*
X74141925Y-61547222D01*
X74141922Y-61547224D01*
X74018100Y-61629959D01*
X73880517Y-61686947D01*
X73880516Y-61686947D01*
X73880514Y-61686948D01*
X73734461Y-61716000D01*
X73585539Y-61716000D01*
X73439486Y-61686948D01*
X73439484Y-61686947D01*
X73439483Y-61686947D01*
X73301900Y-61629959D01*
X73178078Y-61547224D01*
X73178075Y-61547222D01*
X73072778Y-61441925D01*
X73042749Y-61396983D01*
X72990041Y-61318100D01*
X72933053Y-61180517D01*
X72924323Y-61136627D01*
X72904000Y-61034461D01*
X72904000Y-60885539D01*
X72933052Y-60739486D01*
X72978402Y-60630000D01*
X72990041Y-60601900D01*
X73072776Y-60478078D01*
X73072778Y-60478075D01*
X73178075Y-60372778D01*
X73257340Y-60319815D01*
X73301900Y-60290041D01*
X73439483Y-60233053D01*
X73439484Y-60233053D01*
X73439486Y-60233052D01*
X73585539Y-60204000D01*
X73734461Y-60204000D01*
X73880514Y-60233052D01*
X73880514Y-60233052D01*
G37*
G36*
X28214188Y-58786123D02*
X28385257Y-58856983D01*
X28539216Y-58959855D01*
X28670145Y-59090784D01*
X28773017Y-59244743D01*
X28843877Y-59415812D01*
X28880000Y-59597417D01*
X28880000Y-59782583D01*
X28843877Y-59964188D01*
X28773017Y-60135257D01*
X28670145Y-60289216D01*
X28539216Y-60420145D01*
X28385257Y-60523017D01*
X28214188Y-60593877D01*
X28032583Y-60630000D01*
X27847417Y-60630000D01*
X27665812Y-60593877D01*
X27494743Y-60523017D01*
X27340784Y-60420145D01*
X27209855Y-60289216D01*
X27106983Y-60135257D01*
X27036123Y-59964188D01*
X27000000Y-59782583D01*
X27000000Y-59597417D01*
X27036123Y-59415812D01*
X27106983Y-59244743D01*
X27209855Y-59090784D01*
X27340784Y-58959855D01*
X27494743Y-58856983D01*
X27665812Y-58786123D01*
X27847417Y-58750000D01*
X28032583Y-58750000D01*
X28214188Y-58786123D01*
X28214188Y-58786123D01*
G37*
G36*
X43454188Y-58786123D02*
X43625257Y-58856983D01*
X43779216Y-58959855D01*
X43910145Y-59090784D01*
X44013017Y-59244743D01*
X44083877Y-59415812D01*
X44120000Y-59597417D01*
X44120000Y-59782583D01*
X44083877Y-59964188D01*
X44013017Y-60135257D01*
X43910145Y-60289216D01*
X43779216Y-60420145D01*
X43625257Y-60523017D01*
X43454188Y-60593877D01*
X43272583Y-60630000D01*
X43087417Y-60630000D01*
X42905812Y-60593877D01*
X42734743Y-60523017D01*
X42580784Y-60420145D01*
X42449855Y-60289216D01*
X42346983Y-60135257D01*
X42276123Y-59964188D01*
X42240000Y-59782583D01*
X42240000Y-59597417D01*
X42276123Y-59415812D01*
X42346983Y-59244743D01*
X42449855Y-59090784D01*
X42580784Y-58959855D01*
X42734743Y-58856983D01*
X42905812Y-58786123D01*
X43087417Y-58750000D01*
X43272583Y-58750000D01*
X43454188Y-58786123D01*
X43454188Y-58786123D01*
G37*
G36*
X89801000Y-59321000D02*
X87999000Y-59321000D01*
X87999000Y-57519000D01*
X89801000Y-57519000D01*
X89801000Y-59321000D01*
X89801000Y-59321000D01*
G37*
G36*
X73880514Y-57693052D02*
X73880516Y-57693053D01*
X73880517Y-57693053D01*
X74018100Y-57750041D01*
X74018101Y-57750042D01*
X74141925Y-57832778D01*
X74247222Y-57938075D01*
X74247224Y-57938078D01*
X74329959Y-58061900D01*
X74386947Y-58199483D01*
X74416000Y-58345540D01*
X74416000Y-58494460D01*
X74386947Y-58640517D01*
X74329959Y-58778100D01*
X74277251Y-58856983D01*
X74247222Y-58901925D01*
X74141925Y-59007222D01*
X74141922Y-59007224D01*
X74018100Y-59089959D01*
X73880517Y-59146947D01*
X73880516Y-59146947D01*
X73880514Y-59146948D01*
X73734461Y-59176000D01*
X73585539Y-59176000D01*
X73439486Y-59146948D01*
X73439484Y-59146947D01*
X73439483Y-59146947D01*
X73301900Y-59089959D01*
X73178078Y-59007224D01*
X73178075Y-59007222D01*
X73072778Y-58901925D01*
X73042749Y-58856983D01*
X72990041Y-58778100D01*
X72933053Y-58640517D01*
X72904000Y-58494460D01*
X72904000Y-58345540D01*
X72933053Y-58199483D01*
X72990041Y-58061900D01*
X73072776Y-57938078D01*
X73072778Y-57938075D01*
X73178075Y-57832778D01*
X73301899Y-57750042D01*
X73301900Y-57750041D01*
X73439483Y-57693053D01*
X73439484Y-57693053D01*
X73439486Y-57693052D01*
X73585539Y-57664000D01*
X73734461Y-57664000D01*
X73880514Y-57693052D01*
X73880514Y-57693052D01*
G37*
G36*
X58640514Y-57693052D02*
X58640516Y-57693053D01*
X58640517Y-57693053D01*
X58778100Y-57750041D01*
X58778101Y-57750042D01*
X58901925Y-57832778D01*
X59007222Y-57938075D01*
X59007224Y-57938078D01*
X59089959Y-58061900D01*
X59146947Y-58199483D01*
X59176000Y-58345540D01*
X59176000Y-58494460D01*
X59146947Y-58640517D01*
X59089959Y-58778100D01*
X59037251Y-58856983D01*
X59007222Y-58901925D01*
X58901925Y-59007222D01*
X58901922Y-59007224D01*
X58778100Y-59089959D01*
X58640517Y-59146947D01*
X58640516Y-59146947D01*
X58640514Y-59146948D01*
X58494461Y-59176000D01*
X58345539Y-59176000D01*
X58199486Y-59146948D01*
X58199484Y-59146947D01*
X58199483Y-59146947D01*
X58061900Y-59089959D01*
X57938078Y-59007224D01*
X57938075Y-59007222D01*
X57832778Y-58901925D01*
X57802749Y-58856983D01*
X57750041Y-58778100D01*
X57693053Y-58640517D01*
X57664000Y-58494460D01*
X57664000Y-58345540D01*
X57693053Y-58199483D01*
X57750041Y-58061900D01*
X57832776Y-57938078D01*
X57832778Y-57938075D01*
X57938075Y-57832778D01*
X58061899Y-57750042D01*
X58061900Y-57750041D01*
X58199483Y-57693053D01*
X58199484Y-57693053D01*
X58199486Y-57693052D01*
X58345539Y-57664000D01*
X58494461Y-57664000D01*
X58640514Y-57693052D01*
X58640514Y-57693052D01*
G37*
G36*
X43454188Y-56246123D02*
X43625257Y-56316983D01*
X43779216Y-56419855D01*
X43910145Y-56550784D01*
X44013017Y-56704743D01*
X44083877Y-56875812D01*
X44120000Y-57057417D01*
X44120000Y-57242583D01*
X44083877Y-57424188D01*
X44013017Y-57595257D01*
X43910145Y-57749216D01*
X43779216Y-57880145D01*
X43625257Y-57983017D01*
X43454188Y-58053877D01*
X43272583Y-58090000D01*
X43087417Y-58090000D01*
X42905812Y-58053877D01*
X42734743Y-57983017D01*
X42580784Y-57880145D01*
X42449855Y-57749216D01*
X42346983Y-57595257D01*
X42276123Y-57424188D01*
X42240000Y-57242583D01*
X42240000Y-57057417D01*
X42276123Y-56875812D01*
X42346983Y-56704743D01*
X42449855Y-56550784D01*
X42580784Y-56419855D01*
X42734743Y-56316983D01*
X42905812Y-56246123D01*
X43087417Y-56210000D01*
X43272583Y-56210000D01*
X43454188Y-56246123D01*
X43454188Y-56246123D01*
G37*
G36*
X28214188Y-56246123D02*
X28385257Y-56316983D01*
X28539216Y-56419855D01*
X28670145Y-56550784D01*
X28773017Y-56704743D01*
X28843877Y-56875812D01*
X28880000Y-57057417D01*
X28880000Y-57242583D01*
X28843877Y-57424188D01*
X28773017Y-57595257D01*
X28670145Y-57749216D01*
X28539216Y-57880145D01*
X28385257Y-57983017D01*
X28214188Y-58053877D01*
X28032583Y-58090000D01*
X27847417Y-58090000D01*
X27665812Y-58053877D01*
X27494743Y-57983017D01*
X27340784Y-57880145D01*
X27209855Y-57749216D01*
X27106983Y-57595257D01*
X27036123Y-57424188D01*
X27000000Y-57242583D01*
X27000000Y-57057417D01*
X27036123Y-56875812D01*
X27106983Y-56704743D01*
X27209855Y-56550784D01*
X27340784Y-56419855D01*
X27494743Y-56316983D01*
X27665812Y-56246123D01*
X27847417Y-56210000D01*
X28032583Y-56210000D01*
X28214188Y-56246123D01*
X28214188Y-56246123D01*
G37*
G36*
X89010443Y-54985519D02*
X89076627Y-54992037D01*
X89189853Y-55026384D01*
X89246467Y-55043557D01*
X89385087Y-55117652D01*
X89402991Y-55127222D01*
X89434465Y-55153052D01*
X89540186Y-55239814D01*
X89622524Y-55340145D01*
X89652778Y-55377009D01*
X89652779Y-55377011D01*
X89736443Y-55533533D01*
X89736443Y-55533534D01*
X89787963Y-55703373D01*
X89805359Y-55880000D01*
X89787963Y-56056627D01*
X89774650Y-56100514D01*
X89736443Y-56226467D01*
X89688060Y-56316983D01*
X89652778Y-56382991D01*
X89623448Y-56418729D01*
X89540186Y-56520186D01*
X89438729Y-56603448D01*
X89402991Y-56632778D01*
X89402989Y-56632779D01*
X89246467Y-56716443D01*
X89189853Y-56733616D01*
X89076627Y-56767963D01*
X89010443Y-56774481D01*
X88944260Y-56781000D01*
X88855740Y-56781000D01*
X88789557Y-56774481D01*
X88723373Y-56767963D01*
X88610147Y-56733616D01*
X88553533Y-56716443D01*
X88397011Y-56632779D01*
X88397009Y-56632778D01*
X88361271Y-56603448D01*
X88259814Y-56520186D01*
X88176552Y-56418729D01*
X88147222Y-56382991D01*
X88111940Y-56316983D01*
X88063557Y-56226467D01*
X88025350Y-56100514D01*
X88012037Y-56056627D01*
X87994641Y-55880000D01*
X88012037Y-55703373D01*
X88063557Y-55533534D01*
X88063557Y-55533533D01*
X88147221Y-55377011D01*
X88147222Y-55377009D01*
X88177476Y-55340145D01*
X88259814Y-55239814D01*
X88365535Y-55153052D01*
X88397009Y-55127222D01*
X88414913Y-55117652D01*
X88553533Y-55043557D01*
X88610147Y-55026384D01*
X88723373Y-54992037D01*
X88789557Y-54985519D01*
X88855740Y-54979000D01*
X88944260Y-54979000D01*
X89010443Y-54985519D01*
X89010443Y-54985519D01*
G37*
G36*
X58640514Y-55153052D02*
X58640516Y-55153053D01*
X58640517Y-55153053D01*
X58778100Y-55210041D01*
X58822660Y-55239815D01*
X58901925Y-55292778D01*
X59007222Y-55398075D01*
X59007224Y-55398078D01*
X59089959Y-55521900D01*
X59101598Y-55550000D01*
X59146948Y-55659486D01*
X59176000Y-55805539D01*
X59176000Y-55954461D01*
X59155678Y-56056627D01*
X59146947Y-56100517D01*
X59089959Y-56238100D01*
X59037251Y-56316983D01*
X59007222Y-56361925D01*
X58901925Y-56467222D01*
X58901922Y-56467224D01*
X58778100Y-56549959D01*
X58640517Y-56606947D01*
X58640516Y-56606947D01*
X58640514Y-56606948D01*
X58494461Y-56636000D01*
X58345539Y-56636000D01*
X58199486Y-56606948D01*
X58199484Y-56606947D01*
X58199483Y-56606947D01*
X58061900Y-56549959D01*
X57938078Y-56467224D01*
X57938075Y-56467222D01*
X57832778Y-56361925D01*
X57802749Y-56316983D01*
X57750041Y-56238100D01*
X57693053Y-56100517D01*
X57684323Y-56056627D01*
X57664000Y-55954461D01*
X57664000Y-55805539D01*
X57693052Y-55659486D01*
X57738402Y-55550000D01*
X57750041Y-55521900D01*
X57832776Y-55398078D01*
X57832778Y-55398075D01*
X57938075Y-55292778D01*
X58017340Y-55239815D01*
X58061900Y-55210041D01*
X58199483Y-55153053D01*
X58199484Y-55153053D01*
X58199486Y-55153052D01*
X58345539Y-55124000D01*
X58494461Y-55124000D01*
X58640514Y-55153052D01*
X58640514Y-55153052D01*
G37*
G36*
X73880514Y-55153052D02*
X73880516Y-55153053D01*
X73880517Y-55153053D01*
X74018100Y-55210041D01*
X74062660Y-55239815D01*
X74141925Y-55292778D01*
X74247222Y-55398075D01*
X74247224Y-55398078D01*
X74329959Y-55521900D01*
X74341598Y-55550000D01*
X74386948Y-55659486D01*
X74416000Y-55805539D01*
X74416000Y-55954461D01*
X74395678Y-56056627D01*
X74386947Y-56100517D01*
X74329959Y-56238100D01*
X74277251Y-56316983D01*
X74247222Y-56361925D01*
X74141925Y-56467222D01*
X74141922Y-56467224D01*
X74018100Y-56549959D01*
X73880517Y-56606947D01*
X73880516Y-56606947D01*
X73880514Y-56606948D01*
X73734461Y-56636000D01*
X73585539Y-56636000D01*
X73439486Y-56606948D01*
X73439484Y-56606947D01*
X73439483Y-56606947D01*
X73301900Y-56549959D01*
X73178078Y-56467224D01*
X73178075Y-56467222D01*
X73072778Y-56361925D01*
X73042749Y-56316983D01*
X72990041Y-56238100D01*
X72933053Y-56100517D01*
X72924323Y-56056627D01*
X72904000Y-55954461D01*
X72904000Y-55805539D01*
X72933052Y-55659486D01*
X72978402Y-55550000D01*
X72990041Y-55521900D01*
X73072776Y-55398078D01*
X73072778Y-55398075D01*
X73178075Y-55292778D01*
X73257340Y-55239815D01*
X73301900Y-55210041D01*
X73439483Y-55153053D01*
X73439484Y-55153053D01*
X73439486Y-55153052D01*
X73585539Y-55124000D01*
X73734461Y-55124000D01*
X73880514Y-55153052D01*
X73880514Y-55153052D01*
G37*
G36*
X28214188Y-53706123D02*
X28385257Y-53776983D01*
X28539216Y-53879855D01*
X28670145Y-54010784D01*
X28773017Y-54164743D01*
X28843877Y-54335812D01*
X28880000Y-54517417D01*
X28880000Y-54702583D01*
X28843877Y-54884188D01*
X28773017Y-55055257D01*
X28670145Y-55209216D01*
X28539216Y-55340145D01*
X28385257Y-55443017D01*
X28214188Y-55513877D01*
X28032583Y-55550000D01*
X27847417Y-55550000D01*
X27665812Y-55513877D01*
X27494743Y-55443017D01*
X27340784Y-55340145D01*
X27209855Y-55209216D01*
X27106983Y-55055257D01*
X27036123Y-54884188D01*
X27000000Y-54702583D01*
X27000000Y-54517417D01*
X27036123Y-54335812D01*
X27106983Y-54164743D01*
X27209855Y-54010784D01*
X27340784Y-53879855D01*
X27494743Y-53776983D01*
X27665812Y-53706123D01*
X27847417Y-53670000D01*
X28032583Y-53670000D01*
X28214188Y-53706123D01*
X28214188Y-53706123D01*
G37*
G36*
X43454188Y-53706123D02*
X43625257Y-53776983D01*
X43779216Y-53879855D01*
X43910145Y-54010784D01*
X44013017Y-54164743D01*
X44083877Y-54335812D01*
X44120000Y-54517417D01*
X44120000Y-54702583D01*
X44083877Y-54884188D01*
X44013017Y-55055257D01*
X43910145Y-55209216D01*
X43779216Y-55340145D01*
X43625257Y-55443017D01*
X43454188Y-55513877D01*
X43272583Y-55550000D01*
X43087417Y-55550000D01*
X42905812Y-55513877D01*
X42734743Y-55443017D01*
X42580784Y-55340145D01*
X42449855Y-55209216D01*
X42346983Y-55055257D01*
X42276123Y-54884188D01*
X42240000Y-54702583D01*
X42240000Y-54517417D01*
X42276123Y-54335812D01*
X42346983Y-54164743D01*
X42449855Y-54010784D01*
X42580784Y-53879855D01*
X42734743Y-53776983D01*
X42905812Y-53706123D01*
X43087417Y-53670000D01*
X43272583Y-53670000D01*
X43454188Y-53706123D01*
X43454188Y-53706123D01*
G37*
G36*
X89010443Y-52445519D02*
X89076627Y-52452037D01*
X89189853Y-52486384D01*
X89246467Y-52503557D01*
X89385087Y-52577652D01*
X89402991Y-52587222D01*
X89434465Y-52613052D01*
X89540186Y-52699814D01*
X89622524Y-52800145D01*
X89652778Y-52837009D01*
X89652779Y-52837011D01*
X89736443Y-52993533D01*
X89736443Y-52993534D01*
X89787963Y-53163373D01*
X89805359Y-53340000D01*
X89787963Y-53516627D01*
X89774650Y-53560514D01*
X89736443Y-53686467D01*
X89688060Y-53776983D01*
X89652778Y-53842991D01*
X89623448Y-53878729D01*
X89540186Y-53980186D01*
X89438729Y-54063448D01*
X89402991Y-54092778D01*
X89402989Y-54092779D01*
X89246467Y-54176443D01*
X89189853Y-54193616D01*
X89076627Y-54227963D01*
X89010442Y-54234482D01*
X88944260Y-54241000D01*
X88855740Y-54241000D01*
X88789558Y-54234482D01*
X88723373Y-54227963D01*
X88610147Y-54193616D01*
X88553533Y-54176443D01*
X88397011Y-54092779D01*
X88397009Y-54092778D01*
X88361271Y-54063448D01*
X88259814Y-53980186D01*
X88176552Y-53878729D01*
X88147222Y-53842991D01*
X88111940Y-53776983D01*
X88063557Y-53686467D01*
X88025350Y-53560514D01*
X88012037Y-53516627D01*
X87994641Y-53340000D01*
X88012037Y-53163373D01*
X88063557Y-52993534D01*
X88063557Y-52993533D01*
X88147221Y-52837011D01*
X88147222Y-52837009D01*
X88177476Y-52800145D01*
X88259814Y-52699814D01*
X88365535Y-52613052D01*
X88397009Y-52587222D01*
X88414913Y-52577652D01*
X88553533Y-52503557D01*
X88610147Y-52486384D01*
X88723373Y-52452037D01*
X88789558Y-52445518D01*
X88855740Y-52439000D01*
X88944260Y-52439000D01*
X89010443Y-52445519D01*
X89010443Y-52445519D01*
G37*
G36*
X73880514Y-52613052D02*
X73880516Y-52613053D01*
X73880517Y-52613053D01*
X74018100Y-52670041D01*
X74062660Y-52699815D01*
X74141925Y-52752778D01*
X74247222Y-52858075D01*
X74247224Y-52858078D01*
X74329959Y-52981900D01*
X74341598Y-53010000D01*
X74386948Y-53119486D01*
X74416000Y-53265539D01*
X74416000Y-53414461D01*
X74395678Y-53516627D01*
X74386947Y-53560517D01*
X74329959Y-53698100D01*
X74277251Y-53776983D01*
X74247222Y-53821925D01*
X74141925Y-53927222D01*
X74141922Y-53927224D01*
X74018100Y-54009959D01*
X73880517Y-54066947D01*
X73880516Y-54066947D01*
X73880514Y-54066948D01*
X73734461Y-54096000D01*
X73585539Y-54096000D01*
X73439486Y-54066948D01*
X73439484Y-54066947D01*
X73439483Y-54066947D01*
X73301900Y-54009959D01*
X73178078Y-53927224D01*
X73178075Y-53927222D01*
X73072778Y-53821925D01*
X73042749Y-53776983D01*
X72990041Y-53698100D01*
X72933053Y-53560517D01*
X72924323Y-53516627D01*
X72904000Y-53414461D01*
X72904000Y-53265539D01*
X72933052Y-53119486D01*
X72978402Y-53010000D01*
X72990041Y-52981900D01*
X73072776Y-52858078D01*
X73072778Y-52858075D01*
X73178075Y-52752778D01*
X73257340Y-52699815D01*
X73301900Y-52670041D01*
X73439483Y-52613053D01*
X73439484Y-52613053D01*
X73439486Y-52613052D01*
X73585539Y-52584000D01*
X73734461Y-52584000D01*
X73880514Y-52613052D01*
X73880514Y-52613052D01*
G37*
G36*
X58640514Y-52613052D02*
X58640516Y-52613053D01*
X58640517Y-52613053D01*
X58778100Y-52670041D01*
X58822660Y-52699815D01*
X58901925Y-52752778D01*
X59007222Y-52858075D01*
X59007224Y-52858078D01*
X59089959Y-52981900D01*
X59101598Y-53010000D01*
X59146948Y-53119486D01*
X59176000Y-53265539D01*
X59176000Y-53414461D01*
X59155678Y-53516627D01*
X59146947Y-53560517D01*
X59089959Y-53698100D01*
X59037251Y-53776983D01*
X59007222Y-53821925D01*
X58901925Y-53927222D01*
X58901922Y-53927224D01*
X58778100Y-54009959D01*
X58640517Y-54066947D01*
X58640516Y-54066947D01*
X58640514Y-54066948D01*
X58494461Y-54096000D01*
X58345539Y-54096000D01*
X58199486Y-54066948D01*
X58199484Y-54066947D01*
X58199483Y-54066947D01*
X58061900Y-54009959D01*
X57938078Y-53927224D01*
X57938075Y-53927222D01*
X57832778Y-53821925D01*
X57802749Y-53776983D01*
X57750041Y-53698100D01*
X57693053Y-53560517D01*
X57684323Y-53516627D01*
X57664000Y-53414461D01*
X57664000Y-53265539D01*
X57693052Y-53119486D01*
X57738402Y-53010000D01*
X57750041Y-52981900D01*
X57832776Y-52858078D01*
X57832778Y-52858075D01*
X57938075Y-52752778D01*
X58017340Y-52699815D01*
X58061900Y-52670041D01*
X58199483Y-52613053D01*
X58199484Y-52613053D01*
X58199486Y-52613052D01*
X58345539Y-52584000D01*
X58494461Y-52584000D01*
X58640514Y-52613052D01*
X58640514Y-52613052D01*
G37*
G36*
X28214188Y-51166123D02*
X28385257Y-51236983D01*
X28539216Y-51339855D01*
X28670145Y-51470784D01*
X28773017Y-51624743D01*
X28843877Y-51795812D01*
X28880000Y-51977417D01*
X28880000Y-52162583D01*
X28843877Y-52344188D01*
X28773017Y-52515257D01*
X28670145Y-52669216D01*
X28539216Y-52800145D01*
X28385257Y-52903017D01*
X28214188Y-52973877D01*
X28032583Y-53010000D01*
X27847417Y-53010000D01*
X27665812Y-52973877D01*
X27494743Y-52903017D01*
X27340784Y-52800145D01*
X27209855Y-52669216D01*
X27106983Y-52515257D01*
X27036123Y-52344188D01*
X27000000Y-52162583D01*
X27000000Y-51977417D01*
X27036123Y-51795812D01*
X27106983Y-51624743D01*
X27209855Y-51470784D01*
X27340784Y-51339855D01*
X27494743Y-51236983D01*
X27665812Y-51166123D01*
X27847417Y-51130000D01*
X28032583Y-51130000D01*
X28214188Y-51166123D01*
X28214188Y-51166123D01*
G37*
G36*
X43454188Y-51166123D02*
X43625257Y-51236983D01*
X43779216Y-51339855D01*
X43910145Y-51470784D01*
X44013017Y-51624743D01*
X44083877Y-51795812D01*
X44120000Y-51977417D01*
X44120000Y-52162583D01*
X44083877Y-52344188D01*
X44013017Y-52515257D01*
X43910145Y-52669216D01*
X43779216Y-52800145D01*
X43625257Y-52903017D01*
X43454188Y-52973877D01*
X43272583Y-53010000D01*
X43087417Y-53010000D01*
X42905812Y-52973877D01*
X42734743Y-52903017D01*
X42580784Y-52800145D01*
X42449855Y-52669216D01*
X42346983Y-52515257D01*
X42276123Y-52344188D01*
X42240000Y-52162583D01*
X42240000Y-51977417D01*
X42276123Y-51795812D01*
X42346983Y-51624743D01*
X42449855Y-51470784D01*
X42580784Y-51339855D01*
X42734743Y-51236983D01*
X42905812Y-51166123D01*
X43087417Y-51130000D01*
X43272583Y-51130000D01*
X43454188Y-51166123D01*
X43454188Y-51166123D01*
G37*
G36*
X89801000Y-51701000D02*
X87999000Y-51701000D01*
X87999000Y-49899000D01*
X89801000Y-49899000D01*
X89801000Y-51701000D01*
X89801000Y-51701000D01*
G37*
G36*
X58640514Y-50073052D02*
X58640516Y-50073053D01*
X58640517Y-50073053D01*
X58778100Y-50130041D01*
X58778101Y-50130042D01*
X58901925Y-50212778D01*
X59007222Y-50318075D01*
X59007224Y-50318078D01*
X59089959Y-50441900D01*
X59146947Y-50579483D01*
X59176000Y-50725540D01*
X59176000Y-50874460D01*
X59146947Y-51020517D01*
X59089959Y-51158100D01*
X59037251Y-51236983D01*
X59007222Y-51281925D01*
X58901925Y-51387222D01*
X58901922Y-51387224D01*
X58778100Y-51469959D01*
X58640517Y-51526947D01*
X58640516Y-51526947D01*
X58640514Y-51526948D01*
X58494461Y-51556000D01*
X58345539Y-51556000D01*
X58199486Y-51526948D01*
X58199484Y-51526947D01*
X58199483Y-51526947D01*
X58061900Y-51469959D01*
X57938078Y-51387224D01*
X57938075Y-51387222D01*
X57832778Y-51281925D01*
X57802749Y-51236983D01*
X57750041Y-51158100D01*
X57693053Y-51020517D01*
X57664000Y-50874460D01*
X57664000Y-50725540D01*
X57693053Y-50579483D01*
X57750041Y-50441900D01*
X57832776Y-50318078D01*
X57832778Y-50318075D01*
X57938075Y-50212778D01*
X58061899Y-50130042D01*
X58061900Y-50130041D01*
X58199483Y-50073053D01*
X58199484Y-50073053D01*
X58199486Y-50073052D01*
X58345539Y-50044000D01*
X58494461Y-50044000D01*
X58640514Y-50073052D01*
X58640514Y-50073052D01*
G37*
G36*
X73880514Y-50073052D02*
X73880516Y-50073053D01*
X73880517Y-50073053D01*
X74018100Y-50130041D01*
X74018101Y-50130042D01*
X74141925Y-50212778D01*
X74247222Y-50318075D01*
X74247224Y-50318078D01*
X74329959Y-50441900D01*
X74386947Y-50579483D01*
X74416000Y-50725540D01*
X74416000Y-50874460D01*
X74386947Y-51020517D01*
X74329959Y-51158100D01*
X74277251Y-51236983D01*
X74247222Y-51281925D01*
X74141925Y-51387222D01*
X74141922Y-51387224D01*
X74018100Y-51469959D01*
X73880517Y-51526947D01*
X73880516Y-51526947D01*
X73880514Y-51526948D01*
X73734461Y-51556000D01*
X73585539Y-51556000D01*
X73439486Y-51526948D01*
X73439484Y-51526947D01*
X73439483Y-51526947D01*
X73301900Y-51469959D01*
X73178078Y-51387224D01*
X73178075Y-51387222D01*
X73072778Y-51281925D01*
X73042749Y-51236983D01*
X72990041Y-51158100D01*
X72933053Y-51020517D01*
X72904000Y-50874460D01*
X72904000Y-50725540D01*
X72933053Y-50579483D01*
X72990041Y-50441900D01*
X73072776Y-50318078D01*
X73072778Y-50318075D01*
X73178075Y-50212778D01*
X73301899Y-50130042D01*
X73301900Y-50130041D01*
X73439483Y-50073053D01*
X73439484Y-50073053D01*
X73439486Y-50073052D01*
X73585539Y-50044000D01*
X73734461Y-50044000D01*
X73880514Y-50073052D01*
X73880514Y-50073052D01*
G37*
G36*
X43454188Y-48626123D02*
X43625257Y-48696983D01*
X43779216Y-48799855D01*
X43910145Y-48930784D01*
X44013017Y-49084743D01*
X44083877Y-49255812D01*
X44120000Y-49437417D01*
X44120000Y-49622583D01*
X44083877Y-49804188D01*
X44013017Y-49975257D01*
X43910145Y-50129216D01*
X43779216Y-50260145D01*
X43625257Y-50363017D01*
X43454188Y-50433877D01*
X43272583Y-50470000D01*
X43087417Y-50470000D01*
X42905812Y-50433877D01*
X42734743Y-50363017D01*
X42580784Y-50260145D01*
X42449855Y-50129216D01*
X42346983Y-49975257D01*
X42276123Y-49804188D01*
X42240000Y-49622583D01*
X42240000Y-49437417D01*
X42276123Y-49255812D01*
X42346983Y-49084743D01*
X42449855Y-48930784D01*
X42580784Y-48799855D01*
X42734743Y-48696983D01*
X42905812Y-48626123D01*
X43087417Y-48590000D01*
X43272583Y-48590000D01*
X43454188Y-48626123D01*
X43454188Y-48626123D01*
G37*
G36*
X28214188Y-48626123D02*
X28385257Y-48696983D01*
X28539216Y-48799855D01*
X28670145Y-48930784D01*
X28773017Y-49084743D01*
X28843877Y-49255812D01*
X28880000Y-49437417D01*
X28880000Y-49622583D01*
X28843877Y-49804188D01*
X28773017Y-49975257D01*
X28670145Y-50129216D01*
X28539216Y-50260145D01*
X28385257Y-50363017D01*
X28214188Y-50433877D01*
X28032583Y-50470000D01*
X27847417Y-50470000D01*
X27665812Y-50433877D01*
X27494743Y-50363017D01*
X27340784Y-50260145D01*
X27209855Y-50129216D01*
X27106983Y-49975257D01*
X27036123Y-49804188D01*
X27000000Y-49622583D01*
X27000000Y-49437417D01*
X27036123Y-49255812D01*
X27106983Y-49084743D01*
X27209855Y-48930784D01*
X27340784Y-48799855D01*
X27494743Y-48696983D01*
X27665812Y-48626123D01*
X27847417Y-48590000D01*
X28032583Y-48590000D01*
X28214188Y-48626123D01*
X28214188Y-48626123D01*
G37*
G36*
X89010443Y-47365519D02*
X89076627Y-47372037D01*
X89189853Y-47406384D01*
X89246467Y-47423557D01*
X89385087Y-47497652D01*
X89402991Y-47507222D01*
X89434465Y-47533052D01*
X89540186Y-47619814D01*
X89622524Y-47720145D01*
X89652778Y-47757009D01*
X89652779Y-47757011D01*
X89736443Y-47913533D01*
X89736443Y-47913534D01*
X89787963Y-48083373D01*
X89805359Y-48260000D01*
X89787963Y-48436627D01*
X89774650Y-48480514D01*
X89736443Y-48606467D01*
X89688060Y-48696983D01*
X89652778Y-48762991D01*
X89623448Y-48798729D01*
X89540186Y-48900186D01*
X89438729Y-48983448D01*
X89402991Y-49012778D01*
X89402989Y-49012779D01*
X89246467Y-49096443D01*
X89189853Y-49113616D01*
X89076627Y-49147963D01*
X89010443Y-49154481D01*
X88944260Y-49161000D01*
X88855740Y-49161000D01*
X88789557Y-49154481D01*
X88723373Y-49147963D01*
X88610147Y-49113616D01*
X88553533Y-49096443D01*
X88397011Y-49012779D01*
X88397009Y-49012778D01*
X88361271Y-48983448D01*
X88259814Y-48900186D01*
X88176552Y-48798729D01*
X88147222Y-48762991D01*
X88111940Y-48696983D01*
X88063557Y-48606467D01*
X88025350Y-48480514D01*
X88012037Y-48436627D01*
X87994641Y-48260000D01*
X88012037Y-48083373D01*
X88063557Y-47913534D01*
X88063557Y-47913533D01*
X88147221Y-47757011D01*
X88147222Y-47757009D01*
X88177476Y-47720145D01*
X88259814Y-47619814D01*
X88365535Y-47533052D01*
X88397009Y-47507222D01*
X88414913Y-47497652D01*
X88553533Y-47423557D01*
X88610147Y-47406384D01*
X88723373Y-47372037D01*
X88789557Y-47365519D01*
X88855740Y-47359000D01*
X88944260Y-47359000D01*
X89010443Y-47365519D01*
X89010443Y-47365519D01*
G37*
G36*
X80911000Y-49161000D02*
X79109000Y-49161000D01*
X79109000Y-47359000D01*
X80911000Y-47359000D01*
X80911000Y-49161000D01*
X80911000Y-49161000D01*
G37*
G36*
X73880514Y-47533052D02*
X73880516Y-47533053D01*
X73880517Y-47533053D01*
X74018100Y-47590041D01*
X74062660Y-47619815D01*
X74141925Y-47672778D01*
X74247222Y-47778075D01*
X74247224Y-47778078D01*
X74329959Y-47901900D01*
X74341598Y-47930000D01*
X74386948Y-48039486D01*
X74416000Y-48185539D01*
X74416000Y-48334461D01*
X74395678Y-48436627D01*
X74386947Y-48480517D01*
X74329959Y-48618100D01*
X74277251Y-48696983D01*
X74247222Y-48741925D01*
X74141925Y-48847222D01*
X74141922Y-48847224D01*
X74018100Y-48929959D01*
X73880517Y-48986947D01*
X73880516Y-48986947D01*
X73880514Y-48986948D01*
X73734461Y-49016000D01*
X73585539Y-49016000D01*
X73439486Y-48986948D01*
X73439484Y-48986947D01*
X73439483Y-48986947D01*
X73301900Y-48929959D01*
X73178078Y-48847224D01*
X73178075Y-48847222D01*
X73072778Y-48741925D01*
X73042749Y-48696983D01*
X72990041Y-48618100D01*
X72933053Y-48480517D01*
X72924323Y-48436627D01*
X72904000Y-48334461D01*
X72904000Y-48185539D01*
X72933052Y-48039486D01*
X72978402Y-47930000D01*
X72990041Y-47901900D01*
X73072776Y-47778078D01*
X73072778Y-47778075D01*
X73178075Y-47672778D01*
X73257340Y-47619815D01*
X73301900Y-47590041D01*
X73439483Y-47533053D01*
X73439484Y-47533053D01*
X73439486Y-47533052D01*
X73585539Y-47504000D01*
X73734461Y-47504000D01*
X73880514Y-47533052D01*
X73880514Y-47533052D01*
G37*
G36*
X58640514Y-47533052D02*
X58640516Y-47533053D01*
X58640517Y-47533053D01*
X58778100Y-47590041D01*
X58822660Y-47619815D01*
X58901925Y-47672778D01*
X59007222Y-47778075D01*
X59007224Y-47778078D01*
X59089959Y-47901900D01*
X59101598Y-47930000D01*
X59146948Y-48039486D01*
X59176000Y-48185539D01*
X59176000Y-48334461D01*
X59155678Y-48436627D01*
X59146947Y-48480517D01*
X59089959Y-48618100D01*
X59037251Y-48696983D01*
X59007222Y-48741925D01*
X58901925Y-48847222D01*
X58901922Y-48847224D01*
X58778100Y-48929959D01*
X58640517Y-48986947D01*
X58640516Y-48986947D01*
X58640514Y-48986948D01*
X58494461Y-49016000D01*
X58345539Y-49016000D01*
X58199486Y-48986948D01*
X58199484Y-48986947D01*
X58199483Y-48986947D01*
X58061900Y-48929959D01*
X57938078Y-48847224D01*
X57938075Y-48847222D01*
X57832778Y-48741925D01*
X57802749Y-48696983D01*
X57750041Y-48618100D01*
X57693053Y-48480517D01*
X57684323Y-48436627D01*
X57664000Y-48334461D01*
X57664000Y-48185539D01*
X57693052Y-48039486D01*
X57738402Y-47930000D01*
X57750041Y-47901900D01*
X57832776Y-47778078D01*
X57832778Y-47778075D01*
X57938075Y-47672778D01*
X58017340Y-47619815D01*
X58061900Y-47590041D01*
X58199483Y-47533053D01*
X58199484Y-47533053D01*
X58199486Y-47533052D01*
X58345539Y-47504000D01*
X58494461Y-47504000D01*
X58640514Y-47533052D01*
X58640514Y-47533052D01*
G37*
G36*
X28214188Y-46086123D02*
X28385257Y-46156983D01*
X28539216Y-46259855D01*
X28670145Y-46390784D01*
X28773017Y-46544743D01*
X28843877Y-46715812D01*
X28880000Y-46897417D01*
X28880000Y-47082583D01*
X28843877Y-47264188D01*
X28773017Y-47435257D01*
X28670145Y-47589216D01*
X28539216Y-47720145D01*
X28385257Y-47823017D01*
X28214188Y-47893877D01*
X28032583Y-47930000D01*
X27847417Y-47930000D01*
X27665812Y-47893877D01*
X27494743Y-47823017D01*
X27340784Y-47720145D01*
X27209855Y-47589216D01*
X27106983Y-47435257D01*
X27036123Y-47264188D01*
X27000000Y-47082583D01*
X27000000Y-46897417D01*
X27036123Y-46715812D01*
X27106983Y-46544743D01*
X27209855Y-46390784D01*
X27340784Y-46259855D01*
X27494743Y-46156983D01*
X27665812Y-46086123D01*
X27847417Y-46050000D01*
X28032583Y-46050000D01*
X28214188Y-46086123D01*
X28214188Y-46086123D01*
G37*
G36*
X43454188Y-46086123D02*
X43625257Y-46156983D01*
X43779216Y-46259855D01*
X43910145Y-46390784D01*
X44013017Y-46544743D01*
X44083877Y-46715812D01*
X44120000Y-46897417D01*
X44120000Y-47082583D01*
X44083877Y-47264188D01*
X44013017Y-47435257D01*
X43910145Y-47589216D01*
X43779216Y-47720145D01*
X43625257Y-47823017D01*
X43454188Y-47893877D01*
X43272583Y-47930000D01*
X43087417Y-47930000D01*
X42905812Y-47893877D01*
X42734743Y-47823017D01*
X42580784Y-47720145D01*
X42449855Y-47589216D01*
X42346983Y-47435257D01*
X42276123Y-47264188D01*
X42240000Y-47082583D01*
X42240000Y-46897417D01*
X42276123Y-46715812D01*
X42346983Y-46544743D01*
X42449855Y-46390784D01*
X42580784Y-46259855D01*
X42734743Y-46156983D01*
X42905812Y-46086123D01*
X43087417Y-46050000D01*
X43272583Y-46050000D01*
X43454188Y-46086123D01*
X43454188Y-46086123D01*
G37*
G36*
X89010442Y-44825518D02*
X89076627Y-44832037D01*
X89189853Y-44866384D01*
X89246467Y-44883557D01*
X89385087Y-44957652D01*
X89402991Y-44967222D01*
X89434465Y-44993052D01*
X89540186Y-45079814D01*
X89622524Y-45180145D01*
X89652778Y-45217009D01*
X89652779Y-45217011D01*
X89736443Y-45373533D01*
X89736443Y-45373534D01*
X89787963Y-45543373D01*
X89805359Y-45720000D01*
X89787963Y-45896627D01*
X89774650Y-45940514D01*
X89736443Y-46066467D01*
X89688060Y-46156983D01*
X89652778Y-46222991D01*
X89623448Y-46258729D01*
X89540186Y-46360186D01*
X89438729Y-46443448D01*
X89402991Y-46472778D01*
X89402989Y-46472779D01*
X89246467Y-46556443D01*
X89189853Y-46573616D01*
X89076627Y-46607963D01*
X89010443Y-46614481D01*
X88944260Y-46621000D01*
X88855740Y-46621000D01*
X88789558Y-46614482D01*
X88723373Y-46607963D01*
X88610147Y-46573616D01*
X88553533Y-46556443D01*
X88397011Y-46472779D01*
X88397009Y-46472778D01*
X88361271Y-46443448D01*
X88259814Y-46360186D01*
X88176552Y-46258729D01*
X88147222Y-46222991D01*
X88111940Y-46156983D01*
X88063557Y-46066467D01*
X88025350Y-45940514D01*
X88012037Y-45896627D01*
X87994641Y-45720000D01*
X88012037Y-45543373D01*
X88063557Y-45373534D01*
X88063557Y-45373533D01*
X88147221Y-45217011D01*
X88147222Y-45217009D01*
X88177476Y-45180145D01*
X88259814Y-45079814D01*
X88365535Y-44993052D01*
X88397009Y-44967222D01*
X88414913Y-44957652D01*
X88553533Y-44883557D01*
X88610147Y-44866384D01*
X88723373Y-44832037D01*
X88789558Y-44825518D01*
X88855740Y-44819000D01*
X88944260Y-44819000D01*
X89010442Y-44825518D01*
X89010442Y-44825518D01*
G37*
G36*
X52971000Y-46621000D02*
X51169000Y-46621000D01*
X51169000Y-44819000D01*
X52971000Y-44819000D01*
X52971000Y-46621000D01*
X52971000Y-46621000D01*
G37*
G36*
X80120442Y-44825518D02*
X80186627Y-44832037D01*
X80299853Y-44866384D01*
X80356467Y-44883557D01*
X80495087Y-44957652D01*
X80512991Y-44967222D01*
X80544465Y-44993052D01*
X80650186Y-45079814D01*
X80732524Y-45180145D01*
X80762778Y-45217009D01*
X80762779Y-45217011D01*
X80846443Y-45373533D01*
X80846443Y-45373534D01*
X80897963Y-45543373D01*
X80915359Y-45720000D01*
X80897963Y-45896627D01*
X80884650Y-45940514D01*
X80846443Y-46066467D01*
X80798060Y-46156983D01*
X80762778Y-46222991D01*
X80733448Y-46258729D01*
X80650186Y-46360186D01*
X80548729Y-46443448D01*
X80512991Y-46472778D01*
X80512989Y-46472779D01*
X80356467Y-46556443D01*
X80299853Y-46573616D01*
X80186627Y-46607963D01*
X80120443Y-46614481D01*
X80054260Y-46621000D01*
X79965740Y-46621000D01*
X79899558Y-46614482D01*
X79833373Y-46607963D01*
X79720147Y-46573616D01*
X79663533Y-46556443D01*
X79507011Y-46472779D01*
X79507009Y-46472778D01*
X79471271Y-46443448D01*
X79369814Y-46360186D01*
X79286552Y-46258729D01*
X79257222Y-46222991D01*
X79221940Y-46156983D01*
X79173557Y-46066467D01*
X79135350Y-45940514D01*
X79122037Y-45896627D01*
X79104641Y-45720000D01*
X79122037Y-45543373D01*
X79173557Y-45373534D01*
X79173557Y-45373533D01*
X79257221Y-45217011D01*
X79257222Y-45217009D01*
X79287476Y-45180145D01*
X79369814Y-45079814D01*
X79475535Y-44993052D01*
X79507009Y-44967222D01*
X79524913Y-44957652D01*
X79663533Y-44883557D01*
X79720147Y-44866384D01*
X79833373Y-44832037D01*
X79899558Y-44825518D01*
X79965740Y-44819000D01*
X80054260Y-44819000D01*
X80120442Y-44825518D01*
X80120442Y-44825518D01*
G37*
G36*
X58640514Y-44993052D02*
X58640516Y-44993053D01*
X58640517Y-44993053D01*
X58778100Y-45050041D01*
X58822660Y-45079815D01*
X58901925Y-45132778D01*
X59007222Y-45238075D01*
X59007224Y-45238078D01*
X59089959Y-45361900D01*
X59101598Y-45390000D01*
X59146948Y-45499486D01*
X59176000Y-45645539D01*
X59176000Y-45794461D01*
X59155678Y-45896627D01*
X59146947Y-45940517D01*
X59089959Y-46078100D01*
X59037251Y-46156983D01*
X59007222Y-46201925D01*
X58901925Y-46307222D01*
X58901922Y-46307224D01*
X58778100Y-46389959D01*
X58640517Y-46446947D01*
X58640516Y-46446947D01*
X58640514Y-46446948D01*
X58494461Y-46476000D01*
X58345539Y-46476000D01*
X58199486Y-46446948D01*
X58199484Y-46446947D01*
X58199483Y-46446947D01*
X58061900Y-46389959D01*
X57938078Y-46307224D01*
X57938075Y-46307222D01*
X57832778Y-46201925D01*
X57802749Y-46156983D01*
X57750041Y-46078100D01*
X57693053Y-45940517D01*
X57684323Y-45896627D01*
X57664000Y-45794461D01*
X57664000Y-45645539D01*
X57693052Y-45499486D01*
X57738402Y-45390000D01*
X57750041Y-45361900D01*
X57832776Y-45238078D01*
X57832778Y-45238075D01*
X57938075Y-45132778D01*
X58017340Y-45079815D01*
X58061900Y-45050041D01*
X58199483Y-44993053D01*
X58199484Y-44993053D01*
X58199486Y-44993052D01*
X58345539Y-44964000D01*
X58494461Y-44964000D01*
X58640514Y-44993052D01*
X58640514Y-44993052D01*
G37*
G36*
X73880514Y-44993052D02*
X73880516Y-44993053D01*
X73880517Y-44993053D01*
X74018100Y-45050041D01*
X74062660Y-45079815D01*
X74141925Y-45132778D01*
X74247222Y-45238075D01*
X74247224Y-45238078D01*
X74329959Y-45361900D01*
X74341598Y-45390000D01*
X74386948Y-45499486D01*
X74416000Y-45645539D01*
X74416000Y-45794461D01*
X74395678Y-45896627D01*
X74386947Y-45940517D01*
X74329959Y-46078100D01*
X74277251Y-46156983D01*
X74247222Y-46201925D01*
X74141925Y-46307222D01*
X74141922Y-46307224D01*
X74018100Y-46389959D01*
X73880517Y-46446947D01*
X73880516Y-46446947D01*
X73880514Y-46446948D01*
X73734461Y-46476000D01*
X73585539Y-46476000D01*
X73439486Y-46446948D01*
X73439484Y-46446947D01*
X73439483Y-46446947D01*
X73301900Y-46389959D01*
X73178078Y-46307224D01*
X73178075Y-46307222D01*
X73072778Y-46201925D01*
X73042749Y-46156983D01*
X72990041Y-46078100D01*
X72933053Y-45940517D01*
X72924323Y-45896627D01*
X72904000Y-45794461D01*
X72904000Y-45645539D01*
X72933052Y-45499486D01*
X72978402Y-45390000D01*
X72990041Y-45361900D01*
X73072776Y-45238078D01*
X73072778Y-45238075D01*
X73178075Y-45132778D01*
X73257340Y-45079815D01*
X73301900Y-45050041D01*
X73439483Y-44993053D01*
X73439484Y-44993053D01*
X73439486Y-44993052D01*
X73585539Y-44964000D01*
X73734461Y-44964000D01*
X73880514Y-44993052D01*
X73880514Y-44993052D01*
G37*
G36*
X43454188Y-43546123D02*
X43625257Y-43616983D01*
X43779216Y-43719855D01*
X43910145Y-43850784D01*
X44013017Y-44004743D01*
X44083877Y-44175812D01*
X44120000Y-44357417D01*
X44120000Y-44542583D01*
X44083877Y-44724188D01*
X44013017Y-44895257D01*
X43910145Y-45049216D01*
X43779216Y-45180145D01*
X43625257Y-45283017D01*
X43454188Y-45353877D01*
X43272583Y-45390000D01*
X43087417Y-45390000D01*
X42905812Y-45353877D01*
X42734743Y-45283017D01*
X42580784Y-45180145D01*
X42449855Y-45049216D01*
X42346983Y-44895257D01*
X42276123Y-44724188D01*
X42240000Y-44542583D01*
X42240000Y-44357417D01*
X42276123Y-44175812D01*
X42346983Y-44004743D01*
X42449855Y-43850784D01*
X42580784Y-43719855D01*
X42734743Y-43616983D01*
X42905812Y-43546123D01*
X43087417Y-43510000D01*
X43272583Y-43510000D01*
X43454188Y-43546123D01*
X43454188Y-43546123D01*
G37*
G36*
X28214188Y-43546123D02*
X28385257Y-43616983D01*
X28539216Y-43719855D01*
X28670145Y-43850784D01*
X28773017Y-44004743D01*
X28843877Y-44175812D01*
X28880000Y-44357417D01*
X28880000Y-44542583D01*
X28843877Y-44724188D01*
X28773017Y-44895257D01*
X28670145Y-45049216D01*
X28539216Y-45180145D01*
X28385257Y-45283017D01*
X28214188Y-45353877D01*
X28032583Y-45390000D01*
X27847417Y-45390000D01*
X27665812Y-45353877D01*
X27494743Y-45283017D01*
X27340784Y-45180145D01*
X27209855Y-45049216D01*
X27106983Y-44895257D01*
X27036123Y-44724188D01*
X27000000Y-44542583D01*
X27000000Y-44357417D01*
X27036123Y-44175812D01*
X27106983Y-44004743D01*
X27209855Y-43850784D01*
X27340784Y-43719855D01*
X27494743Y-43616983D01*
X27665812Y-43546123D01*
X27847417Y-43510000D01*
X28032583Y-43510000D01*
X28214188Y-43546123D01*
X28214188Y-43546123D01*
G37*
G36*
X52180442Y-42285518D02*
X52246627Y-42292037D01*
X52359853Y-42326384D01*
X52416467Y-42343557D01*
X52555087Y-42417652D01*
X52572991Y-42427222D01*
X52604465Y-42453052D01*
X52710186Y-42539814D01*
X52792524Y-42640145D01*
X52822778Y-42677009D01*
X52822779Y-42677011D01*
X52906443Y-42833533D01*
X52906443Y-42833534D01*
X52957963Y-43003373D01*
X52975359Y-43180000D01*
X52957963Y-43356627D01*
X52944650Y-43400514D01*
X52906443Y-43526467D01*
X52858060Y-43616983D01*
X52822778Y-43682991D01*
X52793448Y-43718729D01*
X52710186Y-43820186D01*
X52608729Y-43903448D01*
X52572991Y-43932778D01*
X52572989Y-43932779D01*
X52416467Y-44016443D01*
X52359853Y-44033616D01*
X52246627Y-44067963D01*
X52180443Y-44074481D01*
X52114260Y-44081000D01*
X52025740Y-44081000D01*
X51959557Y-44074481D01*
X51893373Y-44067963D01*
X51780147Y-44033616D01*
X51723533Y-44016443D01*
X51567011Y-43932779D01*
X51567009Y-43932778D01*
X51531271Y-43903448D01*
X51429814Y-43820186D01*
X51346552Y-43718729D01*
X51317222Y-43682991D01*
X51281940Y-43616983D01*
X51233557Y-43526467D01*
X51195350Y-43400514D01*
X51182037Y-43356627D01*
X51164641Y-43180000D01*
X51182037Y-43003373D01*
X51233557Y-42833534D01*
X51233557Y-42833533D01*
X51317221Y-42677011D01*
X51317222Y-42677009D01*
X51347476Y-42640145D01*
X51429814Y-42539814D01*
X51535535Y-42453052D01*
X51567009Y-42427222D01*
X51584913Y-42417652D01*
X51723533Y-42343557D01*
X51780147Y-42326384D01*
X51893373Y-42292037D01*
X51959558Y-42285518D01*
X52025740Y-42279000D01*
X52114260Y-42279000D01*
X52180442Y-42285518D01*
X52180442Y-42285518D01*
G37*
G36*
X89801000Y-44081000D02*
X87999000Y-44081000D01*
X87999000Y-42279000D01*
X89801000Y-42279000D01*
X89801000Y-44081000D01*
X89801000Y-44081000D01*
G37*
G36*
X73880514Y-42453052D02*
X73880516Y-42453053D01*
X73880517Y-42453053D01*
X74018100Y-42510041D01*
X74062660Y-42539815D01*
X74141925Y-42592778D01*
X74247222Y-42698075D01*
X74247224Y-42698078D01*
X74329959Y-42821900D01*
X74341598Y-42850000D01*
X74386948Y-42959486D01*
X74416000Y-43105539D01*
X74416000Y-43254461D01*
X74395678Y-43356627D01*
X74386947Y-43400517D01*
X74329959Y-43538100D01*
X74277251Y-43616983D01*
X74247222Y-43661925D01*
X74141925Y-43767222D01*
X74141922Y-43767224D01*
X74018100Y-43849959D01*
X73880517Y-43906947D01*
X73880516Y-43906947D01*
X73880514Y-43906948D01*
X73734461Y-43936000D01*
X73585539Y-43936000D01*
X73439486Y-43906948D01*
X73439484Y-43906947D01*
X73439483Y-43906947D01*
X73301900Y-43849959D01*
X73178078Y-43767224D01*
X73178075Y-43767222D01*
X73072778Y-43661925D01*
X73042749Y-43616983D01*
X72990041Y-43538100D01*
X72933053Y-43400517D01*
X72924323Y-43356627D01*
X72904000Y-43254461D01*
X72904000Y-43105539D01*
X72933052Y-42959486D01*
X72978402Y-42850000D01*
X72990041Y-42821900D01*
X73072776Y-42698078D01*
X73072778Y-42698075D01*
X73178075Y-42592778D01*
X73257340Y-42539815D01*
X73301900Y-42510041D01*
X73439483Y-42453053D01*
X73439484Y-42453053D01*
X73439486Y-42453052D01*
X73585539Y-42424000D01*
X73734461Y-42424000D01*
X73880514Y-42453052D01*
X73880514Y-42453052D01*
G37*
G36*
X58640514Y-42453052D02*
X58640516Y-42453053D01*
X58640517Y-42453053D01*
X58778100Y-42510041D01*
X58822660Y-42539815D01*
X58901925Y-42592778D01*
X59007222Y-42698075D01*
X59007224Y-42698078D01*
X59089959Y-42821900D01*
X59101598Y-42850000D01*
X59146948Y-42959486D01*
X59176000Y-43105539D01*
X59176000Y-43254461D01*
X59155678Y-43356627D01*
X59146947Y-43400517D01*
X59089959Y-43538100D01*
X59037251Y-43616983D01*
X59007222Y-43661925D01*
X58901925Y-43767222D01*
X58901922Y-43767224D01*
X58778100Y-43849959D01*
X58640517Y-43906947D01*
X58640516Y-43906947D01*
X58640514Y-43906948D01*
X58494461Y-43936000D01*
X58345539Y-43936000D01*
X58199486Y-43906948D01*
X58199484Y-43906947D01*
X58199483Y-43906947D01*
X58061900Y-43849959D01*
X57938078Y-43767224D01*
X57938075Y-43767222D01*
X57832778Y-43661925D01*
X57802749Y-43616983D01*
X57750041Y-43538100D01*
X57693053Y-43400517D01*
X57684323Y-43356627D01*
X57664000Y-43254461D01*
X57664000Y-43105539D01*
X57693052Y-42959486D01*
X57738402Y-42850000D01*
X57750041Y-42821900D01*
X57832776Y-42698078D01*
X57832778Y-42698075D01*
X57938075Y-42592778D01*
X58017340Y-42539815D01*
X58061900Y-42510041D01*
X58199483Y-42453053D01*
X58199484Y-42453053D01*
X58199486Y-42453052D01*
X58345539Y-42424000D01*
X58494461Y-42424000D01*
X58640514Y-42453052D01*
X58640514Y-42453052D01*
G37*
G36*
X28214188Y-41006123D02*
X28385257Y-41076983D01*
X28539216Y-41179855D01*
X28670145Y-41310784D01*
X28773017Y-41464743D01*
X28843877Y-41635812D01*
X28880000Y-41817417D01*
X28880000Y-42002583D01*
X28843877Y-42184188D01*
X28773017Y-42355257D01*
X28670145Y-42509216D01*
X28539216Y-42640145D01*
X28385257Y-42743017D01*
X28214188Y-42813877D01*
X28032583Y-42850000D01*
X27847417Y-42850000D01*
X27665812Y-42813877D01*
X27494743Y-42743017D01*
X27340784Y-42640145D01*
X27209855Y-42509216D01*
X27106983Y-42355257D01*
X27036123Y-42184188D01*
X27000000Y-42002583D01*
X27000000Y-41817417D01*
X27036123Y-41635812D01*
X27106983Y-41464743D01*
X27209855Y-41310784D01*
X27340784Y-41179855D01*
X27494743Y-41076983D01*
X27665812Y-41006123D01*
X27847417Y-40970000D01*
X28032583Y-40970000D01*
X28214188Y-41006123D01*
X28214188Y-41006123D01*
G37*
G36*
X43454188Y-41006123D02*
X43625257Y-41076983D01*
X43779216Y-41179855D01*
X43910145Y-41310784D01*
X44013017Y-41464743D01*
X44083877Y-41635812D01*
X44120000Y-41817417D01*
X44120000Y-42002583D01*
X44083877Y-42184188D01*
X44013017Y-42355257D01*
X43910145Y-42509216D01*
X43779216Y-42640145D01*
X43625257Y-42743017D01*
X43454188Y-42813877D01*
X43272583Y-42850000D01*
X43087417Y-42850000D01*
X42905812Y-42813877D01*
X42734743Y-42743017D01*
X42580784Y-42640145D01*
X42449855Y-42509216D01*
X42346983Y-42355257D01*
X42276123Y-42184188D01*
X42240000Y-42002583D01*
X42240000Y-41817417D01*
X42276123Y-41635812D01*
X42346983Y-41464743D01*
X42449855Y-41310784D01*
X42580784Y-41179855D01*
X42734743Y-41076983D01*
X42905812Y-41006123D01*
X43087417Y-40970000D01*
X43272583Y-40970000D01*
X43454188Y-41006123D01*
X43454188Y-41006123D01*
G37*
M02*
