G04 #@! TF.GenerationSoftware,KiCad,Pcbnew,(5.0.2)-1*
G04 #@! TF.CreationDate,2019-03-22T23:58:44-07:00*
G04 #@! TF.ProjectId,cheroquee_kicad,63686572-6f71-4756-9565-5f6b69636164,rev?*
G04 #@! TF.SameCoordinates,Original*
G04 #@! TF.FileFunction,Copper,L1,Top*
G04 #@! TF.FilePolarity,Positive*
%FSLAX46Y46*%
G04 Gerber Fmt 4.6, Leading zero omitted, Abs format (unit mm)*
G04 Created by KiCad (PCBNEW (5.0.2)-1) date 3/22/2019 11:58:44 PM*
%MOMM*%
%LPD*%
G01*
G04 APERTURE LIST*
G04 #@! TA.AperFunction,ComponentPad*
%ADD10C,1.778000*%
G04 #@! TD*
G04 #@! TA.AperFunction,ComponentPad*
%ADD11R,1.700000X1.700000*%
G04 #@! TD*
G04 #@! TA.AperFunction,ComponentPad*
%ADD12O,1.700000X1.700000*%
G04 #@! TD*
G04 #@! TA.AperFunction,ComponentPad*
%ADD13C,1.410000*%
G04 #@! TD*
G04 #@! TA.AperFunction,SMDPad,CuDef*
%ADD14R,1.100000X0.400000*%
G04 #@! TD*
G04 #@! TA.AperFunction,ViaPad*
%ADD15C,0.800000*%
G04 #@! TD*
G04 #@! TA.AperFunction,Conductor*
%ADD16C,0.250000*%
G04 #@! TD*
G04 APERTURE END LIST*
D10*
G04 #@! TO.P,DA1,16*
G04 #@! TO.N,C4*
X43180000Y-41910000D03*
G04 #@! TO.P,DA1,15*
G04 #@! TO.N,C5*
X43180000Y-44450000D03*
G04 #@! TO.P,DA1,14*
G04 #@! TO.N,C6*
X43180000Y-46990000D03*
G04 #@! TO.P,DA1,13*
G04 #@! TO.N,C7*
X43180000Y-49530000D03*
G04 #@! TO.P,DA1,12*
G04 #@! TO.N,R4*
X43180000Y-52070000D03*
G04 #@! TO.P,DA1,11*
G04 #@! TO.N,R5*
X43180000Y-54610000D03*
G04 #@! TO.P,DA1,10*
G04 #@! TO.N,R6*
X43180000Y-57150000D03*
G04 #@! TO.P,DA1,9*
G04 #@! TO.N,R7*
X43180000Y-59690000D03*
G04 #@! TO.P,DA1,8*
G04 #@! TO.N,C3*
X27940000Y-59690000D03*
G04 #@! TO.P,DA1,7*
G04 #@! TO.N,C2*
X27940000Y-57150000D03*
G04 #@! TO.P,DA1,6*
G04 #@! TO.N,C1*
X27940000Y-54610000D03*
G04 #@! TO.P,DA1,5*
G04 #@! TO.N,C0*
X27940000Y-52070000D03*
G04 #@! TO.P,DA1,4*
G04 #@! TO.N,R3*
X27940000Y-49530000D03*
G04 #@! TO.P,DA1,3*
G04 #@! TO.N,R2*
X27940000Y-46990000D03*
G04 #@! TO.P,DA1,2*
G04 #@! TO.N,R1*
X27940000Y-44450000D03*
G04 #@! TO.P,DA1,1*
G04 #@! TO.N,R0*
X27940000Y-41910000D03*
G04 #@! TD*
G04 #@! TO.P,DA3,1*
G04 #@! TO.N,R10*
X27940000Y-82550000D03*
G04 #@! TO.P,DA3,2*
G04 #@! TO.N,R11*
X27940000Y-85090000D03*
G04 #@! TO.P,DA3,3*
G04 #@! TO.N,R12*
X27940000Y-87630000D03*
G04 #@! TO.P,DA3,4*
G04 #@! TO.N,R13*
X27940000Y-90170000D03*
G04 #@! TO.P,DA3,5*
G04 #@! TO.N,C0*
X27940000Y-92710000D03*
G04 #@! TO.P,DA3,6*
G04 #@! TO.N,C1*
X27940000Y-95250000D03*
G04 #@! TO.P,DA3,7*
G04 #@! TO.N,C2*
X27940000Y-97790000D03*
G04 #@! TO.P,DA3,8*
G04 #@! TO.N,C3*
X27940000Y-100330000D03*
G04 #@! TO.P,DA3,9*
G04 #@! TO.N,R17*
X43180000Y-100330000D03*
G04 #@! TO.P,DA3,10*
G04 #@! TO.N,R16*
X43180000Y-97790000D03*
G04 #@! TO.P,DA3,11*
G04 #@! TO.N,R15*
X43180000Y-95250000D03*
G04 #@! TO.P,DA3,12*
G04 #@! TO.N,R14*
X43180000Y-92710000D03*
G04 #@! TO.P,DA3,13*
G04 #@! TO.N,C7*
X43180000Y-90170000D03*
G04 #@! TO.P,DA3,14*
G04 #@! TO.N,C6*
X43180000Y-87630000D03*
G04 #@! TO.P,DA3,15*
G04 #@! TO.N,C5*
X43180000Y-85090000D03*
G04 #@! TO.P,DA3,16*
G04 #@! TO.N,C4*
X43180000Y-82550000D03*
G04 #@! TD*
D11*
G04 #@! TO.P,C1,1*
G04 #@! TO.N,+5V*
X52070000Y-45720000D03*
D12*
G04 #@! TO.P,C1,2*
G04 #@! TO.N,GNDREF*
X52070000Y-43180000D03*
G04 #@! TD*
G04 #@! TO.P,C2,2*
G04 #@! TO.N,GNDREF*
X52070000Y-90170000D03*
D11*
G04 #@! TO.P,C2,1*
G04 #@! TO.N,+5V*
X52070000Y-92710000D03*
G04 #@! TD*
D10*
G04 #@! TO.P,DA2,1*
G04 #@! TO.N,R8*
X27940000Y-62230000D03*
G04 #@! TO.P,DA2,2*
G04 #@! TO.N,R9*
X27940000Y-64770000D03*
G04 #@! TO.P,DA2,3*
G04 #@! TO.N,RA*
X27940000Y-67310000D03*
G04 #@! TO.P,DA2,4*
G04 #@! TO.N,RB*
X27940000Y-69850000D03*
G04 #@! TO.P,DA2,5*
G04 #@! TO.N,C0*
X27940000Y-72390000D03*
G04 #@! TO.P,DA2,6*
G04 #@! TO.N,C1*
X27940000Y-74930000D03*
G04 #@! TO.P,DA2,7*
G04 #@! TO.N,C2*
X27940000Y-77470000D03*
G04 #@! TO.P,DA2,8*
G04 #@! TO.N,C3*
X27940000Y-80010000D03*
G04 #@! TO.P,DA2,9*
G04 #@! TO.N,RF*
X43180000Y-80010000D03*
G04 #@! TO.P,DA2,10*
G04 #@! TO.N,RE*
X43180000Y-77470000D03*
G04 #@! TO.P,DA2,11*
G04 #@! TO.N,RD*
X43180000Y-74930000D03*
G04 #@! TO.P,DA2,12*
G04 #@! TO.N,RC*
X43180000Y-72390000D03*
G04 #@! TO.P,DA2,13*
G04 #@! TO.N,C7*
X43180000Y-69850000D03*
G04 #@! TO.P,DA2,14*
G04 #@! TO.N,C6*
X43180000Y-67310000D03*
G04 #@! TO.P,DA2,15*
G04 #@! TO.N,C5*
X43180000Y-64770000D03*
G04 #@! TO.P,DA2,16*
G04 #@! TO.N,C4*
X43180000Y-62230000D03*
G04 #@! TD*
D11*
G04 #@! TO.P,R1,1*
G04 #@! TO.N,+5V*
X80010000Y-64770000D03*
D12*
G04 #@! TO.P,R1,2*
G04 #@! TO.N,en_C0*
X82550000Y-64770000D03*
G04 #@! TD*
G04 #@! TO.P,R2,2*
G04 #@! TO.N,en_C1*
X82550000Y-67310000D03*
D11*
G04 #@! TO.P,R2,1*
G04 #@! TO.N,+5V*
X80010000Y-67310000D03*
G04 #@! TD*
G04 #@! TO.P,R3,1*
G04 #@! TO.N,+5V*
X80010000Y-69850000D03*
D12*
G04 #@! TO.P,R3,2*
G04 #@! TO.N,en_C2*
X82550000Y-69850000D03*
G04 #@! TD*
G04 #@! TO.P,R4,2*
G04 #@! TO.N,en_C3*
X82550000Y-72390000D03*
D11*
G04 #@! TO.P,R4,1*
G04 #@! TO.N,+5V*
X80010000Y-72390000D03*
G04 #@! TD*
D12*
G04 #@! TO.P,R5,2*
G04 #@! TO.N,en_C4*
X82550000Y-74930000D03*
D11*
G04 #@! TO.P,R5,1*
G04 #@! TO.N,+5V*
X80010000Y-74930000D03*
G04 #@! TD*
G04 #@! TO.P,R6,1*
G04 #@! TO.N,+5V*
X80010000Y-77470000D03*
D12*
G04 #@! TO.P,R6,2*
G04 #@! TO.N,en_C5*
X82550000Y-77470000D03*
G04 #@! TD*
G04 #@! TO.P,R7,2*
G04 #@! TO.N,en_C6*
X82550000Y-80010000D03*
D11*
G04 #@! TO.P,R7,1*
G04 #@! TO.N,+5V*
X80010000Y-80010000D03*
G04 #@! TD*
G04 #@! TO.P,R8,1*
G04 #@! TO.N,+5V*
X80010000Y-82550000D03*
D12*
G04 #@! TO.P,R8,2*
G04 #@! TO.N,en_C7*
X82550000Y-82550000D03*
G04 #@! TD*
G04 #@! TO.P,R9,2*
G04 #@! TO.N,Net-(R9-Pad2)*
X80010000Y-45720000D03*
D11*
G04 #@! TO.P,R9,1*
G04 #@! TO.N,GNDREF*
X80010000Y-48260000D03*
G04 #@! TD*
G04 #@! TO.P,R10,1*
G04 #@! TO.N,GNDREF*
X80010000Y-96520000D03*
D12*
G04 #@! TO.P,R10,2*
G04 #@! TO.N,Net-(R10-Pad2)*
X80010000Y-93980000D03*
G04 #@! TD*
G04 #@! TO.P,Q1,3*
G04 #@! TO.N,C0*
X88900000Y-48260000D03*
G04 #@! TO.P,Q1,2*
G04 #@! TO.N,en_C0*
X88900000Y-45720000D03*
D11*
G04 #@! TO.P,Q1,1*
G04 #@! TO.N,+5V*
X88900000Y-43180000D03*
G04 #@! TD*
G04 #@! TO.P,Q2,1*
G04 #@! TO.N,+5V*
X88900000Y-50800000D03*
D12*
G04 #@! TO.P,Q2,2*
G04 #@! TO.N,en_C1*
X88900000Y-53340000D03*
G04 #@! TO.P,Q2,3*
G04 #@! TO.N,C1*
X88900000Y-55880000D03*
G04 #@! TD*
G04 #@! TO.P,Q3,3*
G04 #@! TO.N,C2*
X88900000Y-63500000D03*
G04 #@! TO.P,Q3,2*
G04 #@! TO.N,en_C2*
X88900000Y-60960000D03*
D11*
G04 #@! TO.P,Q3,1*
G04 #@! TO.N,+5V*
X88900000Y-58420000D03*
G04 #@! TD*
G04 #@! TO.P,Q4,1*
G04 #@! TO.N,+5V*
X88900000Y-66040000D03*
D12*
G04 #@! TO.P,Q4,2*
G04 #@! TO.N,en_C3*
X88900000Y-68580000D03*
G04 #@! TO.P,Q4,3*
G04 #@! TO.N,C3*
X88900000Y-71120000D03*
G04 #@! TD*
G04 #@! TO.P,Q5,3*
G04 #@! TO.N,C4*
X88900000Y-78740000D03*
G04 #@! TO.P,Q5,2*
G04 #@! TO.N,en_C4*
X88900000Y-76200000D03*
D11*
G04 #@! TO.P,Q5,1*
G04 #@! TO.N,+5V*
X88900000Y-73660000D03*
G04 #@! TD*
G04 #@! TO.P,Q6,1*
G04 #@! TO.N,+5V*
X88900000Y-81280000D03*
D12*
G04 #@! TO.P,Q6,2*
G04 #@! TO.N,en_C5*
X88900000Y-83820000D03*
G04 #@! TO.P,Q6,3*
G04 #@! TO.N,C5*
X88900000Y-86360000D03*
G04 #@! TD*
G04 #@! TO.P,Q7,3*
G04 #@! TO.N,C6*
X88900000Y-93980000D03*
G04 #@! TO.P,Q7,2*
G04 #@! TO.N,en_C6*
X88900000Y-91440000D03*
D11*
G04 #@! TO.P,Q7,1*
G04 #@! TO.N,+5V*
X88900000Y-88900000D03*
G04 #@! TD*
G04 #@! TO.P,Q8,1*
G04 #@! TO.N,+5V*
X88900000Y-96520000D03*
D12*
G04 #@! TO.P,Q8,2*
G04 #@! TO.N,en_C7*
X88900000Y-99060000D03*
G04 #@! TO.P,Q8,3*
G04 #@! TO.N,C7*
X88900000Y-101600000D03*
G04 #@! TD*
G04 #@! TO.P,J1,6*
G04 #@! TO.N,~OE*
X41910000Y-113030000D03*
G04 #@! TO.P,J1,5*
G04 #@! TO.N,ST*
X39370000Y-113030000D03*
G04 #@! TO.P,J1,4*
G04 #@! TO.N,CLK*
X36830000Y-113030000D03*
G04 #@! TO.P,J1,3*
G04 #@! TO.N,SDI*
X34290000Y-113030000D03*
G04 #@! TO.P,J1,2*
G04 #@! TO.N,GNDREF*
X31750000Y-113030000D03*
D11*
G04 #@! TO.P,J1,1*
G04 #@! TO.N,+5V*
X29210000Y-113030000D03*
G04 #@! TD*
D13*
G04 #@! TO.P,U1,9*
G04 #@! TO.N,en_C4*
X58547000Y-64897000D03*
G04 #@! TO.P,U1,24*
G04 #@! TO.N,+5V*
X73787000Y-44577000D03*
G04 #@! TO.P,U1,4*
G04 #@! TO.N,ST*
X58547000Y-52197000D03*
G04 #@! TO.P,U1,22*
G04 #@! TO.N,SDO_1*
X73787000Y-49657000D03*
G04 #@! TO.P,U1,10*
G04 #@! TO.N,en_C5*
X58547000Y-67437000D03*
G04 #@! TO.P,U1,5*
G04 #@! TO.N,en_C0*
X58547000Y-54737000D03*
G04 #@! TO.P,U1,16*
G04 #@! TO.N,R3*
X73787000Y-64897000D03*
G04 #@! TO.P,U1,23*
G04 #@! TO.N,Net-(R9-Pad2)*
X73787000Y-47117000D03*
G04 #@! TO.P,U1,13*
G04 #@! TO.N,R0*
X73787000Y-72517000D03*
G04 #@! TO.P,U1,1*
G04 #@! TO.N,GNDREF*
X58547000Y-44577000D03*
G04 #@! TO.P,U1,20*
G04 #@! TO.N,R7*
X73787000Y-54737000D03*
G04 #@! TO.P,U1,7*
G04 #@! TO.N,en_C2*
X58547000Y-59817000D03*
G04 #@! TO.P,U1,12*
G04 #@! TO.N,en_C7*
X58547000Y-72517000D03*
G04 #@! TO.P,U1,17*
G04 #@! TO.N,R4*
X73787000Y-62357000D03*
G04 #@! TO.P,U1,21*
G04 #@! TO.N,~OE*
X73787000Y-52197000D03*
G04 #@! TO.P,U1,6*
G04 #@! TO.N,en_C1*
X58547000Y-57277000D03*
G04 #@! TO.P,U1,15*
G04 #@! TO.N,R2*
X73787000Y-67437000D03*
G04 #@! TO.P,U1,11*
G04 #@! TO.N,en_C6*
X58547000Y-69977000D03*
G04 #@! TO.P,U1,18*
G04 #@! TO.N,R5*
X73787000Y-59817000D03*
G04 #@! TO.P,U1,19*
G04 #@! TO.N,R6*
X73787000Y-57277000D03*
G04 #@! TO.P,U1,14*
G04 #@! TO.N,R1*
X73787000Y-69977000D03*
G04 #@! TO.P,U1,8*
G04 #@! TO.N,en_C3*
X58547000Y-62357000D03*
G04 #@! TO.P,U1,3*
G04 #@! TO.N,CLK*
X58547000Y-49657000D03*
G04 #@! TO.P,U1,2*
G04 #@! TO.N,SDI*
X58547000Y-47117000D03*
D14*
G04 #@! TO.P,U1,24*
G04 #@! TO.N,+5V*
X69017000Y-54972000D03*
G04 #@! TO.P,U1,23*
G04 #@! TO.N,Net-(R9-Pad2)*
X69017000Y-55622000D03*
G04 #@! TO.P,U1,22*
G04 #@! TO.N,SDO_1*
X69017000Y-56272000D03*
G04 #@! TO.P,U1,21*
G04 #@! TO.N,~OE*
X69017000Y-56922000D03*
G04 #@! TO.P,U1,20*
G04 #@! TO.N,R7*
X69017000Y-57572000D03*
G04 #@! TO.P,U1,19*
G04 #@! TO.N,R6*
X69017000Y-58222000D03*
G04 #@! TO.P,U1,18*
G04 #@! TO.N,R5*
X69017000Y-58872000D03*
G04 #@! TO.P,U1,17*
G04 #@! TO.N,R4*
X69017000Y-59522000D03*
G04 #@! TO.P,U1,16*
G04 #@! TO.N,R3*
X69017000Y-60172000D03*
G04 #@! TO.P,U1,15*
G04 #@! TO.N,R2*
X69017000Y-60822000D03*
G04 #@! TO.P,U1,14*
G04 #@! TO.N,R1*
X69017000Y-61472000D03*
G04 #@! TO.P,U1,13*
G04 #@! TO.N,R0*
X69017000Y-62122000D03*
G04 #@! TO.P,U1,12*
G04 #@! TO.N,en_C7*
X63317000Y-62122000D03*
G04 #@! TO.P,U1,11*
G04 #@! TO.N,en_C6*
X63317000Y-61472000D03*
G04 #@! TO.P,U1,10*
G04 #@! TO.N,en_C5*
X63317000Y-60822000D03*
G04 #@! TO.P,U1,9*
G04 #@! TO.N,en_C4*
X63317000Y-60172000D03*
G04 #@! TO.P,U1,8*
G04 #@! TO.N,en_C3*
X63317000Y-59522000D03*
G04 #@! TO.P,U1,7*
G04 #@! TO.N,en_C2*
X63317000Y-58872000D03*
G04 #@! TO.P,U1,6*
G04 #@! TO.N,en_C1*
X63317000Y-58222000D03*
G04 #@! TO.P,U1,5*
G04 #@! TO.N,en_C0*
X63317000Y-57572000D03*
G04 #@! TO.P,U1,4*
G04 #@! TO.N,ST*
X63317000Y-56922000D03*
G04 #@! TO.P,U1,3*
G04 #@! TO.N,CLK*
X63317000Y-56272000D03*
G04 #@! TO.P,U1,2*
G04 #@! TO.N,SDI*
X63317000Y-55622000D03*
G04 #@! TO.P,U1,1*
G04 #@! TO.N,GNDREF*
X63317000Y-54972000D03*
G04 #@! TD*
D13*
G04 #@! TO.P,U2,9*
G04 #@! TO.N,RC*
X58547000Y-107823000D03*
G04 #@! TO.P,U2,24*
G04 #@! TO.N,+5V*
X73787000Y-87503000D03*
G04 #@! TO.P,U2,4*
G04 #@! TO.N,ST*
X58547000Y-95123000D03*
G04 #@! TO.P,U2,22*
G04 #@! TO.N,SDO_2*
X73787000Y-92583000D03*
G04 #@! TO.P,U2,10*
G04 #@! TO.N,RD*
X58547000Y-110363000D03*
G04 #@! TO.P,U2,5*
G04 #@! TO.N,R8*
X58547000Y-97663000D03*
G04 #@! TO.P,U2,16*
G04 #@! TO.N,R13*
X73787000Y-107823000D03*
G04 #@! TO.P,U2,23*
G04 #@! TO.N,Net-(R10-Pad2)*
X73787000Y-90043000D03*
G04 #@! TO.P,U2,13*
G04 #@! TO.N,R10*
X73787000Y-115443000D03*
G04 #@! TO.P,U2,1*
G04 #@! TO.N,GNDREF*
X58547000Y-87503000D03*
G04 #@! TO.P,U2,20*
G04 #@! TO.N,R17*
X73787000Y-97663000D03*
G04 #@! TO.P,U2,7*
G04 #@! TO.N,RA*
X58547000Y-102743000D03*
G04 #@! TO.P,U2,12*
G04 #@! TO.N,RF*
X58547000Y-115443000D03*
G04 #@! TO.P,U2,17*
G04 #@! TO.N,R14*
X73787000Y-105283000D03*
G04 #@! TO.P,U2,21*
G04 #@! TO.N,~OE*
X73787000Y-95123000D03*
G04 #@! TO.P,U2,6*
G04 #@! TO.N,R9*
X58547000Y-100203000D03*
G04 #@! TO.P,U2,15*
G04 #@! TO.N,R12*
X73787000Y-110363000D03*
G04 #@! TO.P,U2,11*
G04 #@! TO.N,RE*
X58547000Y-112903000D03*
G04 #@! TO.P,U2,18*
G04 #@! TO.N,R15*
X73787000Y-102743000D03*
G04 #@! TO.P,U2,19*
G04 #@! TO.N,R16*
X73787000Y-100203000D03*
G04 #@! TO.P,U2,14*
G04 #@! TO.N,R11*
X73787000Y-112903000D03*
G04 #@! TO.P,U2,8*
G04 #@! TO.N,RB*
X58547000Y-105283000D03*
G04 #@! TO.P,U2,3*
G04 #@! TO.N,CLK*
X58547000Y-92583000D03*
G04 #@! TO.P,U2,2*
G04 #@! TO.N,SDO_1*
X58547000Y-90043000D03*
D14*
G04 #@! TO.P,U2,24*
G04 #@! TO.N,+5V*
X69017000Y-97898000D03*
G04 #@! TO.P,U2,23*
G04 #@! TO.N,Net-(R10-Pad2)*
X69017000Y-98548000D03*
G04 #@! TO.P,U2,22*
G04 #@! TO.N,SDO_2*
X69017000Y-99198000D03*
G04 #@! TO.P,U2,21*
G04 #@! TO.N,~OE*
X69017000Y-99848000D03*
G04 #@! TO.P,U2,20*
G04 #@! TO.N,R17*
X69017000Y-100498000D03*
G04 #@! TO.P,U2,19*
G04 #@! TO.N,R16*
X69017000Y-101148000D03*
G04 #@! TO.P,U2,18*
G04 #@! TO.N,R15*
X69017000Y-101798000D03*
G04 #@! TO.P,U2,17*
G04 #@! TO.N,R14*
X69017000Y-102448000D03*
G04 #@! TO.P,U2,16*
G04 #@! TO.N,R13*
X69017000Y-103098000D03*
G04 #@! TO.P,U2,15*
G04 #@! TO.N,R12*
X69017000Y-103748000D03*
G04 #@! TO.P,U2,14*
G04 #@! TO.N,R11*
X69017000Y-104398000D03*
G04 #@! TO.P,U2,13*
G04 #@! TO.N,R10*
X69017000Y-105048000D03*
G04 #@! TO.P,U2,12*
G04 #@! TO.N,RF*
X63317000Y-105048000D03*
G04 #@! TO.P,U2,11*
G04 #@! TO.N,RE*
X63317000Y-104398000D03*
G04 #@! TO.P,U2,10*
G04 #@! TO.N,RD*
X63317000Y-103748000D03*
G04 #@! TO.P,U2,9*
G04 #@! TO.N,RC*
X63317000Y-103098000D03*
G04 #@! TO.P,U2,8*
G04 #@! TO.N,RB*
X63317000Y-102448000D03*
G04 #@! TO.P,U2,7*
G04 #@! TO.N,RA*
X63317000Y-101798000D03*
G04 #@! TO.P,U2,6*
G04 #@! TO.N,R9*
X63317000Y-101148000D03*
G04 #@! TO.P,U2,5*
G04 #@! TO.N,R8*
X63317000Y-100498000D03*
G04 #@! TO.P,U2,4*
G04 #@! TO.N,ST*
X63317000Y-99848000D03*
G04 #@! TO.P,U2,3*
G04 #@! TO.N,CLK*
X63317000Y-99198000D03*
G04 #@! TO.P,U2,2*
G04 #@! TO.N,SDO_1*
X63317000Y-98548000D03*
G04 #@! TO.P,U2,1*
G04 #@! TO.N,GNDREF*
X63317000Y-97898000D03*
G04 #@! TD*
D15*
G04 #@! TO.N,+5V*
X46609000Y-89154000D03*
X37338000Y-103251000D03*
X84201000Y-43180000D03*
X84201000Y-40513000D03*
X84201000Y-48895000D03*
X54483000Y-92710000D03*
X55499000Y-74803000D03*
X86106000Y-58420000D03*
X85217000Y-62611000D03*
X65278000Y-44069000D03*
G04 #@! TO.N,GNDREF*
X54722000Y-88693300D03*
G04 #@! TO.N,C4*
X40156997Y-79502003D03*
G04 #@! TO.N,R4*
X64137900Y-64500500D03*
G04 #@! TO.N,R2*
X75489400Y-42390400D03*
G04 #@! TO.N,R1*
X74535800Y-40833000D03*
G04 #@! TO.N,R0*
X39199200Y-62018500D03*
G04 #@! TO.N,R17*
X47759200Y-91318300D03*
G04 #@! TO.N,R16*
X47033000Y-93131200D03*
G04 #@! TO.N,en_C1*
X63137500Y-64403500D03*
G04 #@! TO.N,~OE*
X63753996Y-115443000D03*
G04 #@! TD*
D16*
G04 #@! TO.N,+5V*
X73787000Y-87503000D02*
X73805200Y-87521200D01*
X73805200Y-87521200D02*
X73805200Y-87525300D01*
X73787000Y-44577000D02*
X73805200Y-44595200D01*
X73805200Y-44595200D02*
X73805200Y-44599300D01*
X69035200Y-54994300D02*
X69379200Y-54994300D01*
X69379200Y-54994300D02*
X71519200Y-52854300D01*
X71519200Y-52854300D02*
X71519200Y-46885300D01*
X71519200Y-46885300D02*
X73805200Y-44599300D01*
X69035200Y-97920300D02*
X69379200Y-97920300D01*
X69379200Y-97920300D02*
X71519200Y-95780300D01*
X71519200Y-95780300D02*
X71519200Y-89811300D01*
X71519200Y-89811300D02*
X73805200Y-87525300D01*
X69017000Y-54972000D02*
X69035200Y-54990200D01*
X69035200Y-54990200D02*
X69035200Y-54994300D01*
X69017000Y-97898000D02*
X69035200Y-97916200D01*
X69035200Y-97916200D02*
X69035200Y-97920300D01*
X80010000Y-82550000D02*
X80010000Y-80010000D01*
X80010000Y-80010000D02*
X80010000Y-77470000D01*
X80010000Y-77470000D02*
X80010000Y-74930000D01*
X80010000Y-72390000D02*
X80010000Y-74930000D01*
X80010000Y-69850000D02*
X80010000Y-72390000D01*
X80010000Y-69850000D02*
X80010000Y-67310000D01*
X80010000Y-64770000D02*
X80010000Y-67310000D01*
X37338000Y-96755278D02*
X37338000Y-103251000D01*
X42709277Y-91384001D02*
X37338000Y-96755278D01*
X46466101Y-91384001D02*
X42709277Y-91384001D01*
X46609000Y-89154000D02*
X46609000Y-91241102D01*
X46609000Y-91241102D02*
X46466101Y-91384001D01*
X84201000Y-43180000D02*
X84201000Y-40513000D01*
X84201000Y-43180000D02*
X84201000Y-48895000D01*
X54483000Y-92710000D02*
X55626000Y-91567000D01*
X55626000Y-91567000D02*
X55626000Y-74930000D01*
X55626000Y-74930000D02*
X55499000Y-74803000D01*
X90000000Y-66040000D02*
X88900000Y-66040000D01*
X90075001Y-66115001D02*
X90000000Y-66040000D01*
X90075001Y-73584999D02*
X90075001Y-66115001D01*
X90000000Y-73660000D02*
X90075001Y-73584999D01*
X88900000Y-73660000D02*
X90000000Y-73660000D01*
X86106000Y-58420000D02*
X86106000Y-61722000D01*
X86106000Y-61722000D02*
X85217000Y-62611000D01*
X87800000Y-50800000D02*
X88900000Y-50800000D01*
X86106000Y-52494000D02*
X87800000Y-50800000D01*
X86106000Y-58420000D02*
X86106000Y-52494000D01*
X53170000Y-45720000D02*
X55837000Y-43053000D01*
X52070000Y-45720000D02*
X53170000Y-45720000D01*
X55837000Y-43053000D02*
X64262000Y-43053000D01*
X64262000Y-43053000D02*
X65278000Y-44069000D01*
G04 #@! TO.N,GNDREF*
X63317000Y-54972000D02*
X64192300Y-54972000D01*
X64192300Y-54972000D02*
X65782200Y-56561900D01*
X65782200Y-56561900D02*
X65782200Y-80267800D01*
X65782200Y-80267800D02*
X58547000Y-87503000D01*
X63317000Y-54972000D02*
X62967000Y-54972000D01*
X62967000Y-54972000D02*
X60833000Y-52838000D01*
X60833000Y-52838000D02*
X60833000Y-46863000D01*
X54722000Y-88693300D02*
X53245300Y-90170000D01*
X52070000Y-90170000D02*
X53245300Y-90170000D01*
X60833000Y-46863000D02*
X58547000Y-44577000D01*
X63317000Y-97898000D02*
X62967000Y-97898000D01*
X62967000Y-97898000D02*
X60833000Y-95764000D01*
X60833000Y-95764000D02*
X60833000Y-89789000D01*
X60833000Y-89789000D02*
X58547000Y-87503000D01*
X68961000Y-46863000D02*
X60833000Y-46863000D01*
X72283700Y-43540300D02*
X68961000Y-46863000D01*
X74261900Y-43540300D02*
X72283700Y-43540300D01*
X78834700Y-48113100D02*
X74261900Y-43540300D01*
X80010000Y-48260000D02*
X78834700Y-48260000D01*
X78834700Y-48260000D02*
X78834700Y-48113100D01*
G04 #@! TO.N,C4*
X40556996Y-79102004D02*
X40156997Y-79502003D01*
X43180000Y-62230000D02*
X40593600Y-64816400D01*
X40593600Y-79065400D02*
X40556996Y-79102004D01*
X40593600Y-64816400D02*
X40593600Y-79065400D01*
X40593800Y-59643800D02*
X43180000Y-62230000D01*
X43180000Y-41910000D02*
X40593800Y-44496200D01*
X40593800Y-44496200D02*
X40593800Y-59643800D01*
G04 #@! TO.N,C5*
X41065977Y-82975977D02*
X42291001Y-84201001D01*
X43180000Y-64770000D02*
X41065977Y-66884023D01*
X41065977Y-66884023D02*
X41065977Y-82975977D01*
X42291001Y-84201001D02*
X43180000Y-85090000D01*
X44394300Y-63555700D02*
X43180000Y-64770000D01*
X41044100Y-46585900D02*
X41044100Y-59321000D01*
X43180000Y-44450000D02*
X41044100Y-46585900D01*
X41044100Y-59321000D02*
X42738700Y-61015600D01*
X42738700Y-61015600D02*
X43692200Y-61015600D01*
X43692200Y-61015600D02*
X44394300Y-61717700D01*
X44394300Y-61717700D02*
X44394300Y-63555700D01*
G04 #@! TO.N,C6*
X41515988Y-68974012D02*
X41515988Y-82603388D01*
X42732600Y-83820000D02*
X43815000Y-83820000D01*
X43815000Y-83820000D02*
X44450000Y-84455000D01*
X41515988Y-82603388D02*
X42732600Y-83820000D01*
X43180000Y-67310000D02*
X41515988Y-68974012D01*
X44450000Y-84455000D02*
X44450000Y-86360000D01*
X44450000Y-86360000D02*
X44068999Y-86741001D01*
X44068999Y-86741001D02*
X43180000Y-87630000D01*
X43180000Y-47790000D02*
X43180000Y-46990000D01*
X44880600Y-65609400D02*
X44880600Y-51960300D01*
X43180000Y-67310000D02*
X44880600Y-65609400D01*
X44880600Y-51960300D02*
X43720300Y-50800000D01*
X41944700Y-49025300D02*
X43180000Y-47790000D01*
X43720300Y-50800000D02*
X42725400Y-50800000D01*
X42725400Y-50800000D02*
X41944700Y-50019300D01*
X41944700Y-50019300D02*
X41944700Y-49025300D01*
G04 #@! TO.N,C7*
X43180000Y-49530000D02*
X45330900Y-51680900D01*
X45330900Y-51680900D02*
X45330900Y-67699100D01*
X45330900Y-67699100D02*
X43180000Y-69850000D01*
X42729100Y-81280000D02*
X43630200Y-81280000D01*
X44068999Y-89281001D02*
X43180000Y-90170000D01*
X43180000Y-69850000D02*
X41965999Y-71064001D01*
X43630200Y-81280000D02*
X44900011Y-82549811D01*
X44900011Y-82549811D02*
X44900011Y-88449989D01*
X44900011Y-88449989D02*
X44068999Y-89281001D01*
X41965999Y-71064001D02*
X41965999Y-80516899D01*
X41965999Y-80516899D02*
X42729100Y-81280000D01*
G04 #@! TO.N,R4*
X73805200Y-61871300D02*
X73805200Y-62379300D01*
X69017000Y-59522000D02*
X69035200Y-59540200D01*
X69035200Y-59540200D02*
X69035200Y-59544300D01*
X73805200Y-61871300D02*
X73787000Y-61889500D01*
X73787000Y-61889500D02*
X73787000Y-62357000D01*
X69035200Y-59544300D02*
X71986200Y-59544300D01*
X71986200Y-59544300D02*
X73805200Y-61363300D01*
X73805200Y-61363300D02*
X73805200Y-61871300D01*
X41494400Y-50384400D02*
X43180000Y-52070000D01*
X41494400Y-46912700D02*
X41494400Y-50384400D01*
X64137900Y-68392500D02*
X58920600Y-73609800D01*
X43668700Y-45720000D02*
X42687100Y-45720000D01*
X64137900Y-64500500D02*
X64137900Y-68392500D01*
X58920600Y-73609800D02*
X58094100Y-73609800D01*
X58094100Y-73609800D02*
X57451300Y-72967000D01*
X42687100Y-45720000D02*
X41494400Y-46912700D01*
X57451300Y-72967000D02*
X57451300Y-59502600D01*
X57451300Y-59502600D02*
X43668700Y-45720000D01*
G04 #@! TO.N,R5*
X69017000Y-58872000D02*
X69035200Y-58890200D01*
X69035200Y-58890200D02*
X69035200Y-58894300D01*
X73496500Y-59530600D02*
X73500600Y-59530600D01*
X73500600Y-59530600D02*
X73787000Y-59817000D01*
X73496500Y-59530600D02*
X73805200Y-59839300D01*
X69035200Y-58894300D02*
X72860200Y-58894300D01*
X72860200Y-58894300D02*
X73496500Y-59530600D01*
G04 #@! TO.N,R6*
X69039300Y-58244300D02*
X69017000Y-58222000D01*
X69039300Y-58244300D02*
X72860200Y-58244300D01*
X72860200Y-58244300D02*
X73787000Y-57317500D01*
X69035200Y-58244300D02*
X69039300Y-58244300D01*
X73787000Y-57317500D02*
X73787000Y-57277000D01*
X73787000Y-57317500D02*
X73805200Y-57299300D01*
G04 #@! TO.N,R7*
X69039300Y-57594300D02*
X69017000Y-57572000D01*
X69039300Y-57594300D02*
X71986200Y-57594300D01*
X71986200Y-57594300D02*
X73805200Y-55775300D01*
X73805200Y-55775300D02*
X73805200Y-55267300D01*
X69035200Y-57594300D02*
X69039300Y-57594300D01*
X73805200Y-55267300D02*
X73787000Y-55249100D01*
X73787000Y-55249100D02*
X73787000Y-54737000D01*
X73805200Y-55267300D02*
X73805200Y-54759300D01*
G04 #@! TO.N,C3*
X27940000Y-80010000D02*
X26247300Y-81702700D01*
X26247300Y-81702700D02*
X26247300Y-98637300D01*
X26247300Y-98637300D02*
X27940000Y-100330000D01*
X27940000Y-80010000D02*
X26246900Y-78316900D01*
X26246900Y-78316900D02*
X26246900Y-61383100D01*
X26246900Y-61383100D02*
X27940000Y-59690000D01*
G04 #@! TO.N,C2*
X88900000Y-63500000D02*
X90109400Y-62290600D01*
X90109400Y-62290600D02*
X90109400Y-42184600D01*
X90109400Y-42184600D02*
X87630200Y-39705400D01*
X87630200Y-39705400D02*
X27730900Y-39705400D01*
X27730900Y-39705400D02*
X26244200Y-41192100D01*
X26244200Y-41192100D02*
X26244200Y-55454200D01*
X26244200Y-55454200D02*
X27940000Y-57150000D01*
G04 #@! TO.N,C1*
X29210000Y-54610000D02*
X29649900Y-55049900D01*
X29649900Y-55049900D02*
X29649900Y-73220100D01*
X29649900Y-73220100D02*
X27940000Y-74930000D01*
X27940000Y-54610000D02*
X29210000Y-54610000D01*
X27940000Y-74930000D02*
X29633000Y-76623000D01*
X29633000Y-76623000D02*
X29633000Y-93557000D01*
X29633000Y-93557000D02*
X27940000Y-95250000D01*
G04 #@! TO.N,C0*
X27940000Y-72390000D02*
X26697300Y-73632700D01*
X26697300Y-73632700D02*
X26697300Y-78008800D01*
X26697300Y-78008800D02*
X27428500Y-78740000D01*
X27428500Y-78740000D02*
X28430000Y-78740000D01*
X28430000Y-78740000D02*
X29182600Y-79492600D01*
X29182600Y-79492600D02*
X29182600Y-91467400D01*
X29182600Y-91467400D02*
X27940000Y-92710000D01*
X27940000Y-52070000D02*
X26725600Y-53284400D01*
X26725600Y-53284400D02*
X26725600Y-55128200D01*
X26725600Y-55128200D02*
X27477400Y-55880000D01*
X27477400Y-55880000D02*
X28420800Y-55880000D01*
X28420800Y-55880000D02*
X29176100Y-56635300D01*
X29176100Y-56635300D02*
X29176100Y-71153900D01*
X29176100Y-71153900D02*
X27940000Y-72390000D01*
G04 #@! TO.N,R3*
X27940000Y-49530000D02*
X26697200Y-48287200D01*
X26697200Y-48287200D02*
X26697200Y-41417700D01*
X26697200Y-41417700D02*
X27941300Y-40173600D01*
X27941300Y-40173600D02*
X72246900Y-40173600D01*
X72246900Y-40173600D02*
X79157900Y-47084600D01*
X79157900Y-47084600D02*
X81041100Y-47084600D01*
X81041100Y-47084600D02*
X81185400Y-47228900D01*
X81185400Y-47228900D02*
X81185400Y-56433100D01*
X81185400Y-56433100D02*
X73807400Y-63811100D01*
X73807400Y-63811100D02*
X73694000Y-63811100D01*
X73694000Y-63811100D02*
X73805200Y-63922300D01*
X73805200Y-63922300D02*
X73805200Y-64420800D01*
X69035200Y-60194300D02*
X70077200Y-60194300D01*
X70077200Y-60194300D02*
X73694000Y-63811100D01*
X73805200Y-64420800D02*
X73787000Y-64439000D01*
X73787000Y-64439000D02*
X73787000Y-64897000D01*
X73805200Y-64420800D02*
X73805200Y-64919300D01*
X69035200Y-60194300D02*
X69017000Y-60176100D01*
X69017000Y-60176100D02*
X69017000Y-60172000D01*
G04 #@! TO.N,R2*
X75489400Y-42390400D02*
X75934900Y-42835900D01*
X75934900Y-42835900D02*
X78789700Y-42835900D01*
X78789700Y-42835900D02*
X81203400Y-45249600D01*
X81203400Y-45249600D02*
X81203400Y-46428700D01*
X81203400Y-46428700D02*
X81669900Y-46895200D01*
X81669900Y-46895200D02*
X81669900Y-57976900D01*
X81669900Y-57976900D02*
X81092100Y-58554700D01*
X81092100Y-58554700D02*
X81092100Y-59128300D01*
X81092100Y-59128300D02*
X73285200Y-66935200D01*
X73285200Y-66935200D02*
X73787000Y-67437000D01*
X73281100Y-66935200D02*
X73285200Y-66935200D01*
X73281100Y-66935200D02*
X73805200Y-67459300D01*
X69035200Y-60844300D02*
X69835200Y-60844300D01*
X69835200Y-60844300D02*
X72757000Y-63766100D01*
X72757000Y-63766100D02*
X72757000Y-66411100D01*
X72757000Y-66411100D02*
X73281100Y-66935200D01*
X69035200Y-60844300D02*
X69035200Y-60840200D01*
X69035200Y-60840200D02*
X69017000Y-60822000D01*
G04 #@! TO.N,R1*
X73266900Y-69456800D02*
X77395700Y-65328000D01*
X77395700Y-65328000D02*
X77395700Y-63594600D01*
X77395700Y-63594600D02*
X81669900Y-59320400D01*
X81669900Y-59320400D02*
X81669900Y-58838800D01*
X81669900Y-58838800D02*
X82120200Y-58388500D01*
X82120200Y-58388500D02*
X82120200Y-46483300D01*
X82120200Y-46483300D02*
X81812800Y-46175900D01*
X81812800Y-46175900D02*
X81812800Y-45222100D01*
X81812800Y-45222100D02*
X78926200Y-42335500D01*
X78926200Y-42335500D02*
X78787300Y-42335500D01*
X78787300Y-42335500D02*
X77284800Y-40833000D01*
X77284800Y-40833000D02*
X74535800Y-40833000D01*
X73266900Y-69456800D02*
X73787000Y-69977000D01*
X72979700Y-69173800D02*
X72983800Y-69173800D01*
X72983800Y-69173800D02*
X73266900Y-69456800D01*
X69035200Y-61494300D02*
X69035200Y-61490200D01*
X69035200Y-61490200D02*
X69017000Y-61472000D01*
X72979700Y-69173800D02*
X73805200Y-69999300D01*
X69035200Y-61494300D02*
X69618200Y-61494300D01*
X69618200Y-61494300D02*
X72154200Y-64030300D01*
X72154200Y-64030300D02*
X72154200Y-68348300D01*
X72154200Y-68348300D02*
X72979700Y-69173800D01*
G04 #@! TO.N,R0*
X27940000Y-41910000D02*
X39199200Y-53169200D01*
X39199200Y-53169200D02*
X39199200Y-62018500D01*
X69017000Y-62122000D02*
X69035200Y-62140200D01*
X69035200Y-62140200D02*
X69035200Y-62144300D01*
X72926600Y-71660700D02*
X72930700Y-71660700D01*
X72930700Y-71660700D02*
X73787000Y-72517000D01*
X72926600Y-71660700D02*
X73805200Y-72539300D01*
X69035200Y-62144300D02*
X69385200Y-62144300D01*
X69385200Y-62144300D02*
X71519200Y-64278300D01*
X71519200Y-64278300D02*
X71519200Y-70253300D01*
X71519200Y-70253300D02*
X72926600Y-71660700D01*
G04 #@! TO.N,R8*
X63317000Y-100498000D02*
X60366000Y-100498000D01*
X60366000Y-100498000D02*
X58547000Y-98679000D01*
X58547000Y-98679000D02*
X58547000Y-97663000D01*
G04 #@! TO.N,R9*
X63317000Y-101148000D02*
X59492000Y-101148000D01*
X59492000Y-101148000D02*
X58547000Y-100203000D01*
G04 #@! TO.N,RA*
X63317000Y-101798000D02*
X59492000Y-101798000D01*
X59492000Y-101798000D02*
X58547000Y-102743000D01*
G04 #@! TO.N,RB*
X63317000Y-102448000D02*
X60366000Y-102448000D01*
X60366000Y-102448000D02*
X58547000Y-104267000D01*
X58547000Y-104267000D02*
X58547000Y-105283000D01*
G04 #@! TO.N,RF*
X48507700Y-85337700D02*
X43180000Y-80010000D01*
X58547000Y-115443000D02*
X48507700Y-105403700D01*
X48507700Y-105403700D02*
X48507700Y-85337700D01*
X60833000Y-113157000D02*
X58547000Y-115443000D01*
X60833000Y-107188000D02*
X60833000Y-113157000D01*
X63317000Y-105048000D02*
X62973000Y-105048000D01*
X62973000Y-105048000D02*
X60833000Y-107188000D01*
G04 #@! TO.N,RE*
X49408300Y-83698300D02*
X43180000Y-77470000D01*
X58547000Y-112903000D02*
X49408300Y-103764300D01*
X49408300Y-103764300D02*
X49408300Y-83698300D01*
X62734000Y-104398000D02*
X63317000Y-104398000D01*
X60198000Y-106934000D02*
X62734000Y-104398000D01*
X58547000Y-112903000D02*
X60198000Y-111252000D01*
X60198000Y-111252000D02*
X60198000Y-106934000D01*
G04 #@! TO.N,RD*
X49858600Y-81608600D02*
X43180000Y-74930000D01*
X58547000Y-110363000D02*
X49858600Y-101674600D01*
X49858600Y-101674600D02*
X49858600Y-81608600D01*
X62517000Y-103748000D02*
X63317000Y-103748000D01*
X59577000Y-106688000D02*
X62517000Y-103748000D01*
X58547000Y-110363000D02*
X59577000Y-109333000D01*
X59577000Y-109333000D02*
X59577000Y-106688000D01*
G04 #@! TO.N,RC*
X50308900Y-79518900D02*
X43180000Y-72390000D01*
X58547000Y-107823000D02*
X50308900Y-99584900D01*
X50308900Y-99584900D02*
X50308900Y-79518900D01*
X62256400Y-103098000D02*
X63317000Y-103098000D01*
X58547000Y-107823000D02*
X58547000Y-106807400D01*
X58547000Y-106807400D02*
X62256400Y-103098000D01*
G04 #@! TO.N,R10*
X73785100Y-115444900D02*
X73805200Y-115465000D01*
X69035200Y-105070000D02*
X69385200Y-105070000D01*
X69385200Y-105070000D02*
X71519200Y-107204000D01*
X71519200Y-107204000D02*
X71519200Y-113179000D01*
X71519200Y-113179000D02*
X73785100Y-115444900D01*
X73787000Y-115443000D02*
X73785100Y-115444900D01*
X69017000Y-105048000D02*
X69035200Y-105066200D01*
X69035200Y-105066200D02*
X69035200Y-105070000D01*
G04 #@! TO.N,R11*
X69017000Y-104398000D02*
X69035200Y-104416200D01*
X69035200Y-104416200D02*
X69035200Y-104420000D01*
X72979700Y-112099500D02*
X72983500Y-112099500D01*
X72983500Y-112099500D02*
X73787000Y-112903000D01*
X72979700Y-112099500D02*
X73805200Y-112925000D01*
X69035200Y-104420000D02*
X69618200Y-104420000D01*
X69618200Y-104420000D02*
X72154200Y-106956000D01*
X72154200Y-106956000D02*
X72154200Y-111274000D01*
X72154200Y-111274000D02*
X72979700Y-112099500D01*
G04 #@! TO.N,R12*
X73452700Y-110032500D02*
X73456500Y-110032500D01*
X73456500Y-110032500D02*
X73787000Y-110363000D01*
X73452700Y-110032500D02*
X73805200Y-110385000D01*
X69035200Y-103770000D02*
X69835200Y-103770000D01*
X69835200Y-103770000D02*
X72757000Y-106692000D01*
X72757000Y-106692000D02*
X72757000Y-109337000D01*
X72757000Y-109337000D02*
X73100200Y-109680000D01*
X73100200Y-109680000D02*
X73452700Y-110032500D01*
X69017000Y-103748000D02*
X69035200Y-103766200D01*
X69035200Y-103766200D02*
X69035200Y-103770000D01*
G04 #@! TO.N,R13*
X69017000Y-103098000D02*
X69035200Y-103116200D01*
X69035200Y-103116200D02*
X69035200Y-103120000D01*
X73805200Y-107346500D02*
X73787000Y-107364700D01*
X73787000Y-107364700D02*
X73787000Y-107823000D01*
X73805200Y-107346500D02*
X73805200Y-107845000D01*
X69035200Y-103120000D02*
X70077200Y-103120000D01*
X70077200Y-103120000D02*
X73805200Y-106848000D01*
X73805200Y-106848000D02*
X73805200Y-107346500D01*
X37022600Y-117430100D02*
X63526612Y-117430100D01*
X63526612Y-117430100D02*
X64694701Y-116262011D01*
X33020000Y-103661700D02*
X33020000Y-113427500D01*
X26697600Y-91412400D02*
X26697600Y-98329000D01*
X27940000Y-90170000D02*
X26697600Y-91412400D01*
X64694701Y-116262011D02*
X64694701Y-112578399D01*
X68141700Y-109131400D02*
X68141700Y-103173300D01*
X27428600Y-99060000D02*
X28418300Y-99060000D01*
X33020000Y-113427500D02*
X37022600Y-117430100D01*
X26697600Y-98329000D02*
X27428600Y-99060000D01*
X64694701Y-112578399D02*
X68141700Y-109131400D01*
X68217000Y-103098000D02*
X69017000Y-103098000D01*
X28418300Y-99060000D02*
X33020000Y-103661700D01*
X68141700Y-103173300D02*
X68217000Y-103098000D01*
G04 #@! TO.N,R17*
X43180000Y-100330000D02*
X47759100Y-95750900D01*
X47759100Y-95750900D02*
X47759100Y-91318300D01*
X47759100Y-91318300D02*
X47759200Y-91318300D01*
X69039000Y-100520000D02*
X69017000Y-100498000D01*
X69039000Y-100520000D02*
X71986200Y-100520000D01*
X71986200Y-100520000D02*
X73805200Y-98701300D01*
X73805200Y-98701300D02*
X73805200Y-98193300D01*
X69035200Y-100520000D02*
X69039000Y-100520000D01*
X73805200Y-98193300D02*
X73787000Y-98175100D01*
X73787000Y-98175100D02*
X73787000Y-97663000D01*
X73805200Y-98193300D02*
X73805200Y-97685300D01*
G04 #@! TO.N,R16*
X43180000Y-97790000D02*
X47032900Y-93937100D01*
X47032900Y-93937100D02*
X47032900Y-93131200D01*
X47032900Y-93131200D02*
X47033000Y-93131200D01*
X69039000Y-101170000D02*
X69017000Y-101148000D01*
X69039000Y-101170000D02*
X72860200Y-101170000D01*
X72860200Y-101170000D02*
X73787000Y-100243200D01*
X69035200Y-101170000D02*
X69039000Y-101170000D01*
X73787000Y-100243200D02*
X73787000Y-100203000D01*
X73787000Y-100243200D02*
X73805200Y-100225000D01*
G04 #@! TO.N,R15*
X69039000Y-101820000D02*
X69017000Y-101798000D01*
X69039000Y-101820000D02*
X72860200Y-101820000D01*
X72860200Y-101820000D02*
X73785100Y-102744900D01*
X69035200Y-101820000D02*
X69039000Y-101820000D01*
X73785100Y-102744900D02*
X73805200Y-102765000D01*
X73787000Y-102743000D02*
X73785100Y-102744900D01*
G04 #@! TO.N,R14*
X69017000Y-102448000D02*
X69035200Y-102466200D01*
X69035200Y-102466200D02*
X69035200Y-102470000D01*
X73805200Y-104797000D02*
X73787000Y-104815200D01*
X73787000Y-104815200D02*
X73787000Y-105283000D01*
X73805200Y-104797000D02*
X73805200Y-105305000D01*
X69035200Y-102470000D02*
X71986200Y-102470000D01*
X71986200Y-102470000D02*
X73805200Y-104289000D01*
X73805200Y-104289000D02*
X73805200Y-104797000D01*
G04 #@! TO.N,ST*
X64192300Y-56922000D02*
X64874600Y-57604300D01*
X64874600Y-57604300D02*
X64874600Y-70025000D01*
X64874600Y-70025000D02*
X57038700Y-77860900D01*
X57038700Y-77860900D02*
X57038700Y-93614700D01*
X57038700Y-93614700D02*
X58547000Y-95123000D01*
X63317000Y-99848000D02*
X62275000Y-99848000D01*
X62275000Y-99848000D02*
X58547000Y-96120000D01*
X58547000Y-96120000D02*
X58547000Y-95123000D01*
X63317000Y-56922000D02*
X64192300Y-56922000D01*
X63317000Y-56922000D02*
X62275000Y-56922000D01*
X62275000Y-56922000D02*
X58547000Y-53194000D01*
X58547000Y-53194000D02*
X58547000Y-52197000D01*
X64192300Y-99848000D02*
X64192300Y-106533400D01*
X63317000Y-99848000D02*
X64192300Y-99848000D01*
X42840900Y-116500900D02*
X39370000Y-113030000D01*
X64192300Y-106533400D02*
X62252200Y-108473500D01*
X62252200Y-108473500D02*
X62252200Y-113769800D01*
X62252200Y-113769800D02*
X59521100Y-116500900D01*
X59521100Y-116500900D02*
X42840900Y-116500900D01*
G04 #@! TO.N,CLK*
X64192300Y-56272000D02*
X65331800Y-57411500D01*
X65331800Y-57411500D02*
X65331800Y-78325300D01*
X65331800Y-78325300D02*
X57489000Y-86168100D01*
X57489000Y-86168100D02*
X57489000Y-91525000D01*
X57489000Y-91525000D02*
X58547000Y-92583000D01*
X63317000Y-56272000D02*
X64192300Y-56272000D01*
X63317000Y-56272000D02*
X62517000Y-56272000D01*
X62517000Y-56272000D02*
X59577000Y-53332000D01*
X59577000Y-53332000D02*
X59577000Y-50687000D01*
X59577000Y-50687000D02*
X58547000Y-49657000D01*
X63317000Y-99198000D02*
X62517000Y-99198000D01*
X62517000Y-99198000D02*
X59577000Y-96258000D01*
X59577000Y-96258000D02*
X59577000Y-93613000D01*
X59577000Y-93613000D02*
X58547000Y-92583000D01*
X40751300Y-116951300D02*
X36830000Y-113030000D01*
X60467700Y-116951300D02*
X40751300Y-116951300D01*
X64192300Y-99198000D02*
X64642600Y-99648300D01*
X63317000Y-99198000D02*
X64192300Y-99198000D01*
X64642600Y-99648300D02*
X64642600Y-106720000D01*
X64642600Y-106720000D02*
X63019400Y-108343200D01*
X63019400Y-108343200D02*
X63019400Y-114399600D01*
X63019400Y-114399600D02*
X60467700Y-116951300D01*
G04 #@! TO.N,SDI*
X63317000Y-55622000D02*
X62734000Y-55622000D01*
X62734000Y-55622000D02*
X60198000Y-53086000D01*
X60198000Y-53086000D02*
X60198000Y-48768000D01*
X60198000Y-48768000D02*
X58547000Y-47117000D01*
X57531000Y-48133000D02*
X58547000Y-47117000D01*
X34290000Y-74024100D02*
X39924500Y-68389600D01*
X39924500Y-43442000D02*
X42701900Y-40664600D01*
X34290000Y-113030000D02*
X34290000Y-74024100D01*
X39924500Y-68389600D02*
X39924500Y-43442000D01*
X42701900Y-40664600D02*
X43731322Y-40664600D01*
X51199722Y-48133000D02*
X57531000Y-48133000D01*
X43731322Y-40664600D02*
X51199722Y-48133000D01*
G04 #@! TO.N,en_C0*
X63317000Y-57572000D02*
X60366000Y-57572000D01*
X60366000Y-57572000D02*
X58547000Y-55753000D01*
X58547000Y-55753000D02*
X58547000Y-54737000D01*
X88900000Y-46528000D02*
X88900000Y-45720000D01*
X82570500Y-52857500D02*
X88900000Y-46528000D01*
X82570500Y-63574200D02*
X82570500Y-52857500D01*
X82550000Y-64770000D02*
X82550000Y-63594700D01*
X82550000Y-63594700D02*
X82570500Y-63574200D01*
G04 #@! TO.N,en_C1*
X64192300Y-58222000D02*
X64192300Y-63348700D01*
X64192300Y-63348700D02*
X63137500Y-64403500D01*
X63317000Y-58222000D02*
X64192300Y-58222000D01*
X63317000Y-58222000D02*
X59492000Y-58222000D01*
X59492000Y-58222000D02*
X58547000Y-57277000D01*
X87376000Y-54864000D02*
X88900000Y-53340000D01*
X82550000Y-67310000D02*
X87376000Y-62484000D01*
X87376000Y-62484000D02*
X87376000Y-54864000D01*
G04 #@! TO.N,en_C2*
X63317000Y-58872000D02*
X59492000Y-58872000D01*
X59492000Y-58872000D02*
X58547000Y-59817000D01*
X88900000Y-61767900D02*
X88900000Y-60960000D01*
X84362200Y-66305700D02*
X88900000Y-61767900D01*
X82550000Y-69850000D02*
X84362200Y-68037800D01*
X84362200Y-68037800D02*
X84362200Y-66305700D01*
G04 #@! TO.N,en_C3*
X88900000Y-68580000D02*
X87724700Y-68580000D01*
X87724700Y-68580000D02*
X83914700Y-72390000D01*
X83914700Y-72390000D02*
X82550000Y-72390000D01*
X63317000Y-59522000D02*
X60366000Y-59522000D01*
X60366000Y-59522000D02*
X58547000Y-61341000D01*
X58547000Y-61341000D02*
X58547000Y-62357000D01*
G04 #@! TO.N,en_C4*
X58547000Y-64897000D02*
X58547000Y-63881400D01*
X58547000Y-63881400D02*
X62256400Y-60172000D01*
X62256400Y-60172000D02*
X63317000Y-60172000D01*
G04 #@! TO.N,en_C5*
X58547000Y-67437000D02*
X59577000Y-66407000D01*
X59577000Y-66407000D02*
X59577000Y-63762000D01*
X59577000Y-63762000D02*
X62517000Y-60822000D01*
X62517000Y-60822000D02*
X63317000Y-60822000D01*
G04 #@! TO.N,en_C6*
X58547000Y-69977000D02*
X60198000Y-68326000D01*
X60198000Y-68326000D02*
X60198000Y-64008000D01*
X60198000Y-64008000D02*
X62734000Y-61472000D01*
X62734000Y-61472000D02*
X63317000Y-61472000D01*
X83725300Y-81185300D02*
X82550000Y-80010000D01*
X83725300Y-85898100D02*
X83725300Y-81185300D01*
X88091900Y-90264700D02*
X83725300Y-85898100D01*
X88900000Y-91440000D02*
X88900000Y-90264700D01*
X88900000Y-90264700D02*
X88091900Y-90264700D01*
G04 #@! TO.N,en_C7*
X88900000Y-99060000D02*
X88900000Y-97884700D01*
X88900000Y-97884700D02*
X88092000Y-97884700D01*
X88092000Y-97884700D02*
X82550000Y-92342700D01*
X82550000Y-92342700D02*
X82550000Y-82550000D01*
X63317000Y-62122000D02*
X62973000Y-62122000D01*
X62973000Y-62122000D02*
X60833000Y-64262000D01*
X60833000Y-64262000D02*
X60833000Y-70231000D01*
X60833000Y-70231000D02*
X58547000Y-72517000D01*
G04 #@! TO.N,Net-(R9-Pad2)*
X73787000Y-47157500D02*
X73787000Y-47117000D01*
X73787000Y-47157500D02*
X72154200Y-48790300D01*
X72154200Y-48790300D02*
X72154200Y-53108300D01*
X72154200Y-53108300D02*
X69618200Y-55644300D01*
X69618200Y-55644300D02*
X69039300Y-55644300D01*
X73805200Y-47139300D02*
X73787000Y-47157500D01*
X69039300Y-55644300D02*
X69017000Y-55622000D01*
X69039300Y-55644300D02*
X69035200Y-55644300D01*
G04 #@! TO.N,Net-(R10-Pad2)*
X69039300Y-98570300D02*
X69017000Y-98548000D01*
X73787000Y-90083500D02*
X72154200Y-91716300D01*
X72154200Y-91716300D02*
X72154200Y-96034300D01*
X72154200Y-96034300D02*
X69618200Y-98570300D01*
X69618200Y-98570300D02*
X69039300Y-98570300D01*
X69039300Y-98570300D02*
X69035200Y-98570300D01*
X73787000Y-90083500D02*
X73787000Y-90043000D01*
X73805200Y-90065300D02*
X73787000Y-90083500D01*
G04 #@! TO.N,SDO_1*
X68141700Y-56272000D02*
X67691400Y-56722300D01*
X67691400Y-56722300D02*
X67691400Y-95048900D01*
X67691400Y-95048900D02*
X64192300Y-98548000D01*
X69017000Y-56272000D02*
X68141700Y-56272000D01*
X63317000Y-98548000D02*
X64192300Y-98548000D01*
X63317000Y-98548000D02*
X62734000Y-98548000D01*
X62734000Y-98548000D02*
X60198000Y-96012000D01*
X60198000Y-96012000D02*
X60198000Y-91694000D01*
X60198000Y-91694000D02*
X58547000Y-90043000D01*
X69039300Y-56294300D02*
X69017000Y-56272000D01*
X73787000Y-49697500D02*
X73787000Y-49657000D01*
X73787000Y-49697500D02*
X72757000Y-50727500D01*
X72757000Y-50727500D02*
X72757000Y-53372500D01*
X72757000Y-53372500D02*
X69835200Y-56294300D01*
X69835200Y-56294300D02*
X69039300Y-56294300D01*
X73805200Y-49679300D02*
X73787000Y-49697500D01*
X69039300Y-56294300D02*
X69035200Y-56294300D01*
G04 #@! TO.N,SDO_2*
X69039300Y-99220300D02*
X69017000Y-99198000D01*
X73787000Y-92623500D02*
X72757000Y-93653500D01*
X72757000Y-93653500D02*
X72757000Y-96298500D01*
X72757000Y-96298500D02*
X69835200Y-99220300D01*
X69835200Y-99220300D02*
X69039300Y-99220300D01*
X69039300Y-99220300D02*
X69035200Y-99220300D01*
X73787000Y-92623500D02*
X73787000Y-92583000D01*
X73805200Y-92605300D02*
X73787000Y-92623500D01*
G04 #@! TO.N,~OE*
X69039300Y-99870300D02*
X69017000Y-99848000D01*
X73805200Y-95653100D02*
X73805200Y-96160900D01*
X73805200Y-96160900D02*
X70095800Y-99870300D01*
X70095800Y-99870300D02*
X69039300Y-99870300D01*
X69039300Y-99870300D02*
X69035200Y-99870300D01*
X73805200Y-95653100D02*
X73787000Y-95634900D01*
X73787000Y-95634900D02*
X73787000Y-95123000D01*
X73805200Y-95145300D02*
X73805200Y-95653100D01*
X69017000Y-56922000D02*
X68141700Y-56922000D01*
X69039300Y-56944300D02*
X69017000Y-56922000D01*
X68141700Y-56922000D02*
X68141700Y-77049700D01*
X68141700Y-77049700D02*
X74824800Y-83732800D01*
X74824800Y-83732800D02*
X74824800Y-94085200D01*
X74824800Y-94085200D02*
X73787000Y-95123000D01*
X73805200Y-52600100D02*
X73787000Y-52581900D01*
X73787000Y-52581900D02*
X73787000Y-52197000D01*
X73805200Y-52600100D02*
X73805200Y-53234900D01*
X73805200Y-53234900D02*
X70095800Y-56944300D01*
X70095800Y-56944300D02*
X69039300Y-56944300D01*
X73805200Y-52219300D02*
X73805200Y-52600100D01*
X69039300Y-56944300D02*
X69035200Y-56944300D01*
X69017000Y-99848000D02*
X68217000Y-99848000D01*
X63753996Y-112389029D02*
X63753996Y-114877315D01*
X68217000Y-99848000D02*
X66167000Y-101898000D01*
X63753996Y-114877315D02*
X63753996Y-115443000D01*
X66167000Y-109976025D02*
X63753996Y-112389029D01*
X66167000Y-101898000D02*
X66167000Y-109976025D01*
G04 #@! TD*
M02*
