G04 #@! TF.GenerationSoftware,KiCad,Pcbnew,(5.0.2)-1*
G04 #@! TF.CreationDate,2019-03-22T23:58:44-07:00*
G04 #@! TF.ProjectId,cheroquee_kicad,63686572-6f71-4756-9565-5f6b69636164,rev?*
G04 #@! TF.SameCoordinates,Original*
G04 #@! TF.FileFunction,Copper,L2,Bot*
G04 #@! TF.FilePolarity,Positive*
%FSLAX46Y46*%
G04 Gerber Fmt 4.6, Leading zero omitted, Abs format (unit mm)*
G04 Created by KiCad (PCBNEW (5.0.2)-1) date 3/22/2019 11:58:44 PM*
%MOMM*%
%LPD*%
G01*
G04 APERTURE LIST*
G04 #@! TA.AperFunction,ComponentPad*
%ADD10C,1.778000*%
G04 #@! TD*
G04 #@! TA.AperFunction,ComponentPad*
%ADD11R,1.700000X1.700000*%
G04 #@! TD*
G04 #@! TA.AperFunction,ComponentPad*
%ADD12O,1.700000X1.700000*%
G04 #@! TD*
G04 #@! TA.AperFunction,ComponentPad*
%ADD13C,1.410000*%
G04 #@! TD*
G04 #@! TA.AperFunction,ViaPad*
%ADD14C,0.800000*%
G04 #@! TD*
G04 #@! TA.AperFunction,Conductor*
%ADD15C,0.250000*%
G04 #@! TD*
G04 #@! TA.AperFunction,Conductor*
%ADD16C,0.254000*%
G04 #@! TD*
G04 APERTURE END LIST*
D10*
G04 #@! TO.P,DA1,16*
G04 #@! TO.N,C4*
X43180000Y-41910000D03*
G04 #@! TO.P,DA1,15*
G04 #@! TO.N,C5*
X43180000Y-44450000D03*
G04 #@! TO.P,DA1,14*
G04 #@! TO.N,C6*
X43180000Y-46990000D03*
G04 #@! TO.P,DA1,13*
G04 #@! TO.N,C7*
X43180000Y-49530000D03*
G04 #@! TO.P,DA1,12*
G04 #@! TO.N,R4*
X43180000Y-52070000D03*
G04 #@! TO.P,DA1,11*
G04 #@! TO.N,R5*
X43180000Y-54610000D03*
G04 #@! TO.P,DA1,10*
G04 #@! TO.N,R6*
X43180000Y-57150000D03*
G04 #@! TO.P,DA1,9*
G04 #@! TO.N,R7*
X43180000Y-59690000D03*
G04 #@! TO.P,DA1,8*
G04 #@! TO.N,C3*
X27940000Y-59690000D03*
G04 #@! TO.P,DA1,7*
G04 #@! TO.N,C2*
X27940000Y-57150000D03*
G04 #@! TO.P,DA1,6*
G04 #@! TO.N,C1*
X27940000Y-54610000D03*
G04 #@! TO.P,DA1,5*
G04 #@! TO.N,C0*
X27940000Y-52070000D03*
G04 #@! TO.P,DA1,4*
G04 #@! TO.N,R3*
X27940000Y-49530000D03*
G04 #@! TO.P,DA1,3*
G04 #@! TO.N,R2*
X27940000Y-46990000D03*
G04 #@! TO.P,DA1,2*
G04 #@! TO.N,R1*
X27940000Y-44450000D03*
G04 #@! TO.P,DA1,1*
G04 #@! TO.N,R0*
X27940000Y-41910000D03*
G04 #@! TD*
G04 #@! TO.P,DA3,1*
G04 #@! TO.N,R10*
X27940000Y-82550000D03*
G04 #@! TO.P,DA3,2*
G04 #@! TO.N,R11*
X27940000Y-85090000D03*
G04 #@! TO.P,DA3,3*
G04 #@! TO.N,R12*
X27940000Y-87630000D03*
G04 #@! TO.P,DA3,4*
G04 #@! TO.N,R13*
X27940000Y-90170000D03*
G04 #@! TO.P,DA3,5*
G04 #@! TO.N,C0*
X27940000Y-92710000D03*
G04 #@! TO.P,DA3,6*
G04 #@! TO.N,C1*
X27940000Y-95250000D03*
G04 #@! TO.P,DA3,7*
G04 #@! TO.N,C2*
X27940000Y-97790000D03*
G04 #@! TO.P,DA3,8*
G04 #@! TO.N,C3*
X27940000Y-100330000D03*
G04 #@! TO.P,DA3,9*
G04 #@! TO.N,R17*
X43180000Y-100330000D03*
G04 #@! TO.P,DA3,10*
G04 #@! TO.N,R16*
X43180000Y-97790000D03*
G04 #@! TO.P,DA3,11*
G04 #@! TO.N,R15*
X43180000Y-95250000D03*
G04 #@! TO.P,DA3,12*
G04 #@! TO.N,R14*
X43180000Y-92710000D03*
G04 #@! TO.P,DA3,13*
G04 #@! TO.N,C7*
X43180000Y-90170000D03*
G04 #@! TO.P,DA3,14*
G04 #@! TO.N,C6*
X43180000Y-87630000D03*
G04 #@! TO.P,DA3,15*
G04 #@! TO.N,C5*
X43180000Y-85090000D03*
G04 #@! TO.P,DA3,16*
G04 #@! TO.N,C4*
X43180000Y-82550000D03*
G04 #@! TD*
D11*
G04 #@! TO.P,C1,1*
G04 #@! TO.N,+5V*
X52070000Y-45720000D03*
D12*
G04 #@! TO.P,C1,2*
G04 #@! TO.N,GNDREF*
X52070000Y-43180000D03*
G04 #@! TD*
G04 #@! TO.P,C2,2*
G04 #@! TO.N,GNDREF*
X52070000Y-90170000D03*
D11*
G04 #@! TO.P,C2,1*
G04 #@! TO.N,+5V*
X52070000Y-92710000D03*
G04 #@! TD*
D10*
G04 #@! TO.P,DA2,1*
G04 #@! TO.N,R8*
X27940000Y-62230000D03*
G04 #@! TO.P,DA2,2*
G04 #@! TO.N,R9*
X27940000Y-64770000D03*
G04 #@! TO.P,DA2,3*
G04 #@! TO.N,RA*
X27940000Y-67310000D03*
G04 #@! TO.P,DA2,4*
G04 #@! TO.N,RB*
X27940000Y-69850000D03*
G04 #@! TO.P,DA2,5*
G04 #@! TO.N,C0*
X27940000Y-72390000D03*
G04 #@! TO.P,DA2,6*
G04 #@! TO.N,C1*
X27940000Y-74930000D03*
G04 #@! TO.P,DA2,7*
G04 #@! TO.N,C2*
X27940000Y-77470000D03*
G04 #@! TO.P,DA2,8*
G04 #@! TO.N,C3*
X27940000Y-80010000D03*
G04 #@! TO.P,DA2,9*
G04 #@! TO.N,RF*
X43180000Y-80010000D03*
G04 #@! TO.P,DA2,10*
G04 #@! TO.N,RE*
X43180000Y-77470000D03*
G04 #@! TO.P,DA2,11*
G04 #@! TO.N,RD*
X43180000Y-74930000D03*
G04 #@! TO.P,DA2,12*
G04 #@! TO.N,RC*
X43180000Y-72390000D03*
G04 #@! TO.P,DA2,13*
G04 #@! TO.N,C7*
X43180000Y-69850000D03*
G04 #@! TO.P,DA2,14*
G04 #@! TO.N,C6*
X43180000Y-67310000D03*
G04 #@! TO.P,DA2,15*
G04 #@! TO.N,C5*
X43180000Y-64770000D03*
G04 #@! TO.P,DA2,16*
G04 #@! TO.N,C4*
X43180000Y-62230000D03*
G04 #@! TD*
D11*
G04 #@! TO.P,R1,1*
G04 #@! TO.N,+5V*
X80010000Y-64770000D03*
D12*
G04 #@! TO.P,R1,2*
G04 #@! TO.N,en_C0*
X82550000Y-64770000D03*
G04 #@! TD*
G04 #@! TO.P,R2,2*
G04 #@! TO.N,en_C1*
X82550000Y-67310000D03*
D11*
G04 #@! TO.P,R2,1*
G04 #@! TO.N,+5V*
X80010000Y-67310000D03*
G04 #@! TD*
G04 #@! TO.P,R3,1*
G04 #@! TO.N,+5V*
X80010000Y-69850000D03*
D12*
G04 #@! TO.P,R3,2*
G04 #@! TO.N,en_C2*
X82550000Y-69850000D03*
G04 #@! TD*
G04 #@! TO.P,R4,2*
G04 #@! TO.N,en_C3*
X82550000Y-72390000D03*
D11*
G04 #@! TO.P,R4,1*
G04 #@! TO.N,+5V*
X80010000Y-72390000D03*
G04 #@! TD*
D12*
G04 #@! TO.P,R5,2*
G04 #@! TO.N,en_C4*
X82550000Y-74930000D03*
D11*
G04 #@! TO.P,R5,1*
G04 #@! TO.N,+5V*
X80010000Y-74930000D03*
G04 #@! TD*
G04 #@! TO.P,R6,1*
G04 #@! TO.N,+5V*
X80010000Y-77470000D03*
D12*
G04 #@! TO.P,R6,2*
G04 #@! TO.N,en_C5*
X82550000Y-77470000D03*
G04 #@! TD*
G04 #@! TO.P,R7,2*
G04 #@! TO.N,en_C6*
X82550000Y-80010000D03*
D11*
G04 #@! TO.P,R7,1*
G04 #@! TO.N,+5V*
X80010000Y-80010000D03*
G04 #@! TD*
G04 #@! TO.P,R8,1*
G04 #@! TO.N,+5V*
X80010000Y-82550000D03*
D12*
G04 #@! TO.P,R8,2*
G04 #@! TO.N,en_C7*
X82550000Y-82550000D03*
G04 #@! TD*
G04 #@! TO.P,R9,2*
G04 #@! TO.N,Net-(R9-Pad2)*
X80010000Y-45720000D03*
D11*
G04 #@! TO.P,R9,1*
G04 #@! TO.N,GNDREF*
X80010000Y-48260000D03*
G04 #@! TD*
G04 #@! TO.P,R10,1*
G04 #@! TO.N,GNDREF*
X80010000Y-96520000D03*
D12*
G04 #@! TO.P,R10,2*
G04 #@! TO.N,Net-(R10-Pad2)*
X80010000Y-93980000D03*
G04 #@! TD*
G04 #@! TO.P,Q1,3*
G04 #@! TO.N,C0*
X88900000Y-48260000D03*
G04 #@! TO.P,Q1,2*
G04 #@! TO.N,en_C0*
X88900000Y-45720000D03*
D11*
G04 #@! TO.P,Q1,1*
G04 #@! TO.N,+5V*
X88900000Y-43180000D03*
G04 #@! TD*
G04 #@! TO.P,Q2,1*
G04 #@! TO.N,+5V*
X88900000Y-50800000D03*
D12*
G04 #@! TO.P,Q2,2*
G04 #@! TO.N,en_C1*
X88900000Y-53340000D03*
G04 #@! TO.P,Q2,3*
G04 #@! TO.N,C1*
X88900000Y-55880000D03*
G04 #@! TD*
G04 #@! TO.P,Q3,3*
G04 #@! TO.N,C2*
X88900000Y-63500000D03*
G04 #@! TO.P,Q3,2*
G04 #@! TO.N,en_C2*
X88900000Y-60960000D03*
D11*
G04 #@! TO.P,Q3,1*
G04 #@! TO.N,+5V*
X88900000Y-58420000D03*
G04 #@! TD*
G04 #@! TO.P,Q4,1*
G04 #@! TO.N,+5V*
X88900000Y-66040000D03*
D12*
G04 #@! TO.P,Q4,2*
G04 #@! TO.N,en_C3*
X88900000Y-68580000D03*
G04 #@! TO.P,Q4,3*
G04 #@! TO.N,C3*
X88900000Y-71120000D03*
G04 #@! TD*
G04 #@! TO.P,Q5,3*
G04 #@! TO.N,C4*
X88900000Y-78740000D03*
G04 #@! TO.P,Q5,2*
G04 #@! TO.N,en_C4*
X88900000Y-76200000D03*
D11*
G04 #@! TO.P,Q5,1*
G04 #@! TO.N,+5V*
X88900000Y-73660000D03*
G04 #@! TD*
G04 #@! TO.P,Q6,1*
G04 #@! TO.N,+5V*
X88900000Y-81280000D03*
D12*
G04 #@! TO.P,Q6,2*
G04 #@! TO.N,en_C5*
X88900000Y-83820000D03*
G04 #@! TO.P,Q6,3*
G04 #@! TO.N,C5*
X88900000Y-86360000D03*
G04 #@! TD*
G04 #@! TO.P,Q7,3*
G04 #@! TO.N,C6*
X88900000Y-93980000D03*
G04 #@! TO.P,Q7,2*
G04 #@! TO.N,en_C6*
X88900000Y-91440000D03*
D11*
G04 #@! TO.P,Q7,1*
G04 #@! TO.N,+5V*
X88900000Y-88900000D03*
G04 #@! TD*
G04 #@! TO.P,Q8,1*
G04 #@! TO.N,+5V*
X88900000Y-96520000D03*
D12*
G04 #@! TO.P,Q8,2*
G04 #@! TO.N,en_C7*
X88900000Y-99060000D03*
G04 #@! TO.P,Q8,3*
G04 #@! TO.N,C7*
X88900000Y-101600000D03*
G04 #@! TD*
G04 #@! TO.P,J1,6*
G04 #@! TO.N,~OE*
X41910000Y-113030000D03*
G04 #@! TO.P,J1,5*
G04 #@! TO.N,ST*
X39370000Y-113030000D03*
G04 #@! TO.P,J1,4*
G04 #@! TO.N,CLK*
X36830000Y-113030000D03*
G04 #@! TO.P,J1,3*
G04 #@! TO.N,SDI*
X34290000Y-113030000D03*
G04 #@! TO.P,J1,2*
G04 #@! TO.N,GNDREF*
X31750000Y-113030000D03*
D11*
G04 #@! TO.P,J1,1*
G04 #@! TO.N,+5V*
X29210000Y-113030000D03*
G04 #@! TD*
D13*
G04 #@! TO.P,U1,9*
G04 #@! TO.N,en_C4*
X58547000Y-64897000D03*
G04 #@! TO.P,U1,24*
G04 #@! TO.N,+5V*
X73787000Y-44577000D03*
G04 #@! TO.P,U1,4*
G04 #@! TO.N,ST*
X58547000Y-52197000D03*
G04 #@! TO.P,U1,22*
G04 #@! TO.N,SDO_1*
X73787000Y-49657000D03*
G04 #@! TO.P,U1,10*
G04 #@! TO.N,en_C5*
X58547000Y-67437000D03*
G04 #@! TO.P,U1,5*
G04 #@! TO.N,en_C0*
X58547000Y-54737000D03*
G04 #@! TO.P,U1,16*
G04 #@! TO.N,R3*
X73787000Y-64897000D03*
G04 #@! TO.P,U1,23*
G04 #@! TO.N,Net-(R9-Pad2)*
X73787000Y-47117000D03*
G04 #@! TO.P,U1,13*
G04 #@! TO.N,R0*
X73787000Y-72517000D03*
G04 #@! TO.P,U1,1*
G04 #@! TO.N,GNDREF*
X58547000Y-44577000D03*
G04 #@! TO.P,U1,20*
G04 #@! TO.N,R7*
X73787000Y-54737000D03*
G04 #@! TO.P,U1,7*
G04 #@! TO.N,en_C2*
X58547000Y-59817000D03*
G04 #@! TO.P,U1,12*
G04 #@! TO.N,en_C7*
X58547000Y-72517000D03*
G04 #@! TO.P,U1,17*
G04 #@! TO.N,R4*
X73787000Y-62357000D03*
G04 #@! TO.P,U1,21*
G04 #@! TO.N,~OE*
X73787000Y-52197000D03*
G04 #@! TO.P,U1,6*
G04 #@! TO.N,en_C1*
X58547000Y-57277000D03*
G04 #@! TO.P,U1,15*
G04 #@! TO.N,R2*
X73787000Y-67437000D03*
G04 #@! TO.P,U1,11*
G04 #@! TO.N,en_C6*
X58547000Y-69977000D03*
G04 #@! TO.P,U1,18*
G04 #@! TO.N,R5*
X73787000Y-59817000D03*
G04 #@! TO.P,U1,19*
G04 #@! TO.N,R6*
X73787000Y-57277000D03*
G04 #@! TO.P,U1,14*
G04 #@! TO.N,R1*
X73787000Y-69977000D03*
G04 #@! TO.P,U1,8*
G04 #@! TO.N,en_C3*
X58547000Y-62357000D03*
G04 #@! TO.P,U1,3*
G04 #@! TO.N,CLK*
X58547000Y-49657000D03*
G04 #@! TO.P,U1,2*
G04 #@! TO.N,SDI*
X58547000Y-47117000D03*
G04 #@! TD*
G04 #@! TO.P,U2,9*
G04 #@! TO.N,RC*
X58547000Y-107823000D03*
G04 #@! TO.P,U2,24*
G04 #@! TO.N,+5V*
X73787000Y-87503000D03*
G04 #@! TO.P,U2,4*
G04 #@! TO.N,ST*
X58547000Y-95123000D03*
G04 #@! TO.P,U2,22*
G04 #@! TO.N,SDO_2*
X73787000Y-92583000D03*
G04 #@! TO.P,U2,10*
G04 #@! TO.N,RD*
X58547000Y-110363000D03*
G04 #@! TO.P,U2,5*
G04 #@! TO.N,R8*
X58547000Y-97663000D03*
G04 #@! TO.P,U2,16*
G04 #@! TO.N,R13*
X73787000Y-107823000D03*
G04 #@! TO.P,U2,23*
G04 #@! TO.N,Net-(R10-Pad2)*
X73787000Y-90043000D03*
G04 #@! TO.P,U2,13*
G04 #@! TO.N,R10*
X73787000Y-115443000D03*
G04 #@! TO.P,U2,1*
G04 #@! TO.N,GNDREF*
X58547000Y-87503000D03*
G04 #@! TO.P,U2,20*
G04 #@! TO.N,R17*
X73787000Y-97663000D03*
G04 #@! TO.P,U2,7*
G04 #@! TO.N,RA*
X58547000Y-102743000D03*
G04 #@! TO.P,U2,12*
G04 #@! TO.N,RF*
X58547000Y-115443000D03*
G04 #@! TO.P,U2,17*
G04 #@! TO.N,R14*
X73787000Y-105283000D03*
G04 #@! TO.P,U2,21*
G04 #@! TO.N,~OE*
X73787000Y-95123000D03*
G04 #@! TO.P,U2,6*
G04 #@! TO.N,R9*
X58547000Y-100203000D03*
G04 #@! TO.P,U2,15*
G04 #@! TO.N,R12*
X73787000Y-110363000D03*
G04 #@! TO.P,U2,11*
G04 #@! TO.N,RE*
X58547000Y-112903000D03*
G04 #@! TO.P,U2,18*
G04 #@! TO.N,R15*
X73787000Y-102743000D03*
G04 #@! TO.P,U2,19*
G04 #@! TO.N,R16*
X73787000Y-100203000D03*
G04 #@! TO.P,U2,14*
G04 #@! TO.N,R11*
X73787000Y-112903000D03*
G04 #@! TO.P,U2,8*
G04 #@! TO.N,RB*
X58547000Y-105283000D03*
G04 #@! TO.P,U2,3*
G04 #@! TO.N,CLK*
X58547000Y-92583000D03*
G04 #@! TO.P,U2,2*
G04 #@! TO.N,SDO_1*
X58547000Y-90043000D03*
G04 #@! TD*
D14*
G04 #@! TO.N,+5V*
X46609000Y-89154000D03*
X37338000Y-103251000D03*
X84201000Y-43180000D03*
X84201000Y-40513000D03*
X84201000Y-48895000D03*
X54483000Y-92710000D03*
X55499000Y-74803000D03*
X86106000Y-58420000D03*
X85217000Y-62611000D03*
X65278000Y-44069000D03*
G04 #@! TO.N,GNDREF*
X54722000Y-88693300D03*
G04 #@! TO.N,C4*
X40156997Y-79502003D03*
G04 #@! TO.N,R4*
X64137900Y-64500500D03*
G04 #@! TO.N,R2*
X75489400Y-42390400D03*
G04 #@! TO.N,R1*
X74535800Y-40833000D03*
G04 #@! TO.N,R0*
X39199200Y-62018500D03*
G04 #@! TO.N,R17*
X47759200Y-91318300D03*
G04 #@! TO.N,R16*
X47033000Y-93131200D03*
G04 #@! TO.N,en_C1*
X63137500Y-64403500D03*
G04 #@! TO.N,~OE*
X63753996Y-115443000D03*
G04 #@! TD*
D15*
G04 #@! TO.N,+5V*
X47414000Y-89154000D02*
X46609000Y-89154000D01*
X52070000Y-92710000D02*
X50970000Y-92710000D01*
X50970000Y-92710000D02*
X47414000Y-89154000D01*
X73787000Y-87503000D02*
X76200000Y-87503000D01*
X88900000Y-43180000D02*
X84201000Y-43180000D01*
X52070000Y-92710000D02*
X54483000Y-92710000D01*
X88900000Y-58420000D02*
X86106000Y-58420000D01*
G04 #@! TO.N,GNDREF*
X54722000Y-88693300D02*
X55912300Y-87503000D01*
X55912300Y-87503000D02*
X58547000Y-87503000D01*
X58547000Y-87503000D02*
X67564000Y-96520000D01*
X67564000Y-96520000D02*
X75340600Y-96520000D01*
X75340600Y-96520000D02*
X80010000Y-96520000D01*
X52070000Y-43180000D02*
X53245300Y-43180000D01*
X53245300Y-43180000D02*
X54642300Y-44577000D01*
X54642300Y-44577000D02*
X58547000Y-44577000D01*
X36068000Y-117348000D02*
X31750000Y-113030000D01*
X73398400Y-117348000D02*
X36068000Y-117348000D01*
X75340600Y-96520000D02*
X75340600Y-115405800D01*
X75340600Y-115405800D02*
X73398400Y-117348000D01*
G04 #@! TO.N,C4*
X43180000Y-82550000D02*
X40156997Y-79526997D01*
X40156997Y-79526997D02*
X40156997Y-79502003D01*
X43445200Y-41644800D02*
X43180000Y-41910000D01*
X89539200Y-41644800D02*
X43445200Y-41644800D01*
X90553100Y-42658700D02*
X89539200Y-41644800D01*
X88900000Y-78740000D02*
X90553100Y-77086900D01*
X90553100Y-77086900D02*
X90553100Y-42658700D01*
G04 #@! TO.N,C5*
X88900000Y-86360000D02*
X64770000Y-86360000D01*
X64770000Y-86360000D02*
X43180000Y-64770000D01*
G04 #@! TO.N,C6*
X87724700Y-93980000D02*
X82517700Y-88773000D01*
X82517700Y-88773000D02*
X64643000Y-88773000D01*
X64643000Y-88773000D02*
X43180000Y-67310000D01*
X88900000Y-93980000D02*
X87724700Y-93980000D01*
G04 #@! TO.N,C7*
X88900000Y-101600000D02*
X87724700Y-101600000D01*
X87724700Y-101600000D02*
X81469300Y-95344600D01*
X81469300Y-95344600D02*
X79111700Y-95344600D01*
X79111700Y-95344600D02*
X77799600Y-94032500D01*
X77799600Y-94032500D02*
X67362500Y-94032500D01*
X67362500Y-94032500D02*
X43180000Y-69850000D01*
G04 #@! TO.N,R4*
X73787000Y-62357000D02*
X66281400Y-62357000D01*
X66281400Y-62357000D02*
X64137900Y-64500500D01*
G04 #@! TO.N,R5*
X73787000Y-59817000D02*
X74843200Y-58760800D01*
X74843200Y-58760800D02*
X74843200Y-54287700D01*
X74843200Y-54287700D02*
X74260000Y-53704500D01*
X74260000Y-53704500D02*
X68888400Y-53704500D01*
X68888400Y-53704500D02*
X66346200Y-56246700D01*
X66346200Y-56246700D02*
X47534500Y-56246700D01*
X47534500Y-56246700D02*
X45897800Y-54610000D01*
X45897800Y-54610000D02*
X43180000Y-54610000D01*
G04 #@! TO.N,R6*
X73787000Y-57277000D02*
X72285400Y-58778600D01*
X72285400Y-58778600D02*
X44808600Y-58778600D01*
X44808600Y-58778600D02*
X43180000Y-57150000D01*
G04 #@! TO.N,R7*
X73787000Y-54737000D02*
X70216600Y-58307400D01*
X70216600Y-58307400D02*
X47286000Y-58307400D01*
X47286000Y-58307400D02*
X44912600Y-55934000D01*
X44912600Y-55934000D02*
X42633800Y-55934000D01*
X42633800Y-55934000D02*
X41951800Y-56616000D01*
X41951800Y-56616000D02*
X41951800Y-58461800D01*
X41951800Y-58461800D02*
X43180000Y-59690000D01*
G04 #@! TO.N,C3*
X88900000Y-71120000D02*
X87724700Y-71120000D01*
X87724700Y-71120000D02*
X85279400Y-68674700D01*
X85279400Y-68674700D02*
X66348200Y-68674700D01*
X66348200Y-68674700D02*
X58689200Y-61015700D01*
X58689200Y-61015700D02*
X29265700Y-61015700D01*
X29265700Y-61015700D02*
X27940000Y-59690000D01*
G04 #@! TO.N,C2*
X27940000Y-57150000D02*
X26724500Y-58365500D01*
X26724500Y-58365500D02*
X26724500Y-76254500D01*
X26724500Y-76254500D02*
X27940000Y-77470000D01*
X27940000Y-77470000D02*
X26257900Y-79152100D01*
X26257900Y-79152100D02*
X26257900Y-96107900D01*
X26257900Y-96107900D02*
X27940000Y-97790000D01*
G04 #@! TO.N,C1*
X85072100Y-53227400D02*
X87724700Y-55880000D01*
X27940000Y-54610000D02*
X29210000Y-53340000D01*
X53437900Y-53340000D02*
X55894200Y-55796300D01*
X55894200Y-55796300D02*
X63972300Y-55796300D01*
X87724700Y-55880000D02*
X88900000Y-55880000D01*
X29210000Y-53340000D02*
X53437900Y-53340000D01*
X63972300Y-55796300D02*
X66541200Y-53227400D01*
X66541200Y-53227400D02*
X85072100Y-53227400D01*
G04 #@! TO.N,C0*
X44824800Y-50800000D02*
X29210000Y-50800000D01*
X29210000Y-50800000D02*
X27940000Y-52070000D01*
X58887200Y-48387000D02*
X47237800Y-48387000D01*
X61427200Y-45847000D02*
X58887200Y-48387000D01*
X74420100Y-45847000D02*
X61427200Y-45847000D01*
X88900000Y-48260000D02*
X88900000Y-47452000D01*
X47237800Y-48387000D02*
X44824800Y-50800000D01*
X88900000Y-47452000D02*
X90102700Y-46249300D01*
X90102700Y-46249300D02*
X90102700Y-45209300D01*
X90102700Y-45209300D02*
X89408900Y-44515500D01*
X89408900Y-44515500D02*
X75751600Y-44515500D01*
X75751600Y-44515500D02*
X74420100Y-45847000D01*
G04 #@! TO.N,R2*
X27940000Y-46990000D02*
X29210000Y-48260000D01*
X29210000Y-48260000D02*
X44071000Y-48260000D01*
X44071000Y-48260000D02*
X44394400Y-47936600D01*
X44394400Y-47936600D02*
X55964400Y-47936600D01*
X55964400Y-47936600D02*
X58054000Y-45847000D01*
X58054000Y-45847000D02*
X59428700Y-45847000D01*
X59428700Y-45847000D02*
X62885300Y-42390400D01*
X62885300Y-42390400D02*
X75489400Y-42390400D01*
G04 #@! TO.N,R1*
X27940000Y-44450000D02*
X31701600Y-40688400D01*
X31701600Y-40688400D02*
X74391200Y-40688400D01*
X74391200Y-40688400D02*
X74535800Y-40833000D01*
G04 #@! TO.N,R0*
X39199200Y-62018500D02*
X40680700Y-63500000D01*
X40680700Y-63500000D02*
X58635600Y-63500000D01*
X58635600Y-63500000D02*
X67652600Y-72517000D01*
X67652600Y-72517000D02*
X73787000Y-72517000D01*
G04 #@! TO.N,R8*
X41910000Y-76200000D02*
X27940000Y-62230000D01*
X56227700Y-95343700D02*
X56227700Y-91265300D01*
X58547000Y-97663000D02*
X56227700Y-95343700D01*
X44844600Y-79882200D02*
X44844600Y-77417200D01*
X44844600Y-77417200D02*
X43627400Y-76200000D01*
X56227700Y-91265300D02*
X44844600Y-79882200D01*
X43627400Y-76200000D02*
X41910000Y-76200000D01*
G04 #@! TO.N,R9*
X41910000Y-78740000D02*
X27940000Y-64770000D01*
X55662400Y-97318400D02*
X55662400Y-92041400D01*
X58547000Y-100203000D02*
X55662400Y-97318400D01*
X55662400Y-92041400D02*
X44394300Y-80773300D01*
X44394300Y-80773300D02*
X44394300Y-79319300D01*
X44394300Y-79319300D02*
X43815000Y-78740000D01*
X43815000Y-78740000D02*
X41910000Y-78740000D01*
G04 #@! TO.N,RA*
X58153400Y-102743000D02*
X58547000Y-102743000D01*
X44310400Y-88900000D02*
X58153400Y-102743000D01*
X42545000Y-88900000D02*
X44310400Y-88900000D01*
X34234100Y-80589100D02*
X42545000Y-88900000D01*
X27940000Y-67310000D02*
X34234100Y-73604100D01*
X34234100Y-73604100D02*
X34234100Y-80589100D01*
G04 #@! TO.N,RB*
X29265600Y-71175600D02*
X27940000Y-69850000D01*
X29265600Y-78160600D02*
X29265600Y-71175600D01*
X42545000Y-91440000D02*
X29265600Y-78160600D01*
X44251600Y-91440000D02*
X42545000Y-91440000D01*
X58547000Y-105283000D02*
X58094600Y-105283000D01*
X58094600Y-105283000D02*
X44251600Y-91440000D01*
G04 #@! TO.N,R10*
X26708300Y-83781700D02*
X27940000Y-82550000D01*
X72517000Y-114173000D02*
X53846100Y-114173000D01*
X28573100Y-88900000D02*
X27490600Y-88900000D01*
X73787000Y-115443000D02*
X72517000Y-114173000D01*
X53846100Y-114173000D02*
X28573100Y-88900000D01*
X27490600Y-88900000D02*
X26708300Y-88117700D01*
X26708300Y-88117700D02*
X26708300Y-83781700D01*
G04 #@! TO.N,R11*
X41910000Y-99060000D02*
X27940000Y-85090000D01*
X73787000Y-112903000D02*
X74833900Y-111856100D01*
X74833900Y-109866200D02*
X74060700Y-109093000D01*
X74833900Y-111856100D02*
X74833900Y-109866200D01*
X54930200Y-109093000D02*
X44897200Y-99060000D01*
X74060700Y-109093000D02*
X54930200Y-109093000D01*
X44897200Y-99060000D02*
X41910000Y-99060000D01*
G04 #@! TO.N,R12*
X28828999Y-88518999D02*
X27940000Y-87630000D01*
X29209999Y-88518999D02*
X28828999Y-88518999D01*
X52324000Y-111633000D02*
X29209999Y-88518999D01*
X60198000Y-111633000D02*
X52324000Y-111633000D01*
X73787000Y-110363000D02*
X61468000Y-110363000D01*
X61468000Y-110363000D02*
X60198000Y-111633000D01*
G04 #@! TO.N,R13*
X28702000Y-90170000D02*
X27940000Y-90170000D01*
G04 #@! TO.N,R17*
X73787000Y-97663000D02*
X70189800Y-101260200D01*
X70189800Y-101260200D02*
X57701100Y-101260200D01*
X57701100Y-101260200D02*
X47759200Y-91318300D01*
G04 #@! TO.N,R16*
X57914800Y-104013000D02*
X47033000Y-93131200D01*
X73787000Y-100203000D02*
X69977000Y-104013000D01*
X69977000Y-104013000D02*
X57914800Y-104013000D01*
G04 #@! TO.N,R15*
X73787000Y-102743000D02*
X70198200Y-106331800D01*
X70198200Y-106331800D02*
X54261900Y-106331800D01*
X54261900Y-106331800D02*
X43180100Y-95250000D01*
X43180100Y-95250000D02*
X43180000Y-95250000D01*
G04 #@! TO.N,R14*
X41783000Y-94107000D02*
X43180000Y-92710000D01*
X72287800Y-106782200D02*
X54075400Y-106782200D01*
X73787000Y-105283000D02*
X72287800Y-106782200D01*
X54075400Y-106782200D02*
X43813200Y-96520000D01*
X43813200Y-96520000D02*
X42418000Y-96520000D01*
X42418000Y-96520000D02*
X41783000Y-95885000D01*
X41783000Y-95885000D02*
X41783000Y-94107000D01*
G04 #@! TO.N,en_C0*
X88900000Y-45720000D02*
X87724700Y-45720000D01*
X58547000Y-54737000D02*
X64897000Y-48387000D01*
X64897000Y-48387000D02*
X75523600Y-48387000D01*
X75523600Y-48387000D02*
X77015300Y-46895300D01*
X77015300Y-46895300D02*
X86549400Y-46895300D01*
X86549400Y-46895300D02*
X87724700Y-45720000D01*
G04 #@! TO.N,en_C1*
X81280000Y-66040000D02*
X82550000Y-67310000D01*
X64651700Y-66040000D02*
X81280000Y-66040000D01*
X63137500Y-64403500D02*
X63137500Y-64525800D01*
X63137500Y-64525800D02*
X64651700Y-66040000D01*
G04 #@! TO.N,en_C2*
X88900000Y-60960000D02*
X59690000Y-60960000D01*
X59690000Y-60960000D02*
X58547000Y-59817000D01*
G04 #@! TO.N,en_C3*
X81280000Y-71120000D02*
X82550000Y-72390000D01*
X58547000Y-62357000D02*
X67310000Y-71120000D01*
X67310000Y-71120000D02*
X81280000Y-71120000D01*
G04 #@! TO.N,en_C4*
X82550000Y-74930000D02*
X83725300Y-74930000D01*
X88900000Y-76200000D02*
X84995300Y-76200000D01*
X84995300Y-76200000D02*
X83725300Y-74930000D01*
X81280000Y-73660000D02*
X82550000Y-74930000D01*
X58547000Y-64897000D02*
X67310000Y-73660000D01*
X67310000Y-73660000D02*
X81280000Y-73660000D01*
G04 #@! TO.N,en_C5*
X88092000Y-83820000D02*
X82550000Y-78278000D01*
X88900000Y-83820000D02*
X88092000Y-83820000D01*
X82550000Y-78278000D02*
X82550000Y-77470000D01*
X81280000Y-76200000D02*
X82550000Y-77470000D01*
X58547000Y-67437000D02*
X67310000Y-76200000D01*
X67310000Y-76200000D02*
X81280000Y-76200000D01*
G04 #@! TO.N,en_C6*
X81280000Y-78740000D02*
X82550000Y-80010000D01*
X58547000Y-69977000D02*
X67310000Y-78740000D01*
X67310000Y-78740000D02*
X81280000Y-78740000D01*
G04 #@! TO.N,en_C7*
X82182800Y-82550000D02*
X82550000Y-82550000D01*
X80912800Y-81280000D02*
X82182800Y-82550000D01*
X58547000Y-72517000D02*
X67310000Y-81280000D01*
X67310000Y-81280000D02*
X80912800Y-81280000D01*
G04 #@! TO.N,Net-(R9-Pad2)*
X73787000Y-47117000D02*
X75184000Y-45720000D01*
X75184000Y-45720000D02*
X80010000Y-45720000D01*
G04 #@! TO.N,Net-(R10-Pad2)*
X80010000Y-93980000D02*
X78834700Y-93980000D01*
X73787000Y-90043000D02*
X74897700Y-90043000D01*
X74897700Y-90043000D02*
X78834700Y-93980000D01*
G04 #@! TO.N,~OE*
X45353001Y-116473001D02*
X62723995Y-116473001D01*
X62723995Y-116473001D02*
X63353997Y-115842999D01*
X63353997Y-115842999D02*
X63753996Y-115443000D01*
X41910000Y-113030000D02*
X45353001Y-116473001D01*
G04 #@! TD*
D16*
G04 #@! TO.N,+5V*
G36*
X53255773Y-114657476D02*
X53298171Y-114720929D01*
X53361624Y-114763327D01*
X53361626Y-114763329D01*
X53439663Y-114815471D01*
X53549563Y-114888904D01*
X53771248Y-114933000D01*
X53771252Y-114933000D01*
X53846099Y-114947888D01*
X53920946Y-114933000D01*
X57307843Y-114933000D01*
X57207000Y-115176457D01*
X57207000Y-115709543D01*
X57208432Y-115713001D01*
X45667803Y-115713001D01*
X43351209Y-113396408D01*
X43424092Y-113030000D01*
X43308839Y-112450582D01*
X42980625Y-111959375D01*
X42489418Y-111631161D01*
X42056256Y-111545000D01*
X41763744Y-111545000D01*
X41330582Y-111631161D01*
X40839375Y-111959375D01*
X40640000Y-112257761D01*
X40440625Y-111959375D01*
X39949418Y-111631161D01*
X39516256Y-111545000D01*
X39223744Y-111545000D01*
X38790582Y-111631161D01*
X38299375Y-111959375D01*
X38100000Y-112257761D01*
X37900625Y-111959375D01*
X37409418Y-111631161D01*
X36976256Y-111545000D01*
X36683744Y-111545000D01*
X36250582Y-111631161D01*
X35759375Y-111959375D01*
X35560000Y-112257761D01*
X35360625Y-111959375D01*
X34869418Y-111631161D01*
X34436256Y-111545000D01*
X34143744Y-111545000D01*
X33710582Y-111631161D01*
X33219375Y-111959375D01*
X33020000Y-112257761D01*
X32820625Y-111959375D01*
X32329418Y-111631161D01*
X31896256Y-111545000D01*
X31603744Y-111545000D01*
X31170582Y-111631161D01*
X30679375Y-111959375D01*
X30664904Y-111981033D01*
X30598327Y-111820302D01*
X30419699Y-111641673D01*
X30186310Y-111545000D01*
X29495750Y-111545000D01*
X29337000Y-111703750D01*
X29337000Y-112903000D01*
X29357000Y-112903000D01*
X29357000Y-113157000D01*
X29337000Y-113157000D01*
X29337000Y-114356250D01*
X29495750Y-114515000D01*
X30186310Y-114515000D01*
X30419699Y-114418327D01*
X30598327Y-114239698D01*
X30664904Y-114078967D01*
X30679375Y-114100625D01*
X31170582Y-114428839D01*
X31603744Y-114515000D01*
X31896256Y-114515000D01*
X32116408Y-114471209D01*
X35020198Y-117375000D01*
X26597612Y-117375000D01*
X26594193Y-117375680D01*
X26482213Y-117355935D01*
X26317081Y-117260596D01*
X26194512Y-117114524D01*
X26130032Y-116937366D01*
X26135000Y-116912388D01*
X26135000Y-113315750D01*
X27725000Y-113315750D01*
X27725000Y-114006309D01*
X27821673Y-114239698D01*
X28000301Y-114418327D01*
X28233690Y-114515000D01*
X28924250Y-114515000D01*
X29083000Y-114356250D01*
X29083000Y-113157000D01*
X27883750Y-113157000D01*
X27725000Y-113315750D01*
X26135000Y-113315750D01*
X26135000Y-112053691D01*
X27725000Y-112053691D01*
X27725000Y-112744250D01*
X27883750Y-112903000D01*
X29083000Y-112903000D01*
X29083000Y-111703750D01*
X28924250Y-111545000D01*
X28233690Y-111545000D01*
X28000301Y-111641673D01*
X27821673Y-111820302D01*
X27725000Y-112053691D01*
X26135000Y-112053691D01*
X26135000Y-97059801D01*
X26458779Y-97383580D01*
X26416000Y-97486858D01*
X26416000Y-98093142D01*
X26648015Y-98653277D01*
X27054738Y-99060000D01*
X26648015Y-99466723D01*
X26416000Y-100026858D01*
X26416000Y-100633142D01*
X26648015Y-101193277D01*
X27076723Y-101621985D01*
X27636858Y-101854000D01*
X28243142Y-101854000D01*
X28803277Y-101621985D01*
X29231985Y-101193277D01*
X29464000Y-100633142D01*
X29464000Y-100026858D01*
X29231985Y-99466723D01*
X28825262Y-99060000D01*
X29231985Y-98653277D01*
X29464000Y-98093142D01*
X29464000Y-97486858D01*
X29231985Y-96926723D01*
X28825262Y-96520000D01*
X29231985Y-96113277D01*
X29464000Y-95553142D01*
X29464000Y-94946858D01*
X29231985Y-94386723D01*
X28825262Y-93980000D01*
X29231985Y-93573277D01*
X29464000Y-93013142D01*
X29464000Y-92406858D01*
X29231985Y-91846723D01*
X28825262Y-91440000D01*
X29231985Y-91033277D01*
X29349022Y-90750723D01*
X53255773Y-114657476D01*
X53255773Y-114657476D01*
G37*
X53255773Y-114657476D02*
X53298171Y-114720929D01*
X53361624Y-114763327D01*
X53361626Y-114763329D01*
X53439663Y-114815471D01*
X53549563Y-114888904D01*
X53771248Y-114933000D01*
X53771252Y-114933000D01*
X53846099Y-114947888D01*
X53920946Y-114933000D01*
X57307843Y-114933000D01*
X57207000Y-115176457D01*
X57207000Y-115709543D01*
X57208432Y-115713001D01*
X45667803Y-115713001D01*
X43351209Y-113396408D01*
X43424092Y-113030000D01*
X43308839Y-112450582D01*
X42980625Y-111959375D01*
X42489418Y-111631161D01*
X42056256Y-111545000D01*
X41763744Y-111545000D01*
X41330582Y-111631161D01*
X40839375Y-111959375D01*
X40640000Y-112257761D01*
X40440625Y-111959375D01*
X39949418Y-111631161D01*
X39516256Y-111545000D01*
X39223744Y-111545000D01*
X38790582Y-111631161D01*
X38299375Y-111959375D01*
X38100000Y-112257761D01*
X37900625Y-111959375D01*
X37409418Y-111631161D01*
X36976256Y-111545000D01*
X36683744Y-111545000D01*
X36250582Y-111631161D01*
X35759375Y-111959375D01*
X35560000Y-112257761D01*
X35360625Y-111959375D01*
X34869418Y-111631161D01*
X34436256Y-111545000D01*
X34143744Y-111545000D01*
X33710582Y-111631161D01*
X33219375Y-111959375D01*
X33020000Y-112257761D01*
X32820625Y-111959375D01*
X32329418Y-111631161D01*
X31896256Y-111545000D01*
X31603744Y-111545000D01*
X31170582Y-111631161D01*
X30679375Y-111959375D01*
X30664904Y-111981033D01*
X30598327Y-111820302D01*
X30419699Y-111641673D01*
X30186310Y-111545000D01*
X29495750Y-111545000D01*
X29337000Y-111703750D01*
X29337000Y-112903000D01*
X29357000Y-112903000D01*
X29357000Y-113157000D01*
X29337000Y-113157000D01*
X29337000Y-114356250D01*
X29495750Y-114515000D01*
X30186310Y-114515000D01*
X30419699Y-114418327D01*
X30598327Y-114239698D01*
X30664904Y-114078967D01*
X30679375Y-114100625D01*
X31170582Y-114428839D01*
X31603744Y-114515000D01*
X31896256Y-114515000D01*
X32116408Y-114471209D01*
X35020198Y-117375000D01*
X26597612Y-117375000D01*
X26594193Y-117375680D01*
X26482213Y-117355935D01*
X26317081Y-117260596D01*
X26194512Y-117114524D01*
X26130032Y-116937366D01*
X26135000Y-116912388D01*
X26135000Y-113315750D01*
X27725000Y-113315750D01*
X27725000Y-114006309D01*
X27821673Y-114239698D01*
X28000301Y-114418327D01*
X28233690Y-114515000D01*
X28924250Y-114515000D01*
X29083000Y-114356250D01*
X29083000Y-113157000D01*
X27883750Y-113157000D01*
X27725000Y-113315750D01*
X26135000Y-113315750D01*
X26135000Y-112053691D01*
X27725000Y-112053691D01*
X27725000Y-112744250D01*
X27883750Y-112903000D01*
X29083000Y-112903000D01*
X29083000Y-111703750D01*
X28924250Y-111545000D01*
X28233690Y-111545000D01*
X28000301Y-111641673D01*
X27821673Y-111820302D01*
X27725000Y-112053691D01*
X26135000Y-112053691D01*
X26135000Y-97059801D01*
X26458779Y-97383580D01*
X26416000Y-97486858D01*
X26416000Y-98093142D01*
X26648015Y-98653277D01*
X27054738Y-99060000D01*
X26648015Y-99466723D01*
X26416000Y-100026858D01*
X26416000Y-100633142D01*
X26648015Y-101193277D01*
X27076723Y-101621985D01*
X27636858Y-101854000D01*
X28243142Y-101854000D01*
X28803277Y-101621985D01*
X29231985Y-101193277D01*
X29464000Y-100633142D01*
X29464000Y-100026858D01*
X29231985Y-99466723D01*
X28825262Y-99060000D01*
X29231985Y-98653277D01*
X29464000Y-98093142D01*
X29464000Y-97486858D01*
X29231985Y-96926723D01*
X28825262Y-96520000D01*
X29231985Y-96113277D01*
X29464000Y-95553142D01*
X29464000Y-94946858D01*
X29231985Y-94386723D01*
X28825262Y-93980000D01*
X29231985Y-93573277D01*
X29464000Y-93013142D01*
X29464000Y-92406858D01*
X29231985Y-91846723D01*
X28825262Y-91440000D01*
X29231985Y-91033277D01*
X29349022Y-90750723D01*
X53255773Y-114657476D01*
G36*
X91627787Y-40124065D02*
X91792920Y-40219405D01*
X91915488Y-40365477D01*
X91979969Y-40542633D01*
X91975000Y-40567613D01*
X91975001Y-116775689D01*
X91932081Y-117019103D01*
X91841147Y-117176604D01*
X91701831Y-117293504D01*
X91500077Y-117366937D01*
X91407911Y-117375000D01*
X74446201Y-117375000D01*
X75825073Y-115996129D01*
X75888529Y-115953729D01*
X76056504Y-115702337D01*
X76100600Y-115480652D01*
X76100600Y-115480648D01*
X76115488Y-115405800D01*
X76100600Y-115330952D01*
X76100600Y-97280000D01*
X78512560Y-97280000D01*
X78512560Y-97370000D01*
X78561843Y-97617765D01*
X78702191Y-97827809D01*
X78912235Y-97968157D01*
X79160000Y-98017440D01*
X80860000Y-98017440D01*
X81107765Y-97968157D01*
X81317809Y-97827809D01*
X81458157Y-97617765D01*
X81507440Y-97370000D01*
X81507440Y-96457541D01*
X87134371Y-102084473D01*
X87176771Y-102147929D01*
X87428163Y-102315904D01*
X87617526Y-102353571D01*
X87829375Y-102670625D01*
X88320582Y-102998839D01*
X88753744Y-103085000D01*
X89046256Y-103085000D01*
X89479418Y-102998839D01*
X89970625Y-102670625D01*
X90298839Y-102179418D01*
X90414092Y-101600000D01*
X90298839Y-101020582D01*
X89970625Y-100529375D01*
X89672239Y-100330000D01*
X89970625Y-100130625D01*
X90298839Y-99639418D01*
X90414092Y-99060000D01*
X90298839Y-98480582D01*
X89970625Y-97989375D01*
X89948967Y-97974904D01*
X90109698Y-97908327D01*
X90288327Y-97729699D01*
X90385000Y-97496310D01*
X90385000Y-96805750D01*
X90226250Y-96647000D01*
X89027000Y-96647000D01*
X89027000Y-96667000D01*
X88773000Y-96667000D01*
X88773000Y-96647000D01*
X87573750Y-96647000D01*
X87415000Y-96805750D01*
X87415000Y-97496310D01*
X87511673Y-97729699D01*
X87690302Y-97908327D01*
X87851033Y-97974904D01*
X87829375Y-97989375D01*
X87501161Y-98480582D01*
X87385908Y-99060000D01*
X87501161Y-99639418D01*
X87829375Y-100130625D01*
X88127761Y-100330000D01*
X87829375Y-100529375D01*
X87789121Y-100589619D01*
X82059631Y-94860130D01*
X82017229Y-94796671D01*
X81765837Y-94628696D01*
X81544152Y-94584600D01*
X81544147Y-94584600D01*
X81469300Y-94569712D01*
X81394453Y-94584600D01*
X81392013Y-94584600D01*
X81408839Y-94559418D01*
X81524092Y-93980000D01*
X81408839Y-93400582D01*
X81080625Y-92909375D01*
X80589418Y-92581161D01*
X80156256Y-92495000D01*
X79863744Y-92495000D01*
X79430582Y-92581161D01*
X78939375Y-92909375D01*
X78899121Y-92969619D01*
X75488031Y-89558530D01*
X75470972Y-89533000D01*
X82202899Y-89533000D01*
X87134371Y-94464473D01*
X87176771Y-94527929D01*
X87428163Y-94695904D01*
X87617526Y-94733571D01*
X87829375Y-95050625D01*
X87851033Y-95065096D01*
X87690302Y-95131673D01*
X87511673Y-95310301D01*
X87415000Y-95543690D01*
X87415000Y-96234250D01*
X87573750Y-96393000D01*
X88773000Y-96393000D01*
X88773000Y-96373000D01*
X89027000Y-96373000D01*
X89027000Y-96393000D01*
X90226250Y-96393000D01*
X90385000Y-96234250D01*
X90385000Y-95543690D01*
X90288327Y-95310301D01*
X90109698Y-95131673D01*
X89948967Y-95065096D01*
X89970625Y-95050625D01*
X90298839Y-94559418D01*
X90414092Y-93980000D01*
X90298839Y-93400582D01*
X89970625Y-92909375D01*
X89672239Y-92710000D01*
X89970625Y-92510625D01*
X90298839Y-92019418D01*
X90414092Y-91440000D01*
X90298839Y-90860582D01*
X89970625Y-90369375D01*
X89948967Y-90354904D01*
X90109698Y-90288327D01*
X90288327Y-90109699D01*
X90385000Y-89876310D01*
X90385000Y-89185750D01*
X90226250Y-89027000D01*
X89027000Y-89027000D01*
X89027000Y-89047000D01*
X88773000Y-89047000D01*
X88773000Y-89027000D01*
X87573750Y-89027000D01*
X87415000Y-89185750D01*
X87415000Y-89876310D01*
X87511673Y-90109699D01*
X87690302Y-90288327D01*
X87851033Y-90354904D01*
X87829375Y-90369375D01*
X87501161Y-90860582D01*
X87385908Y-91440000D01*
X87501161Y-92019418D01*
X87829375Y-92510625D01*
X88127761Y-92710000D01*
X87829375Y-92909375D01*
X87789121Y-92969619D01*
X83108031Y-88288530D01*
X83065629Y-88225071D01*
X82814237Y-88057096D01*
X82592552Y-88013000D01*
X82592547Y-88013000D01*
X82517700Y-87998112D01*
X82442853Y-88013000D01*
X75028042Y-88013000D01*
X75139398Y-87697074D01*
X75110722Y-87164760D01*
X75092182Y-87120000D01*
X87621822Y-87120000D01*
X87829375Y-87430625D01*
X87851033Y-87445096D01*
X87690302Y-87511673D01*
X87511673Y-87690301D01*
X87415000Y-87923690D01*
X87415000Y-88614250D01*
X87573750Y-88773000D01*
X88773000Y-88773000D01*
X88773000Y-88753000D01*
X89027000Y-88753000D01*
X89027000Y-88773000D01*
X90226250Y-88773000D01*
X90385000Y-88614250D01*
X90385000Y-87923690D01*
X90288327Y-87690301D01*
X90109698Y-87511673D01*
X89948967Y-87445096D01*
X89970625Y-87430625D01*
X90298839Y-86939418D01*
X90414092Y-86360000D01*
X90298839Y-85780582D01*
X89970625Y-85289375D01*
X89672239Y-85090000D01*
X89970625Y-84890625D01*
X90298839Y-84399418D01*
X90414092Y-83820000D01*
X90298839Y-83240582D01*
X89970625Y-82749375D01*
X89948967Y-82734904D01*
X90109698Y-82668327D01*
X90288327Y-82489699D01*
X90385000Y-82256310D01*
X90385000Y-81565750D01*
X90226250Y-81407000D01*
X89027000Y-81407000D01*
X89027000Y-81427000D01*
X88773000Y-81427000D01*
X88773000Y-81407000D01*
X87573750Y-81407000D01*
X87415000Y-81565750D01*
X87415000Y-82068198D01*
X83727491Y-78380689D01*
X83948839Y-78049418D01*
X84064092Y-77470000D01*
X83948839Y-76890582D01*
X83620625Y-76399375D01*
X83322239Y-76200000D01*
X83620625Y-76000625D01*
X83660879Y-75940380D01*
X84404970Y-76684472D01*
X84447371Y-76747929D01*
X84698763Y-76915904D01*
X84920448Y-76960000D01*
X84920452Y-76960000D01*
X84995299Y-76974888D01*
X85070146Y-76960000D01*
X87621822Y-76960000D01*
X87829375Y-77270625D01*
X88127761Y-77470000D01*
X87829375Y-77669375D01*
X87501161Y-78160582D01*
X87385908Y-78740000D01*
X87501161Y-79319418D01*
X87829375Y-79810625D01*
X87851033Y-79825096D01*
X87690302Y-79891673D01*
X87511673Y-80070301D01*
X87415000Y-80303690D01*
X87415000Y-80994250D01*
X87573750Y-81153000D01*
X88773000Y-81153000D01*
X88773000Y-81133000D01*
X89027000Y-81133000D01*
X89027000Y-81153000D01*
X90226250Y-81153000D01*
X90385000Y-80994250D01*
X90385000Y-80303690D01*
X90288327Y-80070301D01*
X90109698Y-79891673D01*
X89948967Y-79825096D01*
X89970625Y-79810625D01*
X90298839Y-79319418D01*
X90414092Y-78740000D01*
X90341209Y-78373593D01*
X91037576Y-77677227D01*
X91101029Y-77634829D01*
X91143427Y-77571376D01*
X91143429Y-77571374D01*
X91269003Y-77383438D01*
X91269004Y-77383437D01*
X91313100Y-77161752D01*
X91313100Y-77161748D01*
X91327988Y-77086901D01*
X91313100Y-77012054D01*
X91313100Y-42733546D01*
X91327988Y-42658699D01*
X91313100Y-42583852D01*
X91313100Y-42583848D01*
X91269004Y-42362163D01*
X91101029Y-42110771D01*
X91037573Y-42068371D01*
X90129531Y-41160330D01*
X90087129Y-41096871D01*
X89835737Y-40928896D01*
X89614052Y-40884800D01*
X89614047Y-40884800D01*
X89539200Y-40869912D01*
X89464353Y-40884800D01*
X75570800Y-40884800D01*
X75570800Y-40627126D01*
X75413231Y-40246720D01*
X75271511Y-40105000D01*
X91512388Y-40105000D01*
X91515807Y-40104320D01*
X91627787Y-40124065D01*
X91627787Y-40124065D01*
G37*
X91627787Y-40124065D02*
X91792920Y-40219405D01*
X91915488Y-40365477D01*
X91979969Y-40542633D01*
X91975000Y-40567613D01*
X91975001Y-116775689D01*
X91932081Y-117019103D01*
X91841147Y-117176604D01*
X91701831Y-117293504D01*
X91500077Y-117366937D01*
X91407911Y-117375000D01*
X74446201Y-117375000D01*
X75825073Y-115996129D01*
X75888529Y-115953729D01*
X76056504Y-115702337D01*
X76100600Y-115480652D01*
X76100600Y-115480648D01*
X76115488Y-115405800D01*
X76100600Y-115330952D01*
X76100600Y-97280000D01*
X78512560Y-97280000D01*
X78512560Y-97370000D01*
X78561843Y-97617765D01*
X78702191Y-97827809D01*
X78912235Y-97968157D01*
X79160000Y-98017440D01*
X80860000Y-98017440D01*
X81107765Y-97968157D01*
X81317809Y-97827809D01*
X81458157Y-97617765D01*
X81507440Y-97370000D01*
X81507440Y-96457541D01*
X87134371Y-102084473D01*
X87176771Y-102147929D01*
X87428163Y-102315904D01*
X87617526Y-102353571D01*
X87829375Y-102670625D01*
X88320582Y-102998839D01*
X88753744Y-103085000D01*
X89046256Y-103085000D01*
X89479418Y-102998839D01*
X89970625Y-102670625D01*
X90298839Y-102179418D01*
X90414092Y-101600000D01*
X90298839Y-101020582D01*
X89970625Y-100529375D01*
X89672239Y-100330000D01*
X89970625Y-100130625D01*
X90298839Y-99639418D01*
X90414092Y-99060000D01*
X90298839Y-98480582D01*
X89970625Y-97989375D01*
X89948967Y-97974904D01*
X90109698Y-97908327D01*
X90288327Y-97729699D01*
X90385000Y-97496310D01*
X90385000Y-96805750D01*
X90226250Y-96647000D01*
X89027000Y-96647000D01*
X89027000Y-96667000D01*
X88773000Y-96667000D01*
X88773000Y-96647000D01*
X87573750Y-96647000D01*
X87415000Y-96805750D01*
X87415000Y-97496310D01*
X87511673Y-97729699D01*
X87690302Y-97908327D01*
X87851033Y-97974904D01*
X87829375Y-97989375D01*
X87501161Y-98480582D01*
X87385908Y-99060000D01*
X87501161Y-99639418D01*
X87829375Y-100130625D01*
X88127761Y-100330000D01*
X87829375Y-100529375D01*
X87789121Y-100589619D01*
X82059631Y-94860130D01*
X82017229Y-94796671D01*
X81765837Y-94628696D01*
X81544152Y-94584600D01*
X81544147Y-94584600D01*
X81469300Y-94569712D01*
X81394453Y-94584600D01*
X81392013Y-94584600D01*
X81408839Y-94559418D01*
X81524092Y-93980000D01*
X81408839Y-93400582D01*
X81080625Y-92909375D01*
X80589418Y-92581161D01*
X80156256Y-92495000D01*
X79863744Y-92495000D01*
X79430582Y-92581161D01*
X78939375Y-92909375D01*
X78899121Y-92969619D01*
X75488031Y-89558530D01*
X75470972Y-89533000D01*
X82202899Y-89533000D01*
X87134371Y-94464473D01*
X87176771Y-94527929D01*
X87428163Y-94695904D01*
X87617526Y-94733571D01*
X87829375Y-95050625D01*
X87851033Y-95065096D01*
X87690302Y-95131673D01*
X87511673Y-95310301D01*
X87415000Y-95543690D01*
X87415000Y-96234250D01*
X87573750Y-96393000D01*
X88773000Y-96393000D01*
X88773000Y-96373000D01*
X89027000Y-96373000D01*
X89027000Y-96393000D01*
X90226250Y-96393000D01*
X90385000Y-96234250D01*
X90385000Y-95543690D01*
X90288327Y-95310301D01*
X90109698Y-95131673D01*
X89948967Y-95065096D01*
X89970625Y-95050625D01*
X90298839Y-94559418D01*
X90414092Y-93980000D01*
X90298839Y-93400582D01*
X89970625Y-92909375D01*
X89672239Y-92710000D01*
X89970625Y-92510625D01*
X90298839Y-92019418D01*
X90414092Y-91440000D01*
X90298839Y-90860582D01*
X89970625Y-90369375D01*
X89948967Y-90354904D01*
X90109698Y-90288327D01*
X90288327Y-90109699D01*
X90385000Y-89876310D01*
X90385000Y-89185750D01*
X90226250Y-89027000D01*
X89027000Y-89027000D01*
X89027000Y-89047000D01*
X88773000Y-89047000D01*
X88773000Y-89027000D01*
X87573750Y-89027000D01*
X87415000Y-89185750D01*
X87415000Y-89876310D01*
X87511673Y-90109699D01*
X87690302Y-90288327D01*
X87851033Y-90354904D01*
X87829375Y-90369375D01*
X87501161Y-90860582D01*
X87385908Y-91440000D01*
X87501161Y-92019418D01*
X87829375Y-92510625D01*
X88127761Y-92710000D01*
X87829375Y-92909375D01*
X87789121Y-92969619D01*
X83108031Y-88288530D01*
X83065629Y-88225071D01*
X82814237Y-88057096D01*
X82592552Y-88013000D01*
X82592547Y-88013000D01*
X82517700Y-87998112D01*
X82442853Y-88013000D01*
X75028042Y-88013000D01*
X75139398Y-87697074D01*
X75110722Y-87164760D01*
X75092182Y-87120000D01*
X87621822Y-87120000D01*
X87829375Y-87430625D01*
X87851033Y-87445096D01*
X87690302Y-87511673D01*
X87511673Y-87690301D01*
X87415000Y-87923690D01*
X87415000Y-88614250D01*
X87573750Y-88773000D01*
X88773000Y-88773000D01*
X88773000Y-88753000D01*
X89027000Y-88753000D01*
X89027000Y-88773000D01*
X90226250Y-88773000D01*
X90385000Y-88614250D01*
X90385000Y-87923690D01*
X90288327Y-87690301D01*
X90109698Y-87511673D01*
X89948967Y-87445096D01*
X89970625Y-87430625D01*
X90298839Y-86939418D01*
X90414092Y-86360000D01*
X90298839Y-85780582D01*
X89970625Y-85289375D01*
X89672239Y-85090000D01*
X89970625Y-84890625D01*
X90298839Y-84399418D01*
X90414092Y-83820000D01*
X90298839Y-83240582D01*
X89970625Y-82749375D01*
X89948967Y-82734904D01*
X90109698Y-82668327D01*
X90288327Y-82489699D01*
X90385000Y-82256310D01*
X90385000Y-81565750D01*
X90226250Y-81407000D01*
X89027000Y-81407000D01*
X89027000Y-81427000D01*
X88773000Y-81427000D01*
X88773000Y-81407000D01*
X87573750Y-81407000D01*
X87415000Y-81565750D01*
X87415000Y-82068198D01*
X83727491Y-78380689D01*
X83948839Y-78049418D01*
X84064092Y-77470000D01*
X83948839Y-76890582D01*
X83620625Y-76399375D01*
X83322239Y-76200000D01*
X83620625Y-76000625D01*
X83660879Y-75940380D01*
X84404970Y-76684472D01*
X84447371Y-76747929D01*
X84698763Y-76915904D01*
X84920448Y-76960000D01*
X84920452Y-76960000D01*
X84995299Y-76974888D01*
X85070146Y-76960000D01*
X87621822Y-76960000D01*
X87829375Y-77270625D01*
X88127761Y-77470000D01*
X87829375Y-77669375D01*
X87501161Y-78160582D01*
X87385908Y-78740000D01*
X87501161Y-79319418D01*
X87829375Y-79810625D01*
X87851033Y-79825096D01*
X87690302Y-79891673D01*
X87511673Y-80070301D01*
X87415000Y-80303690D01*
X87415000Y-80994250D01*
X87573750Y-81153000D01*
X88773000Y-81153000D01*
X88773000Y-81133000D01*
X89027000Y-81133000D01*
X89027000Y-81153000D01*
X90226250Y-81153000D01*
X90385000Y-80994250D01*
X90385000Y-80303690D01*
X90288327Y-80070301D01*
X90109698Y-79891673D01*
X89948967Y-79825096D01*
X89970625Y-79810625D01*
X90298839Y-79319418D01*
X90414092Y-78740000D01*
X90341209Y-78373593D01*
X91037576Y-77677227D01*
X91101029Y-77634829D01*
X91143427Y-77571376D01*
X91143429Y-77571374D01*
X91269003Y-77383438D01*
X91269004Y-77383437D01*
X91313100Y-77161752D01*
X91313100Y-77161748D01*
X91327988Y-77086901D01*
X91313100Y-77012054D01*
X91313100Y-42733546D01*
X91327988Y-42658699D01*
X91313100Y-42583852D01*
X91313100Y-42583848D01*
X91269004Y-42362163D01*
X91101029Y-42110771D01*
X91037573Y-42068371D01*
X90129531Y-41160330D01*
X90087129Y-41096871D01*
X89835737Y-40928896D01*
X89614052Y-40884800D01*
X89614047Y-40884800D01*
X89539200Y-40869912D01*
X89464353Y-40884800D01*
X75570800Y-40884800D01*
X75570800Y-40627126D01*
X75413231Y-40246720D01*
X75271511Y-40105000D01*
X91512388Y-40105000D01*
X91515807Y-40104320D01*
X91627787Y-40124065D01*
G36*
X51386743Y-88840544D02*
X50999375Y-89099375D01*
X50671161Y-89590582D01*
X50555908Y-90170000D01*
X50671161Y-90749418D01*
X50999375Y-91240625D01*
X51021033Y-91255096D01*
X50860302Y-91321673D01*
X50681673Y-91500301D01*
X50585000Y-91733690D01*
X50585000Y-92424250D01*
X50743750Y-92583000D01*
X51943000Y-92583000D01*
X51943000Y-92563000D01*
X52197000Y-92563000D01*
X52197000Y-92583000D01*
X53396250Y-92583000D01*
X53555000Y-92424250D01*
X53555000Y-91733690D01*
X53458327Y-91500301D01*
X53279698Y-91321673D01*
X53118967Y-91255096D01*
X53140625Y-91240625D01*
X53399456Y-90853258D01*
X54902401Y-92356203D01*
X54902400Y-97243553D01*
X54887512Y-97318400D01*
X54900774Y-97385072D01*
X51710701Y-94195000D01*
X51784250Y-94195000D01*
X51943000Y-94036250D01*
X51943000Y-92837000D01*
X52197000Y-92837000D01*
X52197000Y-94036250D01*
X52355750Y-94195000D01*
X53046309Y-94195000D01*
X53279698Y-94098327D01*
X53458327Y-93919699D01*
X53555000Y-93686310D01*
X53555000Y-92995750D01*
X53396250Y-92837000D01*
X52197000Y-92837000D01*
X51943000Y-92837000D01*
X50743750Y-92837000D01*
X50585000Y-92995750D01*
X50585000Y-93069299D01*
X48794200Y-91278499D01*
X48794200Y-91112426D01*
X48636631Y-90732020D01*
X48345480Y-90440869D01*
X47965074Y-90283300D01*
X47553326Y-90283300D01*
X47172920Y-90440869D01*
X47049495Y-90564294D01*
X44900731Y-88415530D01*
X44858329Y-88352071D01*
X44606937Y-88184096D01*
X44600576Y-88182831D01*
X44704000Y-87933142D01*
X44704000Y-87326858D01*
X44471985Y-86766723D01*
X44065262Y-86360000D01*
X44471985Y-85953277D01*
X44704000Y-85393142D01*
X44704000Y-84786858D01*
X44471985Y-84226723D01*
X44065262Y-83820000D01*
X44471985Y-83413277D01*
X44704000Y-82853142D01*
X44704000Y-82246858D01*
X44641027Y-82094829D01*
X51386743Y-88840544D01*
X51386743Y-88840544D01*
G37*
X51386743Y-88840544D02*
X50999375Y-89099375D01*
X50671161Y-89590582D01*
X50555908Y-90170000D01*
X50671161Y-90749418D01*
X50999375Y-91240625D01*
X51021033Y-91255096D01*
X50860302Y-91321673D01*
X50681673Y-91500301D01*
X50585000Y-91733690D01*
X50585000Y-92424250D01*
X50743750Y-92583000D01*
X51943000Y-92583000D01*
X51943000Y-92563000D01*
X52197000Y-92563000D01*
X52197000Y-92583000D01*
X53396250Y-92583000D01*
X53555000Y-92424250D01*
X53555000Y-91733690D01*
X53458327Y-91500301D01*
X53279698Y-91321673D01*
X53118967Y-91255096D01*
X53140625Y-91240625D01*
X53399456Y-90853258D01*
X54902401Y-92356203D01*
X54902400Y-97243553D01*
X54887512Y-97318400D01*
X54900774Y-97385072D01*
X51710701Y-94195000D01*
X51784250Y-94195000D01*
X51943000Y-94036250D01*
X51943000Y-92837000D01*
X52197000Y-92837000D01*
X52197000Y-94036250D01*
X52355750Y-94195000D01*
X53046309Y-94195000D01*
X53279698Y-94098327D01*
X53458327Y-93919699D01*
X53555000Y-93686310D01*
X53555000Y-92995750D01*
X53396250Y-92837000D01*
X52197000Y-92837000D01*
X51943000Y-92837000D01*
X50743750Y-92837000D01*
X50585000Y-92995750D01*
X50585000Y-93069299D01*
X48794200Y-91278499D01*
X48794200Y-91112426D01*
X48636631Y-90732020D01*
X48345480Y-90440869D01*
X47965074Y-90283300D01*
X47553326Y-90283300D01*
X47172920Y-90440869D01*
X47049495Y-90564294D01*
X44900731Y-88415530D01*
X44858329Y-88352071D01*
X44606937Y-88184096D01*
X44600576Y-88182831D01*
X44704000Y-87933142D01*
X44704000Y-87326858D01*
X44471985Y-86766723D01*
X44065262Y-86360000D01*
X44471985Y-85953277D01*
X44704000Y-85393142D01*
X44704000Y-84786858D01*
X44471985Y-84226723D01*
X44065262Y-83820000D01*
X44471985Y-83413277D01*
X44704000Y-82853142D01*
X44704000Y-82246858D01*
X44641027Y-82094829D01*
X51386743Y-88840544D01*
G36*
X73980748Y-87488858D02*
X73966605Y-87503000D01*
X73980748Y-87517143D01*
X73801143Y-87696748D01*
X73787000Y-87682605D01*
X73772858Y-87696748D01*
X73593253Y-87517143D01*
X73607395Y-87503000D01*
X73593253Y-87488858D01*
X73772858Y-87309253D01*
X73787000Y-87323395D01*
X73801143Y-87309253D01*
X73980748Y-87488858D01*
X73980748Y-87488858D01*
G37*
X73980748Y-87488858D02*
X73966605Y-87503000D01*
X73980748Y-87517143D01*
X73801143Y-87696748D01*
X73787000Y-87682605D01*
X73772858Y-87696748D01*
X73593253Y-87517143D01*
X73607395Y-87503000D01*
X73593253Y-87488858D01*
X73772858Y-87309253D01*
X73787000Y-87323395D01*
X73801143Y-87309253D01*
X73980748Y-87488858D01*
G36*
X57207000Y-64630457D02*
X57207000Y-65163543D01*
X57411003Y-65656049D01*
X57787951Y-66032997D01*
X58111462Y-66167000D01*
X57787951Y-66301003D01*
X57411003Y-66677951D01*
X57207000Y-67170457D01*
X57207000Y-67703543D01*
X57411003Y-68196049D01*
X57787951Y-68572997D01*
X58111462Y-68707000D01*
X57787951Y-68841003D01*
X57411003Y-69217951D01*
X57207000Y-69710457D01*
X57207000Y-70243543D01*
X57411003Y-70736049D01*
X57787951Y-71112997D01*
X58111462Y-71247000D01*
X57787951Y-71381003D01*
X57411003Y-71757951D01*
X57207000Y-72250457D01*
X57207000Y-72783543D01*
X57411003Y-73276049D01*
X57787951Y-73652997D01*
X58280457Y-73857000D01*
X58812199Y-73857000D01*
X66719673Y-81764476D01*
X66762071Y-81827929D01*
X66825524Y-81870327D01*
X66825526Y-81870329D01*
X66950902Y-81954102D01*
X67013463Y-81995904D01*
X67235148Y-82040000D01*
X67235152Y-82040000D01*
X67309999Y-82054888D01*
X67384846Y-82040000D01*
X78525000Y-82040000D01*
X78525000Y-82264250D01*
X78683750Y-82423000D01*
X79883000Y-82423000D01*
X79883000Y-82403000D01*
X80137000Y-82403000D01*
X80137000Y-82423000D01*
X80157000Y-82423000D01*
X80157000Y-82677000D01*
X80137000Y-82677000D01*
X80137000Y-83876250D01*
X80295750Y-84035000D01*
X80986310Y-84035000D01*
X81219699Y-83938327D01*
X81398327Y-83759698D01*
X81464904Y-83598967D01*
X81479375Y-83620625D01*
X81970582Y-83948839D01*
X82403744Y-84035000D01*
X82696256Y-84035000D01*
X83129418Y-83948839D01*
X83620625Y-83620625D01*
X83948839Y-83129418D01*
X84064092Y-82550000D01*
X83948839Y-81970582D01*
X83620625Y-81479375D01*
X83322239Y-81280000D01*
X83620625Y-81080625D01*
X83883862Y-80686663D01*
X87477459Y-84280261D01*
X87501161Y-84399418D01*
X87829375Y-84890625D01*
X88127761Y-85090000D01*
X87829375Y-85289375D01*
X87621822Y-85600000D01*
X65084802Y-85600000D01*
X62320552Y-82835750D01*
X78525000Y-82835750D01*
X78525000Y-83526309D01*
X78621673Y-83759698D01*
X78800301Y-83938327D01*
X79033690Y-84035000D01*
X79724250Y-84035000D01*
X79883000Y-83876250D01*
X79883000Y-82677000D01*
X78683750Y-82677000D01*
X78525000Y-82835750D01*
X62320552Y-82835750D01*
X44661221Y-65176420D01*
X44704000Y-65073142D01*
X44704000Y-64466858D01*
X44618317Y-64260000D01*
X57360449Y-64260000D01*
X57207000Y-64630457D01*
X57207000Y-64630457D01*
G37*
X57207000Y-64630457D02*
X57207000Y-65163543D01*
X57411003Y-65656049D01*
X57787951Y-66032997D01*
X58111462Y-66167000D01*
X57787951Y-66301003D01*
X57411003Y-66677951D01*
X57207000Y-67170457D01*
X57207000Y-67703543D01*
X57411003Y-68196049D01*
X57787951Y-68572997D01*
X58111462Y-68707000D01*
X57787951Y-68841003D01*
X57411003Y-69217951D01*
X57207000Y-69710457D01*
X57207000Y-70243543D01*
X57411003Y-70736049D01*
X57787951Y-71112997D01*
X58111462Y-71247000D01*
X57787951Y-71381003D01*
X57411003Y-71757951D01*
X57207000Y-72250457D01*
X57207000Y-72783543D01*
X57411003Y-73276049D01*
X57787951Y-73652997D01*
X58280457Y-73857000D01*
X58812199Y-73857000D01*
X66719673Y-81764476D01*
X66762071Y-81827929D01*
X66825524Y-81870327D01*
X66825526Y-81870329D01*
X66950902Y-81954102D01*
X67013463Y-81995904D01*
X67235148Y-82040000D01*
X67235152Y-82040000D01*
X67309999Y-82054888D01*
X67384846Y-82040000D01*
X78525000Y-82040000D01*
X78525000Y-82264250D01*
X78683750Y-82423000D01*
X79883000Y-82423000D01*
X79883000Y-82403000D01*
X80137000Y-82403000D01*
X80137000Y-82423000D01*
X80157000Y-82423000D01*
X80157000Y-82677000D01*
X80137000Y-82677000D01*
X80137000Y-83876250D01*
X80295750Y-84035000D01*
X80986310Y-84035000D01*
X81219699Y-83938327D01*
X81398327Y-83759698D01*
X81464904Y-83598967D01*
X81479375Y-83620625D01*
X81970582Y-83948839D01*
X82403744Y-84035000D01*
X82696256Y-84035000D01*
X83129418Y-83948839D01*
X83620625Y-83620625D01*
X83948839Y-83129418D01*
X84064092Y-82550000D01*
X83948839Y-81970582D01*
X83620625Y-81479375D01*
X83322239Y-81280000D01*
X83620625Y-81080625D01*
X83883862Y-80686663D01*
X87477459Y-84280261D01*
X87501161Y-84399418D01*
X87829375Y-84890625D01*
X88127761Y-85090000D01*
X87829375Y-85289375D01*
X87621822Y-85600000D01*
X65084802Y-85600000D01*
X62320552Y-82835750D01*
X78525000Y-82835750D01*
X78525000Y-83526309D01*
X78621673Y-83759698D01*
X78800301Y-83938327D01*
X79033690Y-84035000D01*
X79724250Y-84035000D01*
X79883000Y-83876250D01*
X79883000Y-82677000D01*
X78683750Y-82677000D01*
X78525000Y-82835750D01*
X62320552Y-82835750D01*
X44661221Y-65176420D01*
X44704000Y-65073142D01*
X44704000Y-64466858D01*
X44618317Y-64260000D01*
X57360449Y-64260000D01*
X57207000Y-64630457D01*
G36*
X66719673Y-79224476D02*
X66762071Y-79287929D01*
X66825524Y-79330327D01*
X66825526Y-79330329D01*
X66950902Y-79414102D01*
X67013463Y-79455904D01*
X67235148Y-79500000D01*
X67235152Y-79500000D01*
X67309999Y-79514888D01*
X67384846Y-79500000D01*
X78525000Y-79500000D01*
X78525000Y-79724250D01*
X78683750Y-79883000D01*
X79883000Y-79883000D01*
X79883000Y-79863000D01*
X80137000Y-79863000D01*
X80137000Y-79883000D01*
X80157000Y-79883000D01*
X80157000Y-80137000D01*
X80137000Y-80137000D01*
X80137000Y-80157000D01*
X79883000Y-80157000D01*
X79883000Y-80137000D01*
X78683750Y-80137000D01*
X78525000Y-80295750D01*
X78525000Y-80520000D01*
X67624803Y-80520000D01*
X59887000Y-72782199D01*
X59887000Y-72391801D01*
X66719673Y-79224476D01*
X66719673Y-79224476D01*
G37*
X66719673Y-79224476D02*
X66762071Y-79287929D01*
X66825524Y-79330327D01*
X66825526Y-79330329D01*
X66950902Y-79414102D01*
X67013463Y-79455904D01*
X67235148Y-79500000D01*
X67235152Y-79500000D01*
X67309999Y-79514888D01*
X67384846Y-79500000D01*
X78525000Y-79500000D01*
X78525000Y-79724250D01*
X78683750Y-79883000D01*
X79883000Y-79883000D01*
X79883000Y-79863000D01*
X80137000Y-79863000D01*
X80137000Y-79883000D01*
X80157000Y-79883000D01*
X80157000Y-80137000D01*
X80137000Y-80137000D01*
X80137000Y-80157000D01*
X79883000Y-80157000D01*
X79883000Y-80137000D01*
X78683750Y-80137000D01*
X78525000Y-80295750D01*
X78525000Y-80520000D01*
X67624803Y-80520000D01*
X59887000Y-72782199D01*
X59887000Y-72391801D01*
X66719673Y-79224476D01*
G36*
X66719673Y-76684476D02*
X66762071Y-76747929D01*
X66825524Y-76790327D01*
X66825526Y-76790329D01*
X66943672Y-76869271D01*
X67013463Y-76915904D01*
X67235148Y-76960000D01*
X67235152Y-76960000D01*
X67309999Y-76974888D01*
X67384846Y-76960000D01*
X78525000Y-76960000D01*
X78525000Y-77184250D01*
X78683750Y-77343000D01*
X79883000Y-77343000D01*
X79883000Y-77323000D01*
X80137000Y-77323000D01*
X80137000Y-77343000D01*
X80157000Y-77343000D01*
X80157000Y-77597000D01*
X80137000Y-77597000D01*
X80137000Y-77617000D01*
X79883000Y-77617000D01*
X79883000Y-77597000D01*
X78683750Y-77597000D01*
X78525000Y-77755750D01*
X78525000Y-77980000D01*
X67624803Y-77980000D01*
X59887000Y-70242199D01*
X59887000Y-69851801D01*
X66719673Y-76684476D01*
X66719673Y-76684476D01*
G37*
X66719673Y-76684476D02*
X66762071Y-76747929D01*
X66825524Y-76790327D01*
X66825526Y-76790329D01*
X66943672Y-76869271D01*
X67013463Y-76915904D01*
X67235148Y-76960000D01*
X67235152Y-76960000D01*
X67309999Y-76974888D01*
X67384846Y-76960000D01*
X78525000Y-76960000D01*
X78525000Y-77184250D01*
X78683750Y-77343000D01*
X79883000Y-77343000D01*
X79883000Y-77323000D01*
X80137000Y-77323000D01*
X80137000Y-77343000D01*
X80157000Y-77343000D01*
X80157000Y-77597000D01*
X80137000Y-77597000D01*
X80137000Y-77617000D01*
X79883000Y-77617000D01*
X79883000Y-77597000D01*
X78683750Y-77597000D01*
X78525000Y-77755750D01*
X78525000Y-77980000D01*
X67624803Y-77980000D01*
X59887000Y-70242199D01*
X59887000Y-69851801D01*
X66719673Y-76684476D01*
G36*
X66719673Y-74144476D02*
X66762071Y-74207929D01*
X66825524Y-74250327D01*
X66825526Y-74250329D01*
X66929803Y-74320004D01*
X67013463Y-74375904D01*
X67235148Y-74420000D01*
X67235152Y-74420000D01*
X67309999Y-74434888D01*
X67384846Y-74420000D01*
X78525000Y-74420000D01*
X78525000Y-74644250D01*
X78683750Y-74803000D01*
X79883000Y-74803000D01*
X79883000Y-74783000D01*
X80137000Y-74783000D01*
X80137000Y-74803000D01*
X80157000Y-74803000D01*
X80157000Y-75057000D01*
X80137000Y-75057000D01*
X80137000Y-75077000D01*
X79883000Y-75077000D01*
X79883000Y-75057000D01*
X78683750Y-75057000D01*
X78525000Y-75215750D01*
X78525000Y-75440000D01*
X67624803Y-75440000D01*
X59887000Y-67702199D01*
X59887000Y-67311801D01*
X66719673Y-74144476D01*
X66719673Y-74144476D01*
G37*
X66719673Y-74144476D02*
X66762071Y-74207929D01*
X66825524Y-74250327D01*
X66825526Y-74250329D01*
X66929803Y-74320004D01*
X67013463Y-74375904D01*
X67235148Y-74420000D01*
X67235152Y-74420000D01*
X67309999Y-74434888D01*
X67384846Y-74420000D01*
X78525000Y-74420000D01*
X78525000Y-74644250D01*
X78683750Y-74803000D01*
X79883000Y-74803000D01*
X79883000Y-74783000D01*
X80137000Y-74783000D01*
X80137000Y-74803000D01*
X80157000Y-74803000D01*
X80157000Y-75057000D01*
X80137000Y-75057000D01*
X80137000Y-75077000D01*
X79883000Y-75077000D01*
X79883000Y-75057000D01*
X78683750Y-75057000D01*
X78525000Y-75215750D01*
X78525000Y-75440000D01*
X67624803Y-75440000D01*
X59887000Y-67702199D01*
X59887000Y-67311801D01*
X66719673Y-74144476D01*
G36*
X87134373Y-71604476D02*
X87176771Y-71667929D01*
X87240224Y-71710327D01*
X87240226Y-71710329D01*
X87310075Y-71757000D01*
X87428163Y-71835904D01*
X87617526Y-71873571D01*
X87829375Y-72190625D01*
X87851033Y-72205096D01*
X87690302Y-72271673D01*
X87511673Y-72450301D01*
X87415000Y-72683690D01*
X87415000Y-73374250D01*
X87573750Y-73533000D01*
X88773000Y-73533000D01*
X88773000Y-73513000D01*
X89027000Y-73513000D01*
X89027000Y-73533000D01*
X89047000Y-73533000D01*
X89047000Y-73787000D01*
X89027000Y-73787000D01*
X89027000Y-73807000D01*
X88773000Y-73807000D01*
X88773000Y-73787000D01*
X87573750Y-73787000D01*
X87415000Y-73945750D01*
X87415000Y-74636310D01*
X87511673Y-74869699D01*
X87690302Y-75048327D01*
X87851033Y-75114904D01*
X87829375Y-75129375D01*
X87621822Y-75440000D01*
X85310102Y-75440000D01*
X84315631Y-74445530D01*
X84273229Y-74382071D01*
X84021837Y-74214096D01*
X83832474Y-74176429D01*
X83620625Y-73859375D01*
X83322239Y-73660000D01*
X83620625Y-73460625D01*
X83948839Y-72969418D01*
X84064092Y-72390000D01*
X83948839Y-71810582D01*
X83620625Y-71319375D01*
X83322239Y-71120000D01*
X83620625Y-70920625D01*
X83948839Y-70429418D01*
X84064092Y-69850000D01*
X83981484Y-69434700D01*
X84964599Y-69434700D01*
X87134373Y-71604476D01*
X87134373Y-71604476D01*
G37*
X87134373Y-71604476D02*
X87176771Y-71667929D01*
X87240224Y-71710327D01*
X87240226Y-71710329D01*
X87310075Y-71757000D01*
X87428163Y-71835904D01*
X87617526Y-71873571D01*
X87829375Y-72190625D01*
X87851033Y-72205096D01*
X87690302Y-72271673D01*
X87511673Y-72450301D01*
X87415000Y-72683690D01*
X87415000Y-73374250D01*
X87573750Y-73533000D01*
X88773000Y-73533000D01*
X88773000Y-73513000D01*
X89027000Y-73513000D01*
X89027000Y-73533000D01*
X89047000Y-73533000D01*
X89047000Y-73787000D01*
X89027000Y-73787000D01*
X89027000Y-73807000D01*
X88773000Y-73807000D01*
X88773000Y-73787000D01*
X87573750Y-73787000D01*
X87415000Y-73945750D01*
X87415000Y-74636310D01*
X87511673Y-74869699D01*
X87690302Y-75048327D01*
X87851033Y-75114904D01*
X87829375Y-75129375D01*
X87621822Y-75440000D01*
X85310102Y-75440000D01*
X84315631Y-74445530D01*
X84273229Y-74382071D01*
X84021837Y-74214096D01*
X83832474Y-74176429D01*
X83620625Y-73859375D01*
X83322239Y-73660000D01*
X83620625Y-73460625D01*
X83948839Y-72969418D01*
X84064092Y-72390000D01*
X83948839Y-71810582D01*
X83620625Y-71319375D01*
X83322239Y-71120000D01*
X83620625Y-70920625D01*
X83948839Y-70429418D01*
X84064092Y-69850000D01*
X83981484Y-69434700D01*
X84964599Y-69434700D01*
X87134373Y-71604476D01*
G36*
X78525000Y-72104250D02*
X78683750Y-72263000D01*
X79883000Y-72263000D01*
X79883000Y-72243000D01*
X80137000Y-72243000D01*
X80137000Y-72263000D01*
X80157000Y-72263000D01*
X80157000Y-72517000D01*
X80137000Y-72517000D01*
X80137000Y-72537000D01*
X79883000Y-72537000D01*
X79883000Y-72517000D01*
X78683750Y-72517000D01*
X78525000Y-72675750D01*
X78525000Y-72900000D01*
X75078762Y-72900000D01*
X75127000Y-72783543D01*
X75127000Y-72250457D01*
X74973551Y-71880000D01*
X78525000Y-71880000D01*
X78525000Y-72104250D01*
X78525000Y-72104250D01*
G37*
X78525000Y-72104250D02*
X78683750Y-72263000D01*
X79883000Y-72263000D01*
X79883000Y-72243000D01*
X80137000Y-72243000D01*
X80137000Y-72263000D01*
X80157000Y-72263000D01*
X80157000Y-72517000D01*
X80137000Y-72517000D01*
X80137000Y-72537000D01*
X79883000Y-72537000D01*
X79883000Y-72517000D01*
X78683750Y-72517000D01*
X78525000Y-72675750D01*
X78525000Y-72900000D01*
X75078762Y-72900000D01*
X75127000Y-72783543D01*
X75127000Y-72250457D01*
X74973551Y-71880000D01*
X78525000Y-71880000D01*
X78525000Y-72104250D01*
G36*
X78525000Y-69564250D02*
X78683750Y-69723000D01*
X79883000Y-69723000D01*
X79883000Y-69703000D01*
X80137000Y-69703000D01*
X80137000Y-69723000D01*
X80157000Y-69723000D01*
X80157000Y-69977000D01*
X80137000Y-69977000D01*
X80137000Y-69997000D01*
X79883000Y-69997000D01*
X79883000Y-69977000D01*
X78683750Y-69977000D01*
X78525000Y-70135750D01*
X78525000Y-70360000D01*
X75078762Y-70360000D01*
X75127000Y-70243543D01*
X75127000Y-69710457D01*
X75012778Y-69434700D01*
X78525000Y-69434700D01*
X78525000Y-69564250D01*
X78525000Y-69564250D01*
G37*
X78525000Y-69564250D02*
X78683750Y-69723000D01*
X79883000Y-69723000D01*
X79883000Y-69703000D01*
X80137000Y-69703000D01*
X80137000Y-69723000D01*
X80157000Y-69723000D01*
X80157000Y-69977000D01*
X80137000Y-69977000D01*
X80137000Y-69997000D01*
X79883000Y-69997000D01*
X79883000Y-69977000D01*
X78683750Y-69977000D01*
X78525000Y-70135750D01*
X78525000Y-70360000D01*
X75078762Y-70360000D01*
X75127000Y-70243543D01*
X75127000Y-69710457D01*
X75012778Y-69434700D01*
X78525000Y-69434700D01*
X78525000Y-69564250D01*
G36*
X87829375Y-62030625D02*
X88127761Y-62230000D01*
X87829375Y-62429375D01*
X87501161Y-62920582D01*
X87385908Y-63500000D01*
X87501161Y-64079418D01*
X87829375Y-64570625D01*
X87851033Y-64585096D01*
X87690302Y-64651673D01*
X87511673Y-64830301D01*
X87415000Y-65063690D01*
X87415000Y-65754250D01*
X87573750Y-65913000D01*
X88773000Y-65913000D01*
X88773000Y-65893000D01*
X89027000Y-65893000D01*
X89027000Y-65913000D01*
X89047000Y-65913000D01*
X89047000Y-66167000D01*
X89027000Y-66167000D01*
X89027000Y-66187000D01*
X88773000Y-66187000D01*
X88773000Y-66167000D01*
X87573750Y-66167000D01*
X87415000Y-66325750D01*
X87415000Y-67016310D01*
X87511673Y-67249699D01*
X87690302Y-67428327D01*
X87851033Y-67494904D01*
X87829375Y-67509375D01*
X87501161Y-68000582D01*
X87385908Y-68580000D01*
X87501161Y-69159418D01*
X87829375Y-69650625D01*
X88127761Y-69850000D01*
X87829375Y-70049375D01*
X87789121Y-70109619D01*
X85869731Y-68190230D01*
X85827329Y-68126771D01*
X85575937Y-67958796D01*
X85354252Y-67914700D01*
X85354247Y-67914700D01*
X85279400Y-67899812D01*
X85204553Y-67914700D01*
X83931946Y-67914700D01*
X83948839Y-67889418D01*
X84064092Y-67310000D01*
X83948839Y-66730582D01*
X83620625Y-66239375D01*
X83322239Y-66040000D01*
X83620625Y-65840625D01*
X83948839Y-65349418D01*
X84064092Y-64770000D01*
X83948839Y-64190582D01*
X83620625Y-63699375D01*
X83129418Y-63371161D01*
X82696256Y-63285000D01*
X82403744Y-63285000D01*
X81970582Y-63371161D01*
X81479375Y-63699375D01*
X81464904Y-63721033D01*
X81398327Y-63560302D01*
X81219699Y-63381673D01*
X80986310Y-63285000D01*
X80295750Y-63285000D01*
X80137000Y-63443750D01*
X80137000Y-64643000D01*
X80157000Y-64643000D01*
X80157000Y-64897000D01*
X80137000Y-64897000D01*
X80137000Y-64917000D01*
X79883000Y-64917000D01*
X79883000Y-64897000D01*
X78683750Y-64897000D01*
X78525000Y-65055750D01*
X78525000Y-65280000D01*
X75078762Y-65280000D01*
X75127000Y-65163543D01*
X75127000Y-64630457D01*
X74922997Y-64137951D01*
X74578737Y-63793691D01*
X78525000Y-63793691D01*
X78525000Y-64484250D01*
X78683750Y-64643000D01*
X79883000Y-64643000D01*
X79883000Y-63443750D01*
X79724250Y-63285000D01*
X79033690Y-63285000D01*
X78800301Y-63381673D01*
X78621673Y-63560302D01*
X78525000Y-63793691D01*
X74578737Y-63793691D01*
X74546049Y-63761003D01*
X74222538Y-63627000D01*
X74546049Y-63492997D01*
X74922997Y-63116049D01*
X75127000Y-62623543D01*
X75127000Y-62090457D01*
X74973551Y-61720000D01*
X87621822Y-61720000D01*
X87829375Y-62030625D01*
X87829375Y-62030625D01*
G37*
X87829375Y-62030625D02*
X88127761Y-62230000D01*
X87829375Y-62429375D01*
X87501161Y-62920582D01*
X87385908Y-63500000D01*
X87501161Y-64079418D01*
X87829375Y-64570625D01*
X87851033Y-64585096D01*
X87690302Y-64651673D01*
X87511673Y-64830301D01*
X87415000Y-65063690D01*
X87415000Y-65754250D01*
X87573750Y-65913000D01*
X88773000Y-65913000D01*
X88773000Y-65893000D01*
X89027000Y-65893000D01*
X89027000Y-65913000D01*
X89047000Y-65913000D01*
X89047000Y-66167000D01*
X89027000Y-66167000D01*
X89027000Y-66187000D01*
X88773000Y-66187000D01*
X88773000Y-66167000D01*
X87573750Y-66167000D01*
X87415000Y-66325750D01*
X87415000Y-67016310D01*
X87511673Y-67249699D01*
X87690302Y-67428327D01*
X87851033Y-67494904D01*
X87829375Y-67509375D01*
X87501161Y-68000582D01*
X87385908Y-68580000D01*
X87501161Y-69159418D01*
X87829375Y-69650625D01*
X88127761Y-69850000D01*
X87829375Y-70049375D01*
X87789121Y-70109619D01*
X85869731Y-68190230D01*
X85827329Y-68126771D01*
X85575937Y-67958796D01*
X85354252Y-67914700D01*
X85354247Y-67914700D01*
X85279400Y-67899812D01*
X85204553Y-67914700D01*
X83931946Y-67914700D01*
X83948839Y-67889418D01*
X84064092Y-67310000D01*
X83948839Y-66730582D01*
X83620625Y-66239375D01*
X83322239Y-66040000D01*
X83620625Y-65840625D01*
X83948839Y-65349418D01*
X84064092Y-64770000D01*
X83948839Y-64190582D01*
X83620625Y-63699375D01*
X83129418Y-63371161D01*
X82696256Y-63285000D01*
X82403744Y-63285000D01*
X81970582Y-63371161D01*
X81479375Y-63699375D01*
X81464904Y-63721033D01*
X81398327Y-63560302D01*
X81219699Y-63381673D01*
X80986310Y-63285000D01*
X80295750Y-63285000D01*
X80137000Y-63443750D01*
X80137000Y-64643000D01*
X80157000Y-64643000D01*
X80157000Y-64897000D01*
X80137000Y-64897000D01*
X80137000Y-64917000D01*
X79883000Y-64917000D01*
X79883000Y-64897000D01*
X78683750Y-64897000D01*
X78525000Y-65055750D01*
X78525000Y-65280000D01*
X75078762Y-65280000D01*
X75127000Y-65163543D01*
X75127000Y-64630457D01*
X74922997Y-64137951D01*
X74578737Y-63793691D01*
X78525000Y-63793691D01*
X78525000Y-64484250D01*
X78683750Y-64643000D01*
X79883000Y-64643000D01*
X79883000Y-63443750D01*
X79724250Y-63285000D01*
X79033690Y-63285000D01*
X78800301Y-63381673D01*
X78621673Y-63560302D01*
X78525000Y-63793691D01*
X74578737Y-63793691D01*
X74546049Y-63761003D01*
X74222538Y-63627000D01*
X74546049Y-63492997D01*
X74922997Y-63116049D01*
X75127000Y-62623543D01*
X75127000Y-62090457D01*
X74973551Y-61720000D01*
X87621822Y-61720000D01*
X87829375Y-62030625D01*
G36*
X78525000Y-67024250D02*
X78683750Y-67183000D01*
X79883000Y-67183000D01*
X79883000Y-67163000D01*
X80137000Y-67163000D01*
X80137000Y-67183000D01*
X80157000Y-67183000D01*
X80157000Y-67437000D01*
X80137000Y-67437000D01*
X80137000Y-67457000D01*
X79883000Y-67457000D01*
X79883000Y-67437000D01*
X78683750Y-67437000D01*
X78525000Y-67595750D01*
X78525000Y-67914700D01*
X75039536Y-67914700D01*
X75127000Y-67703543D01*
X75127000Y-67170457D01*
X74973551Y-66800000D01*
X78525000Y-66800000D01*
X78525000Y-67024250D01*
X78525000Y-67024250D01*
G37*
X78525000Y-67024250D02*
X78683750Y-67183000D01*
X79883000Y-67183000D01*
X79883000Y-67163000D01*
X80137000Y-67163000D01*
X80137000Y-67183000D01*
X80157000Y-67183000D01*
X80157000Y-67437000D01*
X80137000Y-67437000D01*
X80137000Y-67457000D01*
X79883000Y-67457000D01*
X79883000Y-67437000D01*
X78683750Y-67437000D01*
X78525000Y-67595750D01*
X78525000Y-67914700D01*
X75039536Y-67914700D01*
X75127000Y-67703543D01*
X75127000Y-67170457D01*
X74973551Y-66800000D01*
X78525000Y-66800000D01*
X78525000Y-67024250D01*
G36*
X87134371Y-56364473D02*
X87176771Y-56427929D01*
X87428163Y-56595904D01*
X87617526Y-56633571D01*
X87829375Y-56950625D01*
X87851033Y-56965096D01*
X87690302Y-57031673D01*
X87511673Y-57210301D01*
X87415000Y-57443690D01*
X87415000Y-58134250D01*
X87573750Y-58293000D01*
X88773000Y-58293000D01*
X88773000Y-58273000D01*
X89027000Y-58273000D01*
X89027000Y-58293000D01*
X89047000Y-58293000D01*
X89047000Y-58547000D01*
X89027000Y-58547000D01*
X89027000Y-58567000D01*
X88773000Y-58567000D01*
X88773000Y-58547000D01*
X87573750Y-58547000D01*
X87415000Y-58705750D01*
X87415000Y-59396310D01*
X87511673Y-59629699D01*
X87690302Y-59808327D01*
X87851033Y-59874904D01*
X87829375Y-59889375D01*
X87621822Y-60200000D01*
X75078762Y-60200000D01*
X75127000Y-60083543D01*
X75127000Y-59551802D01*
X75327676Y-59351127D01*
X75391129Y-59308729D01*
X75433527Y-59245276D01*
X75433529Y-59245274D01*
X75542432Y-59082288D01*
X75559104Y-59057337D01*
X75603200Y-58835652D01*
X75603200Y-58835648D01*
X75618088Y-58760801D01*
X75603200Y-58685954D01*
X75603200Y-54362546D01*
X75618088Y-54287699D01*
X75603200Y-54212852D01*
X75603200Y-54212848D01*
X75559104Y-53991163D01*
X75556590Y-53987400D01*
X84757299Y-53987400D01*
X87134371Y-56364473D01*
X87134371Y-56364473D01*
G37*
X87134371Y-56364473D02*
X87176771Y-56427929D01*
X87428163Y-56595904D01*
X87617526Y-56633571D01*
X87829375Y-56950625D01*
X87851033Y-56965096D01*
X87690302Y-57031673D01*
X87511673Y-57210301D01*
X87415000Y-57443690D01*
X87415000Y-58134250D01*
X87573750Y-58293000D01*
X88773000Y-58293000D01*
X88773000Y-58273000D01*
X89027000Y-58273000D01*
X89027000Y-58293000D01*
X89047000Y-58293000D01*
X89047000Y-58547000D01*
X89027000Y-58547000D01*
X89027000Y-58567000D01*
X88773000Y-58567000D01*
X88773000Y-58547000D01*
X87573750Y-58547000D01*
X87415000Y-58705750D01*
X87415000Y-59396310D01*
X87511673Y-59629699D01*
X87690302Y-59808327D01*
X87851033Y-59874904D01*
X87829375Y-59889375D01*
X87621822Y-60200000D01*
X75078762Y-60200000D01*
X75127000Y-60083543D01*
X75127000Y-59551802D01*
X75327676Y-59351127D01*
X75391129Y-59308729D01*
X75433527Y-59245276D01*
X75433529Y-59245274D01*
X75542432Y-59082288D01*
X75559104Y-59057337D01*
X75603200Y-58835652D01*
X75603200Y-58835648D01*
X75618088Y-58760801D01*
X75603200Y-58685954D01*
X75603200Y-54362546D01*
X75618088Y-54287699D01*
X75603200Y-54212852D01*
X75603200Y-54212848D01*
X75559104Y-53991163D01*
X75556590Y-53987400D01*
X84757299Y-53987400D01*
X87134371Y-56364473D01*
G36*
X87829375Y-46790625D02*
X88127761Y-46990000D01*
X87829375Y-47189375D01*
X87501161Y-47680582D01*
X87385908Y-48260000D01*
X87501161Y-48839418D01*
X87829375Y-49330625D01*
X87851033Y-49345096D01*
X87690302Y-49411673D01*
X87511673Y-49590301D01*
X87415000Y-49823690D01*
X87415000Y-50514250D01*
X87573750Y-50673000D01*
X88773000Y-50673000D01*
X88773000Y-50653000D01*
X89027000Y-50653000D01*
X89027000Y-50673000D01*
X89047000Y-50673000D01*
X89047000Y-50927000D01*
X89027000Y-50927000D01*
X89027000Y-50947000D01*
X88773000Y-50947000D01*
X88773000Y-50927000D01*
X87573750Y-50927000D01*
X87415000Y-51085750D01*
X87415000Y-51776310D01*
X87511673Y-52009699D01*
X87690302Y-52188327D01*
X87851033Y-52254904D01*
X87829375Y-52269375D01*
X87501161Y-52760582D01*
X87385908Y-53340000D01*
X87501161Y-53919418D01*
X87829375Y-54410625D01*
X88127761Y-54610000D01*
X87829375Y-54809375D01*
X87789121Y-54869619D01*
X85662431Y-52742930D01*
X85620029Y-52679471D01*
X85368637Y-52511496D01*
X85146952Y-52467400D01*
X85146947Y-52467400D01*
X85072100Y-52452512D01*
X84997253Y-52467400D01*
X75125402Y-52467400D01*
X75127000Y-52463543D01*
X75127000Y-51930457D01*
X74922997Y-51437951D01*
X74546049Y-51061003D01*
X74222538Y-50927000D01*
X74546049Y-50792997D01*
X74922997Y-50416049D01*
X75127000Y-49923543D01*
X75127000Y-49390457D01*
X75026157Y-49147000D01*
X75448753Y-49147000D01*
X75523600Y-49161888D01*
X75598447Y-49147000D01*
X75598452Y-49147000D01*
X75820137Y-49102904D01*
X76071529Y-48934929D01*
X76113931Y-48871470D01*
X77330103Y-47655300D01*
X78512560Y-47655300D01*
X78512560Y-49110000D01*
X78561843Y-49357765D01*
X78702191Y-49567809D01*
X78912235Y-49708157D01*
X79160000Y-49757440D01*
X80860000Y-49757440D01*
X81107765Y-49708157D01*
X81317809Y-49567809D01*
X81458157Y-49357765D01*
X81507440Y-49110000D01*
X81507440Y-47655300D01*
X86474553Y-47655300D01*
X86549400Y-47670188D01*
X86624247Y-47655300D01*
X86624252Y-47655300D01*
X86845937Y-47611204D01*
X87097329Y-47443229D01*
X87139731Y-47379770D01*
X87789121Y-46730381D01*
X87829375Y-46790625D01*
X87829375Y-46790625D01*
G37*
X87829375Y-46790625D02*
X88127761Y-46990000D01*
X87829375Y-47189375D01*
X87501161Y-47680582D01*
X87385908Y-48260000D01*
X87501161Y-48839418D01*
X87829375Y-49330625D01*
X87851033Y-49345096D01*
X87690302Y-49411673D01*
X87511673Y-49590301D01*
X87415000Y-49823690D01*
X87415000Y-50514250D01*
X87573750Y-50673000D01*
X88773000Y-50673000D01*
X88773000Y-50653000D01*
X89027000Y-50653000D01*
X89027000Y-50673000D01*
X89047000Y-50673000D01*
X89047000Y-50927000D01*
X89027000Y-50927000D01*
X89027000Y-50947000D01*
X88773000Y-50947000D01*
X88773000Y-50927000D01*
X87573750Y-50927000D01*
X87415000Y-51085750D01*
X87415000Y-51776310D01*
X87511673Y-52009699D01*
X87690302Y-52188327D01*
X87851033Y-52254904D01*
X87829375Y-52269375D01*
X87501161Y-52760582D01*
X87385908Y-53340000D01*
X87501161Y-53919418D01*
X87829375Y-54410625D01*
X88127761Y-54610000D01*
X87829375Y-54809375D01*
X87789121Y-54869619D01*
X85662431Y-52742930D01*
X85620029Y-52679471D01*
X85368637Y-52511496D01*
X85146952Y-52467400D01*
X85146947Y-52467400D01*
X85072100Y-52452512D01*
X84997253Y-52467400D01*
X75125402Y-52467400D01*
X75127000Y-52463543D01*
X75127000Y-51930457D01*
X74922997Y-51437951D01*
X74546049Y-51061003D01*
X74222538Y-50927000D01*
X74546049Y-50792997D01*
X74922997Y-50416049D01*
X75127000Y-49923543D01*
X75127000Y-49390457D01*
X75026157Y-49147000D01*
X75448753Y-49147000D01*
X75523600Y-49161888D01*
X75598447Y-49147000D01*
X75598452Y-49147000D01*
X75820137Y-49102904D01*
X76071529Y-48934929D01*
X76113931Y-48871470D01*
X77330103Y-47655300D01*
X78512560Y-47655300D01*
X78512560Y-49110000D01*
X78561843Y-49357765D01*
X78702191Y-49567809D01*
X78912235Y-49708157D01*
X79160000Y-49757440D01*
X80860000Y-49757440D01*
X81107765Y-49708157D01*
X81317809Y-49567809D01*
X81458157Y-49357765D01*
X81507440Y-49110000D01*
X81507440Y-47655300D01*
X86474553Y-47655300D01*
X86549400Y-47670188D01*
X86624247Y-47655300D01*
X86624252Y-47655300D01*
X86845937Y-47611204D01*
X87097329Y-47443229D01*
X87139731Y-47379770D01*
X87789121Y-46730381D01*
X87829375Y-46790625D01*
G36*
X50671161Y-42600582D02*
X50555908Y-43180000D01*
X50671161Y-43759418D01*
X50999375Y-44250625D01*
X51021033Y-44265096D01*
X50860302Y-44331673D01*
X50681673Y-44510301D01*
X50585000Y-44743690D01*
X50585000Y-45434250D01*
X50743750Y-45593000D01*
X51943000Y-45593000D01*
X51943000Y-45573000D01*
X52197000Y-45573000D01*
X52197000Y-45593000D01*
X53396250Y-45593000D01*
X53555000Y-45434250D01*
X53555000Y-44743690D01*
X53458327Y-44510301D01*
X53279698Y-44331673D01*
X53118967Y-44265096D01*
X53140625Y-44250625D01*
X53180879Y-44190381D01*
X54051973Y-45061476D01*
X54094371Y-45124929D01*
X54157824Y-45167327D01*
X54157826Y-45167329D01*
X54220639Y-45209299D01*
X54345763Y-45292904D01*
X54567448Y-45337000D01*
X54567452Y-45337000D01*
X54642299Y-45351888D01*
X54717146Y-45337000D01*
X57411954Y-45337000D01*
X57450576Y-45375622D01*
X55649599Y-47176600D01*
X53114873Y-47176600D01*
X53279698Y-47108327D01*
X53458327Y-46929699D01*
X53555000Y-46696310D01*
X53555000Y-46005750D01*
X53396250Y-45847000D01*
X52197000Y-45847000D01*
X52197000Y-45867000D01*
X51943000Y-45867000D01*
X51943000Y-45847000D01*
X50743750Y-45847000D01*
X50585000Y-46005750D01*
X50585000Y-46696310D01*
X50681673Y-46929699D01*
X50860302Y-47108327D01*
X51025127Y-47176600D01*
X44704000Y-47176600D01*
X44704000Y-46686858D01*
X44471985Y-46126723D01*
X44065262Y-45720000D01*
X44471985Y-45313277D01*
X44704000Y-44753142D01*
X44704000Y-44146858D01*
X44471985Y-43586723D01*
X44065262Y-43180000D01*
X44471985Y-42773277D01*
X44624613Y-42404800D01*
X50801978Y-42404800D01*
X50671161Y-42600582D01*
X50671161Y-42600582D01*
G37*
X50671161Y-42600582D02*
X50555908Y-43180000D01*
X50671161Y-43759418D01*
X50999375Y-44250625D01*
X51021033Y-44265096D01*
X50860302Y-44331673D01*
X50681673Y-44510301D01*
X50585000Y-44743690D01*
X50585000Y-45434250D01*
X50743750Y-45593000D01*
X51943000Y-45593000D01*
X51943000Y-45573000D01*
X52197000Y-45573000D01*
X52197000Y-45593000D01*
X53396250Y-45593000D01*
X53555000Y-45434250D01*
X53555000Y-44743690D01*
X53458327Y-44510301D01*
X53279698Y-44331673D01*
X53118967Y-44265096D01*
X53140625Y-44250625D01*
X53180879Y-44190381D01*
X54051973Y-45061476D01*
X54094371Y-45124929D01*
X54157824Y-45167327D01*
X54157826Y-45167329D01*
X54220639Y-45209299D01*
X54345763Y-45292904D01*
X54567448Y-45337000D01*
X54567452Y-45337000D01*
X54642299Y-45351888D01*
X54717146Y-45337000D01*
X57411954Y-45337000D01*
X57450576Y-45375622D01*
X55649599Y-47176600D01*
X53114873Y-47176600D01*
X53279698Y-47108327D01*
X53458327Y-46929699D01*
X53555000Y-46696310D01*
X53555000Y-46005750D01*
X53396250Y-45847000D01*
X52197000Y-45847000D01*
X52197000Y-45867000D01*
X51943000Y-45867000D01*
X51943000Y-45847000D01*
X50743750Y-45847000D01*
X50585000Y-46005750D01*
X50585000Y-46696310D01*
X50681673Y-46929699D01*
X50860302Y-47108327D01*
X51025127Y-47176600D01*
X44704000Y-47176600D01*
X44704000Y-46686858D01*
X44471985Y-46126723D01*
X44065262Y-45720000D01*
X44471985Y-45313277D01*
X44704000Y-44753142D01*
X44704000Y-44146858D01*
X44471985Y-43586723D01*
X44065262Y-43180000D01*
X44471985Y-42773277D01*
X44624613Y-42404800D01*
X50801978Y-42404800D01*
X50671161Y-42600582D01*
G36*
X87415000Y-42894250D02*
X87573750Y-43053000D01*
X88773000Y-43053000D01*
X88773000Y-43033000D01*
X89027000Y-43033000D01*
X89027000Y-43053000D01*
X89047000Y-43053000D01*
X89047000Y-43307000D01*
X89027000Y-43307000D01*
X89027000Y-43327000D01*
X88773000Y-43327000D01*
X88773000Y-43307000D01*
X87573750Y-43307000D01*
X87415000Y-43465750D01*
X87415000Y-43755500D01*
X75826446Y-43755500D01*
X75751599Y-43740612D01*
X75676752Y-43755500D01*
X75676748Y-43755500D01*
X75455063Y-43799596D01*
X75455061Y-43799597D01*
X75455062Y-43799597D01*
X75267126Y-43925171D01*
X75267124Y-43925173D01*
X75203671Y-43967571D01*
X75161273Y-44031024D01*
X75064684Y-44127614D01*
X74962185Y-43880159D01*
X74725900Y-43817705D01*
X73966605Y-44577000D01*
X73980748Y-44591143D01*
X73801143Y-44770748D01*
X73787000Y-44756605D01*
X73772858Y-44770748D01*
X73593253Y-44591143D01*
X73607395Y-44577000D01*
X72848100Y-43817705D01*
X72611815Y-43880159D01*
X72434602Y-44382926D01*
X72463278Y-44915240D01*
X72534423Y-45087000D01*
X61502046Y-45087000D01*
X61427199Y-45072112D01*
X61352352Y-45087000D01*
X61352348Y-45087000D01*
X61241440Y-45109061D01*
X62712401Y-43638100D01*
X73027705Y-43638100D01*
X73787000Y-44397395D01*
X74546295Y-43638100D01*
X74483841Y-43401815D01*
X73981074Y-43224602D01*
X73448760Y-43253278D01*
X73090159Y-43401815D01*
X73027705Y-43638100D01*
X62712401Y-43638100D01*
X63200102Y-43150400D01*
X74785689Y-43150400D01*
X74903120Y-43267831D01*
X75283526Y-43425400D01*
X75695274Y-43425400D01*
X76075680Y-43267831D01*
X76366831Y-42976680D01*
X76524400Y-42596274D01*
X76524400Y-42404800D01*
X87415000Y-42404800D01*
X87415000Y-42894250D01*
X87415000Y-42894250D01*
G37*
X87415000Y-42894250D02*
X87573750Y-43053000D01*
X88773000Y-43053000D01*
X88773000Y-43033000D01*
X89027000Y-43033000D01*
X89027000Y-43053000D01*
X89047000Y-43053000D01*
X89047000Y-43307000D01*
X89027000Y-43307000D01*
X89027000Y-43327000D01*
X88773000Y-43327000D01*
X88773000Y-43307000D01*
X87573750Y-43307000D01*
X87415000Y-43465750D01*
X87415000Y-43755500D01*
X75826446Y-43755500D01*
X75751599Y-43740612D01*
X75676752Y-43755500D01*
X75676748Y-43755500D01*
X75455063Y-43799596D01*
X75455061Y-43799597D01*
X75455062Y-43799597D01*
X75267126Y-43925171D01*
X75267124Y-43925173D01*
X75203671Y-43967571D01*
X75161273Y-44031024D01*
X75064684Y-44127614D01*
X74962185Y-43880159D01*
X74725900Y-43817705D01*
X73966605Y-44577000D01*
X73980748Y-44591143D01*
X73801143Y-44770748D01*
X73787000Y-44756605D01*
X73772858Y-44770748D01*
X73593253Y-44591143D01*
X73607395Y-44577000D01*
X72848100Y-43817705D01*
X72611815Y-43880159D01*
X72434602Y-44382926D01*
X72463278Y-44915240D01*
X72534423Y-45087000D01*
X61502046Y-45087000D01*
X61427199Y-45072112D01*
X61352352Y-45087000D01*
X61352348Y-45087000D01*
X61241440Y-45109061D01*
X62712401Y-43638100D01*
X73027705Y-43638100D01*
X73787000Y-44397395D01*
X74546295Y-43638100D01*
X74483841Y-43401815D01*
X73981074Y-43224602D01*
X73448760Y-43253278D01*
X73090159Y-43401815D01*
X73027705Y-43638100D01*
X62712401Y-43638100D01*
X63200102Y-43150400D01*
X74785689Y-43150400D01*
X74903120Y-43267831D01*
X75283526Y-43425400D01*
X75695274Y-43425400D01*
X76075680Y-43267831D01*
X76366831Y-42976680D01*
X76524400Y-42596274D01*
X76524400Y-42404800D01*
X87415000Y-42404800D01*
X87415000Y-42894250D01*
G04 #@! TD*
M02*
