M48
;DRILL file {KiCad (5.0.2)-1} date 3/12/2019 11:49:21 PM
;FORMAT={-:-/ absolute / inch / decimal}
FMAT,2
INCH,TZ
T1C0.0157
T2C0.0315
T3C0.0394
%
G90
G05
T1
X1.685Y-4.345
X1.7735Y-3.2408
X1.8617Y-3.0223
X1.9038Y-3.1384
X1.9966Y-3.815
X2.05Y-2.73
X2.065Y-3.855
X2.46Y-3.185
X2.461Y-1.9712
X2.51Y-3.225
X2.54Y-2.025
T2
X2.3Y-1.7
X2.3Y-1.8
X2.3Y-1.9
X2.3Y-2.
X2.3Y-2.1
X2.3Y-2.2
X2.3Y-2.3
X2.3Y-2.4
X2.3Y-2.5
X2.3Y-2.6
X2.3Y-2.7
X2.3Y-2.8
X2.9Y-1.7
X2.9Y-1.8
X2.9Y-1.9
X2.9Y-2.
X2.9Y-2.1
X2.9Y-2.2
X2.9Y-2.3
X2.9Y-2.4
X2.9Y-2.5
X2.9Y-2.6
X2.9Y-2.7
X2.9Y-2.8
X2.3Y-3.45
X2.3Y-3.55
X2.3Y-3.65
X2.3Y-3.75
X2.3Y-3.85
X2.3Y-3.95
X2.3Y-4.05
X2.3Y-4.15
X2.3Y-4.25
X2.3Y-4.35
X2.3Y-4.45
X2.3Y-4.55
X2.9Y-3.45
X2.9Y-3.55
X2.9Y-3.65
X2.9Y-3.75
X2.9Y-3.85
X2.9Y-3.95
X2.9Y-4.05
X2.9Y-4.15
X2.9Y-4.25
X2.9Y-4.35
X2.9Y-4.45
X2.9Y-4.55
T3
X1.1Y-2.45
X1.1Y-2.55
X1.1Y-2.65
X1.1Y-2.75
X1.1Y-2.85
X1.1Y-2.95
X1.1Y-3.05
X1.1Y-3.15
X1.7Y-2.45
X1.7Y-2.55
X1.7Y-2.65
X1.7Y-2.75
X1.7Y-2.85
X1.7Y-2.95
X1.7Y-3.05
X1.7Y-3.15
X3.15Y-2.85
X3.25Y-2.85
X1.1Y-1.65
X1.1Y-1.75
X1.1Y-1.85
X1.1Y-1.95
X1.1Y-2.05
X1.1Y-2.15
X1.1Y-2.25
X1.1Y-2.35
X1.7Y-1.65
X1.7Y-1.75
X1.7Y-1.85
X1.7Y-1.95
X1.7Y-2.05
X1.7Y-2.15
X1.7Y-2.25
X1.7Y-2.35
X3.5Y-2.9
X3.5Y-3.
X3.5Y-3.1
X3.5Y-1.7
X3.5Y-1.8
X3.5Y-1.9
X3.15Y-3.7
X3.15Y-3.8
X2.05Y-3.55
X2.05Y-3.65
X3.15Y-3.25
X3.25Y-3.25
X3.15Y-2.55
X3.25Y-2.55
X3.15Y-3.05
X3.25Y-3.05
X3.15Y-2.75
X3.25Y-2.75
X3.15Y-1.8
X3.15Y-1.9
X3.15Y-3.15
X3.25Y-3.15
X3.5Y-3.8
X3.5Y-3.9
X3.5Y-4.
X3.5Y-2.6
X3.5Y-2.7
X3.5Y-2.8
X1.15Y-4.45
X1.25Y-4.45
X1.35Y-4.45
X1.45Y-4.45
X1.55Y-4.45
X3.5Y-2.3
X3.5Y-2.4
X3.5Y-2.5
X2.05Y-1.7
X2.05Y-1.8
X3.5Y-3.5
X3.5Y-3.6
X3.5Y-3.7
X3.15Y-2.65
X3.25Y-2.65
X1.1Y-3.25
X1.1Y-3.35
X1.1Y-3.45
X1.1Y-3.55
X1.1Y-3.65
X1.1Y-3.75
X1.1Y-3.85
X1.1Y-3.95
X1.7Y-3.25
X1.7Y-3.35
X1.7Y-3.45
X1.7Y-3.55
X1.7Y-3.65
X1.7Y-3.75
X1.7Y-3.85
X1.7Y-3.95
X3.5Y-3.2
X3.5Y-3.3
X3.5Y-3.4
X3.5Y-2.
X3.5Y-2.1
X3.5Y-2.2
X3.15Y-2.95
X3.25Y-2.95
T0
M30
