M48
;DRILL file {KiCad (5.0.2)-1} date 3/22/2019 11:58:48 PM
;FORMAT={-:-/ absolute / inch / decimal}
FMAT,2
INCH,TZ
T1C0.0157
T2C0.0315
T3C0.0394
%
G90
G05
T1
X1.47Y-4.065
X1.5433Y-2.4417
X1.581Y-3.13
X1.835Y-3.51
X1.8517Y-3.6666
X1.8803Y-3.5952
X2.145Y-3.65
X2.1544Y-3.4919
X2.185Y-2.945
X2.4857Y-2.5356
X2.51Y-4.545
X2.5251Y-2.5394
X2.57Y-1.735
X2.9345Y-1.6076
X2.972Y-1.6689
X3.315Y-1.595
X3.315Y-1.7
X3.315Y-1.925
X3.355Y-2.465
X3.39Y-2.3
T2
X2.305Y-3.445
X2.305Y-3.545
X2.305Y-3.645
X2.305Y-3.745
X2.305Y-3.845
X2.305Y-3.945
X2.305Y-4.045
X2.305Y-4.145
X2.305Y-4.245
X2.305Y-4.345
X2.305Y-4.445
X2.305Y-4.545
X2.905Y-3.445
X2.905Y-3.545
X2.905Y-3.645
X2.905Y-3.745
X2.905Y-3.845
X2.905Y-3.945
X2.905Y-4.045
X2.905Y-4.145
X2.905Y-4.245
X2.905Y-4.345
X2.905Y-4.445
X2.905Y-4.545
X2.305Y-1.755
X2.305Y-1.855
X2.305Y-1.955
X2.305Y-2.055
X2.305Y-2.155
X2.305Y-2.255
X2.305Y-2.355
X2.305Y-2.455
X2.305Y-2.555
X2.305Y-2.655
X2.305Y-2.755
X2.305Y-2.855
X2.905Y-1.755
X2.905Y-1.855
X2.905Y-1.955
X2.905Y-2.055
X2.905Y-2.155
X2.905Y-2.255
X2.905Y-2.355
X2.905Y-2.455
X2.905Y-2.555
X2.905Y-2.655
X2.905Y-2.755
X2.905Y-2.855
T3
X3.15Y-2.65
X3.25Y-2.65
X3.15Y-2.95
X3.25Y-2.95
X3.15Y-1.8
X3.15Y-1.9
X1.1Y-3.25
X1.1Y-3.35
X1.1Y-3.45
X1.1Y-3.55
X1.1Y-3.65
X1.1Y-3.75
X1.1Y-3.85
X1.1Y-3.95
X1.7Y-3.25
X1.7Y-3.35
X1.7Y-3.45
X1.7Y-3.55
X1.7Y-3.65
X1.7Y-3.75
X1.7Y-3.85
X1.7Y-3.95
X3.15Y-3.25
X3.25Y-3.25
X1.1Y-2.45
X1.1Y-2.55
X1.1Y-2.65
X1.1Y-2.75
X1.1Y-2.85
X1.1Y-2.95
X1.1Y-3.05
X1.1Y-3.15
X1.7Y-2.45
X1.7Y-2.55
X1.7Y-2.65
X1.7Y-2.75
X1.7Y-2.85
X1.7Y-2.95
X1.7Y-3.05
X1.7Y-3.15
X3.5Y-3.2
X3.5Y-3.3
X3.5Y-3.4
X3.15Y-2.55
X3.25Y-2.55
X3.15Y-3.15
X3.25Y-3.15
X1.1Y-1.65
X1.1Y-1.75
X1.1Y-1.85
X1.1Y-1.95
X1.1Y-2.05
X1.1Y-2.15
X1.1Y-2.25
X1.1Y-2.35
X1.7Y-1.65
X1.7Y-1.75
X1.7Y-1.85
X1.7Y-1.95
X1.7Y-2.05
X1.7Y-2.15
X1.7Y-2.25
X1.7Y-2.35
X3.5Y-3.8
X3.5Y-3.9
X3.5Y-4.
X1.15Y-4.45
X1.25Y-4.45
X1.35Y-4.45
X1.45Y-4.45
X1.55Y-4.45
X1.65Y-4.45
X3.15Y-3.7
X3.15Y-3.8
X2.05Y-3.55
X2.05Y-3.65
X3.5Y-2.3
X3.5Y-2.4
X3.5Y-2.5
X3.15Y-2.75
X3.25Y-2.75
X3.15Y-3.05
X3.25Y-3.05
X2.05Y-1.7
X2.05Y-1.8
X3.5Y-3.5
X3.5Y-3.6
X3.5Y-3.7
X3.5Y-2.6
X3.5Y-2.7
X3.5Y-2.8
X3.15Y-2.85
X3.25Y-2.85
X3.5Y-1.7
X3.5Y-1.8
X3.5Y-1.9
X3.5Y-2.9
X3.5Y-3.
X3.5Y-3.1
X3.5Y-2.
X3.5Y-2.1
X3.5Y-2.2
T0
M30
